<?xml version="1.0" encoding="UTF-8"?>
<svg id="Calque_2" data-name="Calque 2" xmlns="http://www.w3.org/2000/svg" xmlns:xlink="http://www.w3.org/1999/xlink" viewBox="0 0 202.33 114.22">
  <defs>
    <style>
      .cls-1 {
        fill: url(#Dégradé_sans_nom_16);
      }

      .cls-2 {
        fill: #fff;
      }

      .cls-3 {
        stroke: #fff;
        stroke-width: .58px;
      }

      .cls-3, .cls-4 {
        stroke-miterlimit: 10;
      }

      .cls-3, .cls-4, .cls-5 {
        fill: none;
      }

      .Style_graphique_4 {
        fill: url(#Dégradé_sans_nom_31);
      }

      .cls-6 {
        filter: url(#outer-glow-1);
      }

      .cls-7 {
        fill: url(#Dégradé_sans_nom_111);
      }

      .cls-8 {
        letter-spacing: -.05em;
      }

      .cls-9 {
        clip-path: url(#clippath);
      }

      .cls-4 {
        stroke: #0085f0;
        stroke-width: .88px;
      }

      .cls-10 {
        letter-spacing: -.06em;
      }

      .cls-5 {
        filter: url(#outer-glow-2);
        font-family: MonumentExtended-Ultrabold, 'Monument Extended';
        font-size: 33.83px;
        font-weight: 700;
      }
    </style>
    <linearGradient id="Dégradé_sans_nom_31" data-name="Dégradé sans nom 31" x1="960.33" y1="312.63" x2="1013.16" y2="312.63" gradientTransform="translate(413.8 -956.4) rotate(90)" gradientUnits="userSpaceOnUse">
      <stop offset="0" stop-color="#f1acef"/>
      <stop offset=".13" stop-color="#f18ce2"/>
      <stop offset=".29" stop-color="#f16ad4"/>
      <stop offset=".46" stop-color="#f14fc9"/>
      <stop offset=".64" stop-color="#f13cc1"/>
      <stop offset=".81" stop-color="#f130bc"/>
      <stop offset="1" stop-color="#f22dbb"/>
    </linearGradient>
    <linearGradient id="Dégradé_sans_nom_111" data-name="Dégradé sans nom 111" x1="101.16" y1="113.59" x2="101.16" y2=".48" gradientUnits="userSpaceOnUse">
      <stop offset=".01" stop-color="#362729"/>
      <stop offset=".11" stop-color="#251a1c"/>
      <stop offset=".27" stop-color="#000"/>
      <stop offset=".28" stop-color="#090607"/>
      <stop offset=".29" stop-color="#22181a"/>
      <stop offset=".31" stop-color="#4c363a"/>
      <stop offset=".34" stop-color="#865f66"/>
      <stop offset=".37" stop-color="#ce939e"/>
      <stop offset=".37" stop-color="#db9ca8"/>
      <stop offset=".38" stop-color="#d29ba9"/>
      <stop offset=".4" stop-color="#b195ac"/>
      <stop offset=".5" stop-color="#0075be"/>
      <stop offset=".64" stop-color="#000e97"/>
      <stop offset=".99" stop-color="#000e97"/>
    </linearGradient>
    <clipPath id="clippath">
      <rect class="cls-4" x=".44" y=".44" width="201.45" height="113.33" rx="56.67" ry="56.67"/>
    </clipPath>
    <filter id="outer-glow-1" filterUnits="userSpaceOnUse">
      <feOffset dx="0" dy="0"/>
      <feGaussianBlur result="blur" stdDeviation="5.61"/>
      <feFlood flood-color="#ff7bac" flood-opacity=".37"/>
      <feComposite in2="blur" operator="in"/>
      <feComposite in="SourceGraphic"/>
    </filter>
    <linearGradient id="Dégradé_sans_nom_16" data-name="Dégradé sans nom 16" x1="-4.07" y1="129.79" x2="217.6" y2="129.79" gradientUnits="userSpaceOnUse">
      <stop offset=".17" stop-color="#000"/>
      <stop offset=".2" stop-color="#090607"/>
      <stop offset=".25" stop-color="#22181a"/>
      <stop offset=".3" stop-color="#4c363a"/>
      <stop offset=".37" stop-color="#865f66"/>
      <stop offset=".45" stop-color="#ce939e"/>
      <stop offset=".46" stop-color="#db9ca8"/>
      <stop offset=".69" stop-color="#0075be"/>
      <stop offset=".99" stop-color="#000e97"/>
    </linearGradient>
    <filter id="outer-glow-2" filterUnits="userSpaceOnUse">
      <feOffset dx="0" dy="0"/>
      <feGaussianBlur result="blur-2" stdDeviation="3.53"/>
      <feFlood flood-color="#ff7bac" flood-opacity="1"/>
      <feComposite in2="blur-2" operator="in"/>
      <feComposite in="SourceGraphic"/>
    </filter>
  </defs>
  <g id="Calque_1-2" data-name="Calque 1">
    <g>
      <rect class="cls-7" x=".82" y=".48" width="200.68" height="113.11" rx="56.56" ry="56.56"/>
      <circle class="Style_graphique_4" cx="101.16" cy="30.35" r="26.41"/>
      <g>
        <g class="cls-9">
          <g class="cls-6">
            <rect class="cls-2" x="92.24" y="6.79" width="17.35" height=".13"/>
            <rect class="cls-2" x="92.24" y="9.02" width="17.35" height=".19"/>
            <rect class="cls-2" x="92.24" y="11.26" width="17.35" height=".25"/>
            <rect class="cls-2" x="92.24" y="13.49" width="17.35" height=".3"/>
            <rect class="cls-2" x="92.24" y="15.73" width="17.35" height=".36"/>
            <rect class="cls-2" x="92.24" y="17.96" width="17.35" height=".42"/>
            <rect class="cls-2" x="92.24" y="20.19" width="17.35" height=".48"/>
            <rect class="cls-2" x="92.24" y="22.43" width="17.35" height=".53"/>
            <rect class="cls-2" x="92.24" y="24.66" width="17.35" height=".59"/>
            <rect class="cls-2" x="92.24" y="26.89" width="17.35" height=".65"/>
            <rect class="cls-2" x="92.24" y="29.13" width="17.35" height=".7"/>
            <rect class="cls-2" x="92.24" y="31.36" width="17.35" height=".76"/>
            <rect class="cls-2" x="92.24" y="33.6" width="17.35" height=".82"/>
            <rect class="cls-2" x="92.24" y="35.83" width="17.35" height=".87"/>
            <rect class="cls-2" x="92.24" y="38.06" width="17.35" height=".93"/>
            <rect class="cls-2" x="92.24" y="40.3" width="17.35" height=".99"/>
            <rect class="cls-2" x="92.24" y="42.53" width="17.35" height="1.05"/>
            <rect class="cls-2" x="92.24" y="44.77" width="17.35" height="1.1"/>
            <rect class="cls-2" x="92.24" y="47" width="17.35" height="1.16"/>
            <rect class="cls-2" x="92.24" y="49.23" width="17.35" height="1.22"/>
            <rect class="cls-2" x="92.24" y="51.47" width="17.35" height="1.27"/>
            <rect class="cls-2" x="92.24" y="53.7" width="17.35" height="1.33"/>
          </g>
          <polyline class="cls-1" points="156.79 71.25 201.22 81.58 201.33 84.08 151.29 71.58 145.73 71.91 201.33 86.91 201.22 90.91 140.71 72.25 135.28 71.91 201.22 96.25 204.94 94.3 .54 96.25 65.81 72.91 61.52 72.91 .54 91.25 -2.73 93.3 217.6 90.91 214.94 97.58 179.25 188.33 -4.07 100.91 208.27 100.91 168.93 113.69 117.79 72.91 111.89 73.25 140.71 113.69 112.93 113.69 104.31 73.91 97.94 74.58 86.27 113.69 59.86 113.69 90.6 74.91 38.52 73.56 .65 79.91 .65 81.58 43.16 72.58 50.07 72.58 .65 84.08 .65 86.58 55.95 73.25 70.51 73.58 .54 103.58 201.22 104.58 128.92 72.91 124.41 72.91 195.6 113.69 201.22 108.58 .65 108.58 4.93 113.69 78.27 73.58 83.6 73.58 32.94 113.69"/>
        </g>
        <rect class="cls-4" x=".44" y=".44" width="201.45" height="113.33" rx="56.67" ry="56.67"/>
      </g>
      <text class="cls-5" transform="translate(49.25 44.78)"><tspan class="cls-8" x="0" y="0">R</tspan><tspan class="cls-10" x="27" y="0">W</tspan><tspan x="75.1" y="0">C</tspan></text>
      <path class="cls-2" d="m56.58,70.67v-6.97h2.82c.07,0,.15,0,.25,0,.1,0,.2.02.29.03.39.06.71.19.97.4.26.2.45.46.58.77.13.31.19.65.19,1.03,0,.56-.14,1.03-.43,1.44-.28.4-.71.65-1.28.75l-.41.05h-1.98v2.5h-1.01Zm1.01-3.46h1.77c.06,0,.14,0,.22,0,.08,0,.15-.02.23-.03.21-.05.37-.14.5-.27.13-.13.22-.28.27-.45.05-.17.08-.34.08-.51s-.03-.34-.08-.51c-.05-.17-.15-.32-.27-.45-.13-.13-.29-.22-.5-.27-.07-.02-.15-.03-.23-.04-.08,0-.15,0-.22,0h-1.77v2.56Zm3.07,3.46l-1.38-2.84,1.02-.26,1.51,3.1h-1.16Z"/>
      <path class="cls-2" d="m65.2,70.82c-.52,0-.98-.11-1.37-.34-.39-.23-.7-.55-.92-.95s-.33-.88-.33-1.42c0-.57.11-1.07.32-1.49.21-.42.51-.74.9-.97.38-.23.83-.34,1.34-.34s.99.12,1.36.37c.37.25.65.6.84,1.05.19.46.26,1,.22,1.62h-1.01v-.37c0-.61-.12-1.06-.35-1.35-.22-.29-.57-.44-1.02-.44-.51,0-.89.16-1.14.48-.26.32-.38.78-.38,1.38s.13,1.02.38,1.33c.25.31.62.47,1.1.47.32,0,.59-.07.82-.22.23-.14.41-.35.54-.62l.99.31c-.2.47-.51.83-.92,1.09-.41.26-.87.38-1.38.38Zm-1.86-2.47v-.79h3.73v.79h-3.73Z"/>
      <path class="cls-2" d="m68.08,66.26v-.81h3.57v.81h-3.57Zm3.57,4.42c-.33.06-.65.09-.97.08-.32,0-.6-.07-.85-.18-.25-.11-.44-.29-.56-.53-.11-.22-.17-.44-.18-.66,0-.22-.01-.48-.01-.76v-4.62h1.02v4.58c0,.21,0,.39,0,.55,0,.15.04.29.1.39.12.2.3.31.55.34.25.03.55.02.89-.03v.86Z"/>
      <path class="cls-2" d="m72.75,70.67v-5.23h.9v1.27l-.13-.16c.06-.17.15-.32.25-.46.1-.14.22-.26.36-.35.13-.1.28-.17.44-.23.16-.05.33-.09.5-.1.17-.01.34,0,.49.03v.95c-.17-.05-.36-.06-.57-.04-.21.02-.4.09-.57.2-.16.11-.29.24-.39.39-.1.15-.16.32-.21.51-.04.19-.06.38-.06.59v2.64h-1.02Z"/>
      <path class="cls-2" d="m78.67,70.82c-.52,0-.98-.12-1.36-.35-.38-.24-.68-.56-.89-.98s-.31-.89-.31-1.44.11-1.03.32-1.44c.21-.41.51-.74.9-.97.38-.23.83-.35,1.35-.35s.98.12,1.36.35c.38.24.68.56.89.97.21.41.31.89.31,1.43s-.11,1.03-.32,1.44c-.21.41-.51.74-.89.97-.38.23-.84.35-1.36.35Zm0-.95c.5,0,.87-.17,1.12-.51.25-.34.37-.77.37-1.31s-.13-.98-.38-1.31c-.25-.33-.62-.49-1.12-.49-.34,0-.62.08-.84.23-.22.15-.38.36-.49.63s-.16.58-.16.94c0,.55.13.99.38,1.32.25.33.62.49,1.11.49Z"/>
      <path class="cls-2" d="m83.48,70.67l-2.02-6.97h1.06l1.47,5.27,1.47-5.27h1.07s1.47,5.27,1.47,5.27l1.47-5.27h1.07l-2.03,6.97h-1.01l-1.5-5.22-1.5,5.22h-1.01Z"/>
      <path class="cls-2" d="m92.37,70.82c-.39,0-.71-.07-.97-.22-.26-.14-.46-.33-.59-.57-.13-.24-.2-.5-.2-.78,0-.26.05-.5.14-.7.09-.2.23-.37.42-.51s.41-.25.68-.34c.23-.07.5-.13.79-.18.29-.05.6-.1.93-.15s.65-.09.97-.14l-.37.2c0-.41-.08-.71-.26-.91-.18-.2-.49-.3-.92-.3-.27,0-.53.06-.76.19-.23.13-.39.34-.48.63l-.94-.29c.13-.45.38-.81.74-1.07.36-.26.85-.4,1.45-.4.47,0,.88.08,1.22.24.35.16.6.41.76.76.08.17.14.35.15.54.02.19.03.4.03.61v3.22h-.9v-1.2l.17.15c-.22.4-.49.7-.83.89-.33.2-.75.29-1.23.29Zm.18-.83c.29,0,.53-.05.74-.15.21-.1.37-.23.5-.39.13-.16.21-.32.25-.49.05-.15.09-.33.09-.52,0-.19.01-.35.01-.46l.33.12c-.32.05-.61.09-.87.13-.26.04-.5.08-.71.11-.21.04-.4.08-.56.13-.14.05-.26.11-.37.17-.11.07-.19.15-.26.25-.06.1-.09.21-.09.35s.03.26.1.38c.07.11.17.21.31.27.14.07.32.1.53.1Z"/>
      <path class="cls-2" d="m97.63,70.67l-1.9-5.23h1.02l1.39,3.96,1.39-3.96h1.02l-1.9,5.23h-1.03Z"/>
      <path class="cls-2" d="m103.55,70.82c-.52,0-.98-.11-1.37-.34-.39-.23-.7-.55-.92-.95s-.33-.88-.33-1.42c0-.57.11-1.07.32-1.49.21-.42.51-.74.9-.97.38-.23.83-.34,1.34-.34s.99.12,1.36.37c.37.25.65.6.84,1.05s.26,1,.22,1.62h-1.01v-.37c0-.61-.12-1.06-.35-1.35-.22-.29-.57-.44-1.02-.44-.51,0-.89.16-1.14.48-.26.32-.38.78-.38,1.38s.13,1.02.38,1.33c.25.31.62.47,1.1.47.32,0,.59-.07.82-.22.23-.14.41-.35.54-.62l.99.31c-.2.47-.51.83-.92,1.09-.41.26-.87.38-1.38.38Zm-1.86-2.47v-.79h3.73v.79h-3.73Z"/>
      <path class="cls-2" d="m109.92,70.82c-.7,0-1.29-.15-1.78-.46-.49-.31-.87-.73-1.13-1.28-.26-.55-.39-1.18-.39-1.9s.13-1.35.39-1.9c.26-.55.64-.97,1.13-1.28.49-.31,1.08-.46,1.78-.46.8,0,1.47.2,2,.61s.9.95,1.1,1.64l-1.03.28c-.14-.49-.38-.87-.72-1.15-.35-.28-.8-.42-1.35-.42-.49,0-.91.11-1.23.33-.33.22-.58.53-.74.93-.17.4-.25.87-.25,1.4,0,.53.08,1,.24,1.4.17.4.41.71.75.93.33.22.74.33,1.24.33.55,0,1-.14,1.35-.42.35-.28.59-.66.72-1.15l1.03.28c-.21.69-.57,1.23-1.1,1.64s-1.19.61-2,.61Z"/>
      <path class="cls-2" d="m114.18,64.59v-.98h1.01v.98h-1.01Zm0,6.09v-5.23h1.01v5.23h-1.01Z"/>
      <path class="cls-2" d="m116.64,70.67v-5.23h.91v1.51h.12v3.72h-1.03Zm3.68,0v-2.57c0-.2-.02-.41-.05-.63-.03-.21-.1-.41-.19-.6-.1-.18-.23-.33-.4-.45s-.4-.17-.68-.17c-.18,0-.35.03-.51.09-.16.06-.3.16-.42.29-.12.13-.22.31-.29.52-.07.22-.1.48-.1.79l-.63-.24c0-.47.09-.89.27-1.26s.43-.65.77-.85c.33-.2.73-.31,1.21-.31.36,0,.66.06.91.17.25.12.44.27.6.46s.27.39.35.62.14.44.16.65.04.4.04.56v2.91h-1.03Z"/>
      <path class="cls-2" d="m124.92,70.82c-.52,0-.98-.11-1.37-.34-.39-.23-.7-.55-.92-.95s-.33-.88-.33-1.42c0-.57.11-1.07.32-1.49.21-.42.51-.74.9-.97.38-.23.83-.34,1.34-.34s.99.12,1.36.37c.37.25.65.6.84,1.05s.26,1,.22,1.62h-1.01v-.37c0-.61-.12-1.06-.35-1.35-.22-.29-.57-.44-1.02-.44-.51,0-.89.16-1.14.48-.26.32-.38.78-.38,1.38s.13,1.02.38,1.33c.25.31.62.47,1.1.47.32,0,.59-.07.82-.22.23-.14.41-.35.54-.62l.99.31c-.2.47-.51.83-.92,1.09-.41.26-.87.38-1.38.38Zm-1.86-2.47v-.79h3.73v.79h-3.73Z"/>
      <path class="cls-2" d="m128.23,70.67v-5.23h.9v1.51h.12v3.72h-1.02Zm3.14,0v-3.24c0-.38-.09-.68-.28-.9-.19-.22-.45-.32-.77-.32s-.58.11-.77.33c-.2.22-.29.51-.29.86l-.48-.31c0-.34.08-.65.25-.92.16-.27.39-.48.67-.63.28-.15.6-.23.95-.23s.69.08.95.23c.26.16.46.38.6.66.14.28.21.61.21.98v3.49h-1.02Zm3.13,0v-3.26c0-.38-.09-.67-.29-.88-.19-.21-.45-.32-.77-.32-.19,0-.37.04-.53.13s-.29.22-.39.4c-.1.18-.15.4-.15.66l-.49-.25c0-.37.07-.69.23-.97.16-.28.39-.49.67-.65.28-.15.6-.23.94-.23.56,0,1,.17,1.31.51.31.34.46.79.46,1.35v3.5h-1.02Z"/>
      <path class="cls-2" d="m138.25,70.82c-.39,0-.71-.07-.97-.22-.26-.14-.46-.33-.59-.57-.13-.24-.2-.5-.2-.78,0-.26.05-.5.14-.7.09-.2.23-.37.42-.51s.41-.25.68-.34c.23-.07.5-.13.79-.18.29-.05.6-.1.93-.15.32-.05.65-.09.97-.14l-.37.2c0-.41-.08-.71-.26-.91-.18-.2-.49-.3-.92-.3-.27,0-.53.06-.76.19-.23.13-.39.34-.48.63l-.94-.29c.13-.45.38-.81.74-1.07.36-.26.85-.4,1.45-.4.47,0,.88.08,1.22.24.35.16.6.41.76.76.08.17.14.35.16.54.02.19.03.4.03.61v3.22h-.9v-1.2l.17.15c-.22.4-.49.7-.83.89-.33.2-.74.29-1.23.29Zm.18-.83c.29,0,.53-.05.74-.15.21-.1.37-.23.5-.39.13-.16.21-.32.25-.49.05-.15.09-.33.09-.52s.01-.35.01-.46l.33.12c-.32.05-.61.09-.87.13-.26.04-.5.08-.71.11-.21.04-.4.08-.56.13-.14.05-.26.11-.37.17s-.19.15-.26.25c-.06.1-.09.21-.09.35s.03.26.1.38c.07.11.17.21.31.27.14.07.32.1.53.1Z"/>
      <circle class="cls-3" cx="145.01" cy="62.11" r="1.5"/>
      <path class="cls-2" d="m144.58,62.65v-1.26h.52s.03,0,.05,0,.04,0,.05,0c.07.01.13.04.18.07.05.04.08.08.11.14.02.06.03.12.03.19,0,.1-.03.19-.08.26-.05.07-.13.12-.24.14h-.09s-.32,0-.32,0v.44h-.21Zm.21-.64h.3s.02,0,.04,0c.01,0,.03,0,.04,0,.03,0,.06-.02.08-.05.02-.02.03-.05.04-.08s.01-.06.01-.08,0-.05-.01-.08c0-.03-.02-.05-.04-.08s-.05-.04-.08-.05c-.01,0-.03,0-.04,0-.01,0-.03,0-.04,0h-.3v.42Zm.51.64l-.25-.51.21-.05.27.56h-.24Z"/>
    </g>
  </g>
</svg>