<?xml version="1.0" encoding="UTF-8"?>
<svg id="Calque_2" data-name="Calque 2" xmlns="http://www.w3.org/2000/svg" viewBox="0 0 520.52 349">
  <defs>
    <style>
      .cls-1 {
        fill: #0d476c;
      }

      .cls-1, .cls-2, .cls-3, .cls-4, .cls-5, .cls-6, .cls-7, .cls-8, .cls-9, .cls-10, .cls-11, .cls-12, .cls-13, .cls-14, .cls-15, .cls-16, .cls-17, .cls-18, .cls-19, .cls-20, .cls-21, .cls-22, .cls-23, .cls-24, .cls-25, .cls-26, .cls-27, .cls-28, .cls-29, .cls-30, .cls-31, .cls-32, .cls-33, .cls-34, .cls-35, .cls-36, .cls-37, .cls-38, .cls-39, .cls-40, .cls-41, .cls-42, .cls-43, .cls-44, .cls-45, .cls-46, .cls-47, .cls-48, .cls-49, .cls-50, .cls-51, .cls-52, .cls-53, .cls-54, .cls-55, .cls-56, .cls-57, .cls-58, .cls-59, .cls-60, .cls-61, .cls-62, .cls-63, .cls-64, .cls-65, .cls-66, .cls-67, .cls-68, .cls-69, .cls-70, .cls-71, .cls-72, .cls-73, .cls-74, .cls-75, .cls-76, .cls-77 {
        stroke-width: 0px;
      }

      .cls-2 {
        fill: #5f96b1;
      }

      .cls-3 {
        fill: #8abcda;
      }

      .cls-4 {
        fill: #455352;
      }

      .cls-5 {
        fill: #ef6e4c;
      }

      .cls-6 {
        fill: #ced6da;
      }

      .cls-7 {
        fill: #525854;
      }

      .cls-8 {
        fill: #5f95af;
      }

      .cls-9 {
        fill: #ee6e4b;
      }

      .cls-10 {
        fill: #1d3e45;
      }

      .cls-11 {
        fill: #6399b5;
      }

      .cls-12 {
        fill: #feb778;
      }

      .cls-13 {
        fill: #acbdc4;
      }

      .cls-14 {
        fill: #923c3f;
      }

      .cls-15 {
        fill: #ef6e4b;
      }

      .cls-16 {
        fill: #415351;
      }

      .cls-17 {
        fill: #feb777;
      }

      .cls-18 {
        fill: #cd364b;
      }

      .cls-19 {
        fill: #5d94ae;
      }

      .cls-20 {
        fill: #1c4850;
      }

      .cls-21 {
        fill: #ed6f4d;
      }

      .cls-22 {
        fill: #8bbcdc;
      }

      .cls-23 {
        fill: #3e6576;
      }

      .cls-24 {
        fill: #5e95b0;
      }

      .cls-25 {
        fill: #213e47;
      }

      .cls-26 {
        fill: #5d94ad;
      }

      .cls-27 {
        fill: #214a50;
      }

      .cls-28 {
        fill: #5e95af;
      }

      .cls-29 {
        fill: #0f3944;
      }

      .cls-30 {
        fill: #5d93ae;
      }

      .cls-31 {
        fill: #194850;
      }

      .cls-32 {
        fill: #eb7252;
      }

      .cls-33 {
        fill: #78a4ba;
      }

      .cls-34 {
        fill: #adbec4;
      }

      .cls-35 {
        fill: #5c92ad;
      }

      .cls-36 {
        fill: #ef4053;
      }

      .cls-37 {
        fill: #5b8fa8;
      }

      .cls-38 {
        fill: #254b50;
      }

      .cls-39 {
        fill: #264b50;
      }

      .cls-40 {
        fill: #1f4950;
      }

      .cls-41 {
        fill: #fe8b67;
      }

      .cls-42 {
        fill: #5e94af;
      }

      .cls-43 {
        fill: #8a393f;
      }

      .cls-44 {
        fill: #5d94af;
      }

      .cls-45 {
        fill: #105f99;
      }

      .cls-46 {
        fill: #ced8da;
      }

      .cls-47 {
        fill: #5f95b0;
      }

      .cls-48 {
        fill: #5d93ad;
      }

      .cls-49 {
        fill: #204a50;
      }

      .cls-50 {
        fill: #8bbcdb;
      }

      .cls-51 {
        fill: #9f2e45;
      }

      .cls-52 {
        fill: #f59c7f;
      }

      .cls-53 {
        fill: #8b393f;
      }

      .cls-54 {
        fill: #672b33;
      }

      .cls-55 {
        fill: #3e6575;
      }

      .cls-56 {
        fill: #a02e45;
      }

      .cls-57 {
        fill: #475453;
      }

      .cls-58 {
        fill: #8abcd9;
      }

      .cls-59 {
        fill: #0f3945;
      }

      .cls-60 {
        fill: #154353;
      }

      .cls-61 {
        fill: #3f697b;
      }

      .cls-62 {
        fill: #0d476b;
      }

      .cls-63 {
        fill: #1d494f;
      }

      .cls-64 {
        fill: #662b33;
      }

      .cls-65 {
        fill: #f6f8f7;
      }

      .cls-66 {
        fill: #135e98;
      }

      .cls-67 {
        fill: #6097b2;
      }

      .cls-68 {
        fill: #f04052;
      }

      .cls-69 {
        fill: #214a51;
      }

      .cls-70 {
        fill: #fe8b66;
      }

      .cls-71 {
        fill: #1e4950;
      }

      .cls-72 {
        fill: #5e93ae;
      }

      .cls-73 {
        fill: #5c93ac;
      }

      .cls-74 {
        fill: #1d4850;
      }

      .cls-75 {
        fill: #5e94ae;
      }

      .cls-76 {
        fill: #913c3f;
      }

      .cls-77 {
        fill: #41697b;
      }
    </style>
  </defs>
  <g id="Calque_1-2" data-name="Calque 1">
    <g>
      <path class="cls-60" d="m37.7,216.07c1.28-2.24,3.75-3.04,6.12-1.98.48.93,1.32,1.08,2.24,1.06,2.07,1.26,3.43,3.25,5.09,5.19.56-1.38,1.05-2.59,1.54-3.8,4.54-11.24,10.5-21.62,18.9-30.45,6.37-6.69,13.65-12.1,22.45-15.24.73-.26,1.49-.44,2.24-.66.67-.05,1.09.42,1.58.74,7.07,4.72,14.73,7.85,23.24,8.73.83.09,1.65.05,2.48.06,1.03.02,1.46.51,1.49,1.54.05,1.83-.19,3.67.18,5.49.09.47.09.95,0,1.42-.32,1.42-.11,2.85-.15,4.27.08,5.75-.46,11.46-.8,17.19-.6,10.06-1.87,20.04-3.6,29.95-2.33,13.34-5.57,26.44-10.46,39.1-.18.47-.38.94-.58,1.4-1.06,2.4-2.15,4.78-2.32,7.46-.03.5-.24.98-.36,1.47-1.12,4.46-4.97,6.45-9.12,4.79-1.8-.65-3.34-1.69-4.66-3.06-1.08-1.12-2.28-2.12-3.49-3.1-2.15-1.74-4.7-2.36-7.44-2.29-.41.01-.82.15-1.17-.17-2.02.05-4.03.11-6.05.13-6.91.09-13.79-.1-20.12-3.37-6.41-3.31-9.69-8.69-10.25-15.84-.24-3.05-.3-6.13-1.06-9.13-.12-.46-.27-.87-.55-1.24-1-1.74-1.75-3.6-2.83-5.3-.86-1.5-2.21-2.53-3.52-3.57-1.36-1.08-2.73-2.14-3.84-3.5-2.4-2.94-3.22-6.17-1.96-9.84.13-.38.2-.79.3-1.19-.09-.59.18-1.08.49-1.54,1.21-1.79,2.49-3.52,4.21-4.88,1.9-1.49,2.77-3.36,2.06-5.82-.27-.92-.51-1.86-.58-2.83-.03-.44-.22-.93.3-1.24Z"/>
      <path class="cls-59" d="m277.54,311.96c-.5-3.86-.97-7.72-1.5-11.57-.69-5.07-1.4-10.14-2.14-15.21-.79-5.43-1.64-10.84-2.41-16.27-.89-6.34-1.95-12.64-3.08-18.94-.55-3.07-2.15-5.73-3.16-8.61-1.53-4.34-2.42-6.98-4.31-12.5-1.87-5.46-1.97-5.28-2.9-8.36-.71-2.38-.86-3.18-1.79-6.15-.24-.78-.17-.51-2-6-1.18-3.54-2-6-2-6-.33-1-.71-1.99-1-3-.47-1.61-1.22-3.13-1.62-4.75-.06-.24-.2-.82-.69-1.13-.25-.16-.58-.22-1.02-.17-1.32.15-2.96-.51-3.88.26-.84.7-.95,2.3-1.35,3.52-4.92,14.96-9.5,30.05-15.17,44.75-2.61,6.76-3.86,13.69-4.92,20.74-1.28,8.45-2.54,16.91-3.8,25.36-.18,1.18-.31,2.36-.46,3.54-.63-.44-.55-1.13-.56-1.76-.05-3.72.03-7.44-.27-11.16-.8-10.13-2.2-20.11-6.68-29.39-.35-.73-.5-1.47-.5-2.26,0-1.84,0-3.68,0-5.52.02-6.48-.28-12.94-.74-19.4-.03-.37-.03-.73.09-1.09.85-.76,1.66-1.54,1.06-2.84-.06-.23-.07-.47-.1-.7-.27-3.94.35-7.86.25-11.8-.05-2.01-.55-4-.27-6.02.31-.46.78-.48,1.22-.35,1.8.55,3.66.63,5.51.76.51.14.86.5,1.11.94.8,1.37,1.71,2.67,2.47,4.06.17.35.34.7.57,1.02,1.57,2.21.91,2.48,3.99,1.12,2.79-1.23,5.29-2.88,7.2-5.37,1-1.31,1.62-2.53.61-4.08-.23-.6-.46-1.21-.78-1.77-2.07-4.65-3.97-9.37-6.14-13.97-.03-.95.81-1.32,1.29-1.93.24-.23.48-.46.75-.65,3.92-1.55,6.08-4.97,8.58-8.03.87-1.06,1.65-2.19,2.48-3.28.39-.51.79-1.02,1.46-1.19,1.34-.25,2.64.23,3.98.18,7.49-.27,14.95-.74,22.31-2.29.81-.17,1.61-.4,2.44-.39.48.03.9.24,1.16.64,1.9,2.91,4.43,5.32,6.42,8.16,1.12,1.65,2.39,3.24,2.53,5.36,2.69,15.99,5.21,32,7.79,48.01.8,4.94,1.73,9.86,2.32,14.83.5,4.19.65,8.41,1,12.62.53,6.45,1.06,12.89,1.58,19.34.41,5.12.9,10.24,1.17,15.37.25,1.81-.55,3.19-1.62,4.6-4.38,5.73-8.58,11.59-12.67,17.54-.12.18-.37,1.12-1.04,1.28-.31.08-.6-.03-.76-.11Z"/>
      <path class="cls-68" d="m328.21,94.29c1.48-.81,3.13-1.11,4.73-1.56.37-.1.86,0,.92-.59.89.21,1.4.98,2.14,1.43,4,2.45,8.39,3.9,12.88,5.14.81.22,1.4-.31,2.11-.32,2.43,1.59,3.76,3.79,3.87,6.73.09,2.26-.36,4.48-.3,6.74.09,3.59,1.65,5.66,5.09,6.59.8.22,1.62.35,2.41.59.4.12.82.22,1.15-.17.12-.14.14-.35.05-.52-.25-.48-.69-.36-1.09-.32-1.91.21-3.65-.2-5.14-1.46-1.23-1.04-1.8-2.37-1.85-3.99-.07-2.07.13-4.13.29-6.18.26-3.23-.88-5.84-3.35-7.9-.18-.15-.33-.32-.45-.52.1-.91.95-.83,1.5-1.14,2.31.06,4.63.44,6.93-.13,1.15.05,2.07-.81,3.21-.79.39.03.75.12.94.52.12.41.04.83-.02,1.23-.36,2.37.8,3.98,2.67,5.17,3.57,2.26,7.49,3.21,11.69,2.94,1.4-.09,2.69-.55,3.69-1.63.92-1,.83-2.19.66-3.38-.05-.39-.34-.7-.78-.57-.51.15-.36.54-.22.9.76,2.08.28,3.04-1.84,3.78-1.43.5-2.92.38-4.37.28-3.66-.25-7.03-1.33-9.77-3.91-1.32-1.24-1.73-2.67-.9-4.35,3.38-2.05,6.1-4.66,7.3-8.56.29-.96.88-1.34,1.86-1.15,4.28.79,8.11,2.48,11.42,5.38,4.24,3.72,7.15,8.3,9.04,13.58.42,1.17.74,2.35.81,3.6.47,7,3.2,13.21,6.67,19.18,3.64,6.28,7.61,12.36,11.05,18.76,2.5,4.66,4.87,9.37,5.68,14.69.25,1.61.07,3.2.03,4.8.16.72-.24,1.21-.67,1.7-1.44,1.66-3.28,2.79-5.16,3.85-6.73,3.81-13.8,6.81-21.18,9.12-5.84,1.83-11.74,3.34-17.85,3.8-3.48.26-7,.31-10.25-1.32-.92-.46-.65.4-.93.66-.7.32-.65-.31-.71-.63-.12-.58-.38-1.01-.88-1.32-4.07-2.52-6.66-6.24-8.51-10.54-1.59-3.71-2.9-7.54-3.88-11.46.39-4.24-1.61-7.79-3.37-11.39-.54-1.11-1.09-2.2-1.51-3.36-1.32-3.19-2.6-6.41-4.03-9.55-.22-.47-.57-.99-.01-1.49,1.65-.33,3.31-.68,5.01-.54.55.37.48.95.48,1.49.01,1.14-.01,2.28.5,3.36.31.64-.05,1.12-.42,1.62-1.34,1.78-1.18,2.53.73,3.71.5.31,1.06.55,1.46,1.01.36,1.03,1.12,1.32,2.15,1.29,1.53-.03,2.99-.36,4.43-.86.67-.24,1.04-.68,1.17-1.38.66-3.77.65-7.57.45-11.37-.08-1.51-.74-2.68-2.03-3.55-.95-.64-1.84-1.36-2.86-1.9-.6-.44-.67-1.18-1.01-1.77-1.73-3.03-4.36-5.05-7.37-6.63-2.16-1.13-4.4-2.07-6.75-2.75-1.9-.56-1.98-.77-1.41-2.64.73-2.39.75-4.82.2-7.22-.82-3.59-1.89-7.09-3.85-10.27-.68-1.1-1.58-1.87-2.62-2.55Z"/>
      <path class="cls-43" d="m420.4,171.55c10.8,10.88,21.5,21.86,32.05,32.97,5.46,5.76,10.95,11.5,16,17.63,4.26,5.17,6.82,11.27,9.27,17.41.88,2.21,1.53,4.51,2.44,6.71.6,1.46.33,2.55-.84,3.52-.21.17-.36.41-.54.62-.14.62-.68.82-1.15,1.1-2.58,1.49-5.43,2.18-8.29,2.8-2.6.56-5.23.89-7.87,1.17-.73.08-1.47.09-2.14-.29-.32,0-.67-.09-.96,0-2.29.7-3.64-.34-4.69-2.29-3.42-6.33-8.98-10.73-14.14-15.47-7.24-6.65-14.63-13.14-22.66-18.83-2.21-1.57-4.49-3.04-6.96-4.18-4.11-1.89-6.03-1.11-7.65,3.13-1.31,3.44-1.91,7.06-2.53,10.67-.46,2.71-.81,5.43-1.2,8.15-.76.04-1.11-.58-1.54-1.02-5.07-5.05-10.17-10.08-15.18-15.19-4.11-4.19-8.47-8.13-12.63-12.27-1.43-1.42-2.96-2.74-4.38-4.17-.45-.46-.91-.91-1.01-1.6.05-2.49.32-4.96.82-7.38.29-1.38.35-2.72.08-4.09-.09-.45-.13-.91.1-1.35.49-.48,1.04-.18,1.56-.08,4.88,1,9.82,1.51,14.79,1.22,7.46-.44,14.6-2.19,21.34-5.48,2.97-1.45,5.98-2.84,8.77-4.62,2.75-1.74,5.46-3.55,7.52-6.17.66-.83.65-2.04,1.63-2.63Z"/>
      <path class="cls-22" d="m364.03,202.42c2.32,2.67,5.03,4.94,7.57,7.38,8.74,8.39,17.36,16.88,25.78,25.58.35.36.75.67,1.13,1,.44,1.1,1.4,1.8,2.13,2.66,1.53,1.83,3.04,3.69,4.71,5.38,2.52,2.53,2.6,5.59,2.27,8.82-.28,2.73-.5,5.46-.76,8.19-.34,3.69-.68,7.37-1.02,11.06-.3,3.28-.58,6.56-.92,9.83-.41,4.09-.88,8.17-1.3,12.26-.32,3.05-.59,6.1-.9,9.15-.39,3.87-.77,7.73-1.18,11.59-.32,3.04-.69,6.08-1.02,9.12-.29,2.73-.57,5.45-.83,8.18-.06.57-.34.92-.85,1.14-.38.5-.95.51-1.49.56-3.5.33-6.97-.17-10.43-.54-.46-.05-.9-.19-1.22-.57-.91-.24-1.13-.89-1.16-1.76-.27-6.73-.54-13.46-.9-20.18-.25-4.71-.48-9.42-.54-14.14,0-.32.03-.65-.2-.92-.4-.33-.46-.8-.44-1.25.15-3.53-.35-7.03-.28-10.56-.09-7.11-.38-14.22-.24-21.33.02-1.11-.56-1.77-1.38-2.37-5.34-3.98-10.66-7.98-15.98-11.98-.59-.44-1.22-.83-1.53-1.55-2.25-2.1-4.82-3.78-7.25-5.64-3.93-3.01-7.92-5.93-11.9-8.88-.4-.29-.77-.67-1.31-.72-.73-1.25-.19-2.69-.63-4-.51-1.49-.02-2.64,1.09-3.8,1.58-1.64,2-3.84,2.19-6.06.18-2.13-.37-4.17-.72-6.23.42-1.43,1.73-2.08,2.72-2.97,3.55-3.23,6.92-6.64,10.04-10.29.41-.48.76-1.05,1.53-1.01.46.1.86.34,1.16.68,1.28,1.46,3.01,2.49,4.08,4.15Z"/>
      <path class="cls-22" d="m277.54,311.96c.39.34.55,0,.73-.25,4.77-6.91,9.66-13.72,14.76-20.39.58-.75-.04-1.52.25-2.24.55.2.92.02,1.28-.45,2.49-3.3,5.08-6.52,7.63-9.78.5-.64.7-1.38.84-2.16.54-3.03.79-6.1,1.1-9.16.67-6.71,1.05-13.44,1.43-20.17.32-5.77.67-11.54.85-17.31.05-1.72.05-3.48.43-5.2.38-.64.99-.54,1.59-.51,4.09.21,8.15,0,12.17-.87,5.81-1.26,11.1-3.74,16.17-6.75.54-.32,1.03-.81,1.75-.61.61.35.83.97,1.04,1.57,1.46,4.18,2.33,8.48,2.77,12.88.08.83-.2,1.64-.05,2.46-2.69,11.53-5.28,23.08-8.23,34.55-1.58,6.16-3.12,12.33-5.23,18.34-1.23,3.52-3.7,6.21-6.03,8.97-7.22,8.52-15.18,16.34-23.09,24.21-.98.97-2,1.89-3,2.84-.33.31-.7.61-.7,1.13-.66,1.27-1.95,1.9-2.91,2.88-3.38,3.48-6.94,6.78-10.53,10.06-.75.69-1.54.94-2.51.63-4.76-1.03-9.01-3.11-12.74-6.23-.33-.73-.19-1.36.23-2.04,2.93-4.69,5.88-9.36,9.02-13.91.52-.76,1.04-1.49.99-2.47Z"/>
      <path class="cls-46" d="m124.91,186.79c-.28-1.78-.13-3.56-.1-5.34.02-1.1-.34-1.34-1.4-1.37-10.14-.28-19.04-4.01-27.14-9.89,1.66-4.7,1.79-9.5.92-14.37-.33-.47-.03-.88.14-1.29,3.93-9.39,6.15-19.23,7.54-29.26.4-2.85.37-5.78-.88-8.53-.78-1.72-1.71-3.27-3.73-3.75-.27-.06-.51-.21-.68-.45.55-.84,1.98-.71,2.16-1.96,1.81-.24,3.58-.16,5.28.57,2.87,1.23,5.75,2.41,8.58,3.72.36,2.61,2.25,3.89,4.42,4.73,2.4.94,4.19-.12,4.8-2.61.1-.39.12-.83.52-1.08,3.03-.34,6.05-.79,9.04-1.35.34.03.63.2.79.48.89,1.53,1.97,2.95,2.5,4.67-.07,1.41-.56,2.77-.51,4.21.09,2.37,1.04,3.7,3.25,4.56.59.23,1.43.05,1.71.89-.34.72-.43,1.43-.34,2.26.97,9.86-.9,19.14-6.32,27.49-2.75,4.23-4.62,8.86-6.76,13.36-.57,1.2-1,2.49-1.68,3.61-1.58,2.61-1.87,5.4-1.72,8.34.04.78.28,1.67-.41,2.35Z"/>
      <path class="cls-41" d="m209.94,220.66c.46,5.85.72,11.7.77,17.57.03,3.12-.4,6.31.1,9.34.49,2.97,2.38,5.59,3.27,8.53,2.24,7.37,3.31,14.92,3.84,22.58.26,3.8.27,7.61.27,11.42,0,.45.09.91.14,1.37-.23,3.38-.47,6.75-.69,10.12-.42,6.29-1.11,12.55-2.09,18.77-.35,2.25-.67,4.51-1,6.77-.51,1.6-1.01,1.82-2.27.86-1.44-1.1-3.05-1.56-4.83-1.6-.62-.01-1.29.11-1.82-.39-.18-.28-.23-.59-.25-.91-1.44-12.71-2.89-25.42-4.66-38.09-.2-1.45-.2-2.92-.4-4.37.23-1.94-.34-3.8-.64-5.67-.62-3.88-1.29-7.75-2.3-11.56-1.21-4.55-3.7-8.47-6.25-12.34-3.82-5.81-7.12-11.88-9.18-18.56-.76-2.45-1.38-4.94-2.07-7.4-.07-.25-.02-.57-.34-.7-.59-1.56-1.27-3.11-.47-4.81.64-.35,1.33-.28,2.02-.28,3.75,0,7.51-.04,11.26,0,5.23.06,10.42-.33,15.61-.94.67-.08,1.37-.28,1.95.28Z"/>
      <path class="cls-5" d="m179.02,221.76c-.04,1.57.66,3.06.54,4.65-3.39,4.4-6.67,8.89-10.24,13.15-.82.98-1.26,2.03-1.52,3.29-.99,4.94-2.96,9.53-5.23,13.99-5.36,10.5-12.4,19.82-20.18,28.63-6.57,7.45-13.7,14.34-21.04,21.02-.49.07-.75-.28-1-.59-.85-1.06-1.93-1.56-3.31-1.59-1.35-.02-1.58-.31-1.21-1.58.31-1.06-.12-2.08.05-3.11,1.75-3.23,3.82-6.27,5.74-9.4,7.23-11.78,14.44-23.58,21.05-35.73,1.63-2.99,3.19-6,4.42-9.18,1.19-3.07,1.72-6.29,2.01-9.54.63-7.05,1.38-14.08,3.72-20.82.27-.77.32-1.65,1.09-2.16.43-.15.82,0,1.19.19,7,3.42,14.34,5.9,21.91,7.7.64.4,1.44.51,2,1.06Z"/>
      <path class="cls-46" d="m293.51,122.19c3.12-.73,6.25-1.47,9.37-2.2.75-.62,1.65-.36,2.5-.41,4.68.3,9.12,1.4,13.14,3.95,4.8,3.04,8.17,7.29,10.59,12.35.97,2.02,1.99,4.03,2.7,6.17.23,1.33.92,2.53,1.07,3.88-1.31,2.09-.94,4.73-2.24,6.83-.39.63-.71,1.28-1.41,1.62-6.74,2.84-13.33,5.98-19.55,9.85-.47.29-.96.56-1.48.72-2.97.9-5.74,2.19-8.28,3.98-1.87-.21-2.87-1.69-4.11-2.83-.56-1.25-1.7-2.03-2.46-3.12-1.57-2.28-2.76-4.76-3.99-7.22-2.19-4.39-4.89-8.4-8.55-11.71-1.36-1.24-2.83-2.35-4.52-3.1-1.85-.83-3.75-1.22-5.69-.17-.29.16-.66.43-.94-.06-.09-.45.13-.8.36-1.14,2.95-4.39,6.33-8.38,10.66-11.5.49-.35,1.01-.9,1.69-.29.04.18.03-.06.06.12.42,2.27.42,2.28,2.85,2.74,1.44.27,2.89.52,4.37.53.89,0,1.73-.16,2.56-.47,1.87-.71,2.58-2.11,2.06-4.05-.37-1.36-1.09-2.65-.99-4.12.05-.14.13-.26.25-.35Z"/>
      <path class="cls-18" d="m395.48,109.75c-1.26-4.12-2.78-8.12-5.32-11.66-2.41-3.36-5.28-6.23-8.91-8.19-2.24-1.21-4.7-2.01-7.25-2.43-.73-.12-1.14.16-1.3.87-.87,3.86-3.79,6.14-6.58,8.53-.33.28-.59.08-.88-.05-.47.22-.82.05-1.13-.31-.21-.29-.54-.23-.83-.26-.06-.81.66-1.04,1.12-1.41,1.07-.86,1.81-1.92,2.32-3.16,1.03-2.5.24-4.25-2.33-5.16-.71-.25-1.56-.24-2.03-1,.62-1.89,1.58-3.61,2.61-5.3,1.32.38,2.64.75,3.95,1.15.8.24,1.66.53,2.17,1.14,1.08,1.28,1.92.89,3.09.08,7.68-5.28,15.34-10.6,23.17-15.65,2.4-1.55,3.11-3.52,3.47-6.06,1.54-10.68,2.64-21.43,4.93-32,.35-1.61.78-3.14,2.53-3.81.85.54,1.3,1.53,2.43,1.82,1.54.4,2.99.28,4.47-.1.54-.14.86-.48.95-1.04.05-.36.07-.74.4-.99,1.93.68,3.04,2,3.57,4.01,1.55,5.9,1.64,11.88,1.2,17.91-.58,7.95-2.83,15.56-4.57,23.28-.56,2.46-1.73,4.52-2.98,6.59-4.85,8.02-10.03,15.84-14.46,24.1-1.56,2.9-3.19,5.79-3.82,9.1Z"/>
      <path class="cls-1" d="m341.38,21.06c.5,1.26.41,2.4-.21,3.67-5.49,11.15-11.01,22.28-17.54,32.88-3.13,5.07-7.13,9.14-12.12,12.38-5.78,3.75-11.75,7.17-17.73,10.56-.84.08-1.44-.61-2.24-.66-3.23-1.06-6.54-1.03-9.87-.73-.59.05-1.17.16-1.76.02-.97-.32-1.01-1.23-1.2-2-.97-3.77-2.05-7.49-3.8-10.99-.43-.86-.91-1.68-1.47-2.47-.41-.58-1-1.1-.89-1.93,11.03-4.24,22.15-8.23,33.29-12.18,1.2-.43,2.14-1.05,2.96-2.07,8.25-10.28,16.43-20.61,25.25-30.42.49-.54.92-1.15,1.67-1.4,2.46.16,5.49,2.99,5.68,5.31Z"/>
      <path class="cls-1" d="m154.8,15.04c1.59.85,2.54,2.35,3.66,3.66,8.23,9.58,15.95,19.57,23.77,29.49.49.62,1.05.95,1.76,1.2,11.34,4.07,22.68,8.09,33.92,12.42.2.57-.16.97-.46,1.36-2.23,2.93-3.42,6.33-4.51,9.78-.19.6-.19,1.29-.84,1.66-.91.19-1.42-.46-2.02-.94-4.1-3.31-12.23-4.73-17.31-1.24-1.06.73-2.06,1.52-2.89,2.51-.38.45-.72.96-1.39,1.03-3.1-1.95-6.18-3.95-9.32-5.84-5.6-3.38-9.72-8.11-13.14-13.62-6.04-9.75-11.34-19.9-16.56-30.1-.95-1.85-.17-3.47.1-5.19.38-2.28,3.32-5.75,5.22-6.16Z"/>
      <path class="cls-41" d="m99.59,112.55c2,.08,3.25,1.21,4.21,2.87,1.8,3.11,1.94,6.49,1.5,9.88-1.06,8.04-2.89,15.92-5.4,23.63-.77,2.35-1.67,4.65-2.7,6.9-.38.68-.73,1.38-1.13,2.05-1.82,3.01-3.91,3.55-6.92,1.68-2.36-1.47-4.42-3.33-6.15-5.48-6.92-8.58-12.11-18.17-16.25-28.35-.39-.96-.71-1.86-1.82-2.22-.37-.12-.67-.47-.97-.76-2.21-2.09-4.63-3.91-7.22-5.5-.68-.41-1.46-.68-1.67-1.69-.12-.58-.96-.6-1.49-.86-.29-.14-.68-.26-.68-.61,0-.44.47-.51.79-.63.49-.18,1-.09,1.5.01.76.15,1.51.3,2.64.52-1.82-1.39-3.63-2.03-5.59-3.02,2.46-1.06,4.34.2,6.65.75-1.19-1.33-2.67-1.94-3.6-3.24.89-.35,1.53.02,2.17.35,2.35,1.19,4.44,2.77,6.59,4.26.55.38,1.03.9,1.82,1.01.05-1,.14-1.95.48-2.85.11-.28.29-.64.68-.57.36.06.26.43.29.68.22,1.91.96,3.62,1.89,5.27.71,1.25,1.3,2.54,1.13,4.04-.04.39.11.72.33,1.02,5.37,7.4,10.65,14.87,17.1,21.41.35.36.71.72,1.11,1.03.42.32.84.96,1.36.74.3-.13.38-.87.46-1.35,1.05-6.42,1.95-12.85,2.56-19.33.23-2.46.65-4.9,1.58-7.23.89-2.24,2.39-3.77,4.74-4.42Z"/>
      <path class="cls-18" d="m305.59,119.95c-.9.01-1.81.03-2.71.04-.76-3.26.79-5.88,2.59-8.25,5.86-7.72,13.15-13.66,22.2-17.32.17-.07.35-.08.53-.13,1.32-.09,1.95.86,2.56,1.78,2.1,3.13,3.24,6.65,4.12,10.27.71,2.89.84,5.79-.26,8.63-.33.85-.14,1.23.74,1.47,2.62.7,5.11,1.72,7.5,3,3.02,1.62,5.69,3.61,7.43,6.68.34.61.44,1.28.79,1.87.83,1.59.21,3.93-1.4,5.24-.36.29-.74.53-1.15.75-1.12.45-2.16,1.21-3.47.91-1.76.23-3.51.57-5.3.57-.47.41-1,.36-1.54.2-2.1-1.71-3.72-3.89-5.62-5.8-2.77-2.8-5.57-5.6-9.02-7.57-2.58-1.48-5.5-2.05-8.45-2.18-3.01-.13-6.04.03-9.05-.26-.18-.02-.36.01-.53.11Z"/>
      <path class="cls-41" d="m382.55,284.06c.17,4.05.41,8.1.34,12.16-4.81,9.26-9.84,18.41-14.46,27.76-.1.2-.14.43-.21.64.06.64-.21,1.16-.6,1.63-.25.3-.58.53-.93.19-.66-.64-1.25-.25-1.87.05-1.47.73-2.94.94-4.47.14-1.13-.59-2.19-.7-3.29.25-.84.73-1.19-.14-1.21-.74-.05-1.31.01-2.65.44-3.91.13-.39.2-.78.32-1.17,1.04-8.02,1.96-16.06,3.64-23.99,1.19-5.61,2.56-11.16,5.32-16.25.45-.13.81.11,1.15.33,4.38,2.86,9.23,3.27,14.26,2.73.54-.06,1.09-.24,1.58.18Z"/>
      <path class="cls-45" d="m272.54,61.81c2.73,3.62,4.42,7.69,5.61,12.05.46,1.68.64,3.49,1.57,5.04-.11.71-.74.57-1.18.67-2.8.63-5.41,1.71-7.85,3.22-2.6,1.36-3.7,3.54-3.93,6.44-.25,3.22-.18,6.38.53,9.52.26,2.45.76,4.87,1.23,7.29-1.68,1.44-1.33,3.21-.6,4.88.73,1.67,1.99,2.91,4,2.81,1.06-.05,1.46.52,1.79,1.34.9,2.24,2.23,4.18,3.98,5.87,1.13,1.08,2.61,1.49,3.85,2.34.62,1.35,1.46,2.66.67,4.23-5.3,3.3-9.14,7.96-12.44,13.15-.15.09-.3.08-.44-.02-.4-.32-.45-.78-.49-1.24-.92-11.37-3.03-22.54-5.35-33.68-1.9-9.07-4.21-18.05-6.7-26.98-.18-.66-.44-1.31-.43-2.01.61-2.1,1.45-4.13,1.57-6.36.05-.87.17-1.72.04-2.59-.07-.45-.17-.91.22-1.29,2.88-1.31,5.64-2.88,8.68-3.8,1.85-.56,3.71-1.05,5.67-.89Z"/>
      <path class="cls-41" d="m459.31,255.2c4.97-.33,9.88-.99,14.65-2.5,1.71-.54,3.29-1.33,4.81-2.27,1.26,5.68,2.91,11.26,4.52,16.86,2.26,7.89,4.63,15.75,7.75,23.36.24.59.55,1.16.83,1.74-.12,1.34-.72,2.61-.36,4.03.17.67-.35.8-.98.55-3.08-1.24-4.34-.87-6.46,1.76-.35.43-.56,1.09-1.3,1.03-7.19-11.15-14.18-22.41-19.7-34.51-1.49-3.26-2.62-6.64-3.75-10.03Z"/>
      <path class="cls-41" d="m364.97,80.21c-.46,1.94-1.47,3.62-2.56,5.25-.2.92-.97,1.34-1.63,1.86-3.32,2.1-6.95,2.34-10.71,1.76-.41-.06-.81-.14-1.21-.25-1.31-.49-2.6-1-3.64-1.99-1.6-1.35-2.63-3.09-3.46-4.97.41-1.52-.6-2.75-.84-4.15-.05-.32-.46-.19-.72-.23-2.98-.53-4.88-4.3-3.6-7.06.38-.82,1.04-.94,1.8-.96,1.13-.17,1.27.71,1.44,1.2-.38-3.88-.25-7.9,2.02-11.59.44-.71,1-1.31,1.6-1.89.62-.6,1.32-.78,2.15-.58,5.35,1.3,10.79,1.61,16.28,1.47,2.11-.05,2.54.26,3.2,2.27,1.13,3.48,1.46,7.07,1.32,10.73.24-.99.89-1.33,1.83-1.27,1.01-.22,1.64.3,1.84,1.19.65,2.98-.54,6.45-3.92,6.71-.58.04-.62.38-.72.79-.13.57-.31,1.14-.47,1.71Z"/>
      <path class="cls-41" d="m281.32,123.31c-4.03-1.15-6.17-4.2-7.79-7.76-.4-.89-.59-1.58-2.04-1.47-2.39.19-4.45-2.68-4.48-5.65-.01-1.05,0-2.07,1.34-2.34,1.73-.37,2.39.15,3.04,2.41-.59-2.9-.27-5.84-.31-8.76-.01-.81.39-1.27,1.24-1.35,1.1-.1,2.18-.31,3.28-.39.27-.02.7-.13.79.07.57,1.23,1.13.28,1.72.05,1.58-.62,3.02-1.53,4.65-2.06,3.12-1.01,5.97-2.6,8.81-4.22,1.38-.79,2.06-.73,2.98.48,2.42,3.16,3.49,6.83,3.91,10.73.03.28-.07.54-.15.83.47-.99-.34-2.52,1.29-2.99,1.69-.49,2.23-.21,2.76,1.45.97,3.01.02,5.22-2.84,7.01-.78.49-.95,1.49-1.05,2.42-.26,2.44-.83,4.79-2.19,6.88-.58.89-1.25,1.7-2.1,2.35-.4.31-.87.57-.66,1.21-.02.09-.04.18-.07.27-.76.13-1.5.35-2.23.6-2.79.95-5.64,1.41-8.59.9-.52-.09-.97-.21-1.29-.65Z"/>
      <path class="cls-70" d="m258.47,49.61c1.77-.45,2.18-.18,2.56,1.59.52,2.42-1.21,5.98-3.89,5.87-.73-.03-.74.55-.86,1.01-.37,1.42-.84,2.79-1.45,4.13-.96,2.07-2.52,3.56-4.37,4.8-1.65,1.42-3.74,1.24-5.69,1.47-1.83.22-3.6-.38-5.4-.64-1.42-.31-2.52-1.08-3.22-2.37-.17-.9-.89-1.46-1.33-2.2-.7-1.19-1.25-2.45-1.65-3.77-.42-1.36-.44-2.66-2.51-3.06-2.25-.44-3.38-4.2-2.48-6.39.35-.85,1.37-.68,1.7-1.42,1.26.19,1.58,1.35,2.31,2.35-.19-3.49.15-6.76.76-10.01.25-1.32.85-2.18,2.19-2.49.71-.17,1.37-.52,2.07-.74.34-.1.77-.29,1.02.06.28.4-.16.64-.38.9-.15.17-.36.29-.45.61.55.16,1.05-.06,1.55-.16,1.88-.41,3.73-.97,5.59-1.48.65-.18,1.26-.31,1.33.75.05.83.79.6,1.3.52,1.51-.24,2.87-.93,4.31-1.41,1.33-.45,1.84-.29,2.38,1.03,1.7,4.14,2.79,8.42,2.8,12.64.16-.76.58-1.57,1.81-1.58Z"/>
      <path class="cls-59" d="m115.59,115.02c-2.15-.61-4.2-1.5-6.21-2.45-2.24-1.06-4.5-2.03-7.07-1.7-.23.03-.45-.03-.56-.28.9-4.46.64-8.86-.09-13.37-.87-5.35-.34-10.69,2.07-15.71,2.33-4.86,6.34-7.3,11.51-8.15,3.97-.66,7.74-.11,11.36,1.66.76.37,1.69.39,2.5.68,1.89.68,3.29,2.02,4.35,3.67,2.42,3.79,3.52,8.01,3.94,12.45-.28.21-.61.16-.93.18-.82.07-1.19.52-1.29,1.33-.1.8,0,1.66-.57,2.37-.66-.16-.66-.74-.8-1.19-.4-1.22-.7-2.48-1.15-3.69-.3-.82-.58-1.65-1.43-2.11-.44-.24-.51-.74-.62-1.19-.26-1.06-.48-2.14-.97-3.32.15.47.13.78.13,1.09,0,2.25-.44,2.6-2.61,1.95-.83-.25-1.88.01-2.46-.7-.59-.73,0-1.69-.1-2.55-.08-.75-.37-1.48-.28-1.91-.09,1.44-.58,3.15-1.14,4.85-.3.91-.77,1.44-1.84,1.01-.53-.21-1.15-.23-1.6.11-1.69,1.28-3.68,1.63-5.7,1.82-1.4.13-2.32.74-2.74,2.1-.09.28-.18.7-.59.64-.35-.06-.45-.43-.54-.74-.25-.8-.19-1.63-.15-2.48-.74,2.11-.07,4.19.06,6.25.09,1.41.42,2.82.72,4.21.08.35.18.82-.2,1-.49.23-.72-.25-.95-.57-.35-.48-.62-1.02-.96-1.51-.27-.39-.6-.74-1.13-.6-.51.13-.74.57-.78,1.03-.22,2.21,1.53,5.14,4.09,5.14.61,0,1.26-.1,1.57.57,1.09,2.37,2.77,4.31,4.48,6.24.01,1.43,0,2.85-1.3,3.85Z"/>
      <path class="cls-22" d="m142.09,129.35c-1.18-.38-2.43-.55-3.46-1.35-2.05-1.58-1.97-3.76-1.69-5.97.1-.81.32-1.6.48-2.4.28-1.93.87-3.73,2.26-5.19,3.56-4.91,8.54-8.06,13.65-11.04,1.21.45,1.92,1.54,2.87,2.31,2.14,1.72,4.44,3.08,7.1,3.84,1.56.44,1.57.74.52,2.03-1.74,2.13-3.52,4.24-4.21,7.02-.21.83-.78,1.58-1.44,2.15-2.99,2.58-6.08,5.04-9.26,6.54.57-.22,1.55-.7,2.52-1.19.99-.5,1.9-1.11,2.87-1.65,2.45-1.37,4.09-3.45,5.48-5.83,1.41-2.43,2.94-4.74,5.35-6.37,2.27-1.53,2.93-3.76,2.41-6.39.56-.88,1.31-1.54,2.27-1.96,2.41-.73,4.88-1.13,7.38-1.38,1.03-.1,2.11-.23,2.97.61.05.13.07.3-.05.37-2.46,1.26-3.71,3.64-5.15,5.79-2.96,4.42-5.49,9.1-7.71,13.95-.25.54-.44,1.12-1.04,1.39-4.66.78-8.88,2.86-13.33,4.29-3.06.98-6.28,1.28-9.51.89-.44-.05-.93-.07-1.26-.46Z"/>
      <path class="cls-68" d="m188.49,75.96c1.76-2.16,3.7-4.13,6.4-5.04,5.7-1.91,10.93-.88,15.69,2.71.49.37.95.7,1.53.86,1.55.22,2.65,1.27,3.7,2.24,4.28,4,6.45,8.8,5.93,14.85-.58,6.74-2.02,13.32-2.99,19.99-.12.85-.01,1.75-.42,2.56-.17.21-.38.24-.63.17-.13-.08-.23-.19-.29-.33-.09-.21-.11-.44-.13-.67-.27-3.86-2.89-6.55-6.75-6.98-1.25-.14-2.23.19-2.94,1.29-.47.73-.91,1.48-1.34,2.24-.55.99-1.42,1.19-2.45,1.1-1.03-.09-1.54-.7-1.76-1.64-.18-.75-.57-1.45-.57-2.25.08-.46.44-.68.8-.88,1.53-.86,2.92-1.91,4.13-3.19.6-.64,1.24-.74,2.11-.58,2.5.46,4.47-.76,5.25-3.14.19-.57.42-1.24-.18-1.64-.58-.38-.85.32-1.23.6-.54.39-1.04,1.2-1.75.81-.79-.44-.39-1.33-.19-2,.4-1.39.25-2.83.43-4.24.32-2.56.83-5.07,1.47-7.57.52-2.04.09-3.14-1.64-4.39-.45-.32-.88-.66-1.32-1-1.88-1.42-3.1-1.44-4.98-.03-2.25,1.69-4.58,3.22-7.17,4.33-1.14.37-2.16,1.15-3.43,1.13-.85.21-1.7.4-2.59.33-1.22-.11-2.18-.5-2.63-1.82-.42-1.24-1.1-1.31-2.02-.36-1.78,1.84-1.79,4.59.05,6.37.68.66.68,1.32.43,2.12-.79,2.5-1.03,5.03-.3,7.6.18.62.45,1.2.73,1.78.25.52.41,1.05-.21,1.46-1.32.35-2.05,1.48-3.03,2.29-1.18-.19-2.28-.57-3.16-1.42-.35-1.37.11-2.7.26-4.04.22-1.94.51-3.88.98-5.77.3-1.55,1.68-2.13,2.76-2.94-.35-.74-1.76.58-1.62-.93.93-4.49,2.1-8.89,4.51-12.86.21-.35.38-.72.57-1.09Z"/>
      <path class="cls-45" d="m218.03,114.24c.85-7.52,2.66-14.89,3.31-22.45.62-7.32-2.41-12.68-8.32-16.68-.3-.2-.6-.41-.9-.62.87-2.97,1.82-5.9,3.22-8.67.72-1.43,1.81-2.62,2.59-4.01,3.45-.14,6.57,1.06,9.63,2.45,1.59.72,3.14,1.5,4.71,2.26.22.21.26.48.23.76-.37,3.28.55,6.34,1.57,9.39-.13,1.8-.8,3.48-1.27,5.2-3.14,11.47-5.83,23.04-7.98,34.73-.13.72-.2,1.46-.58,2.11-.24.34-.56.3-.83.09-1.76-1.31-3.46-2.69-5.17-4.05-.14-.12-.18-.31-.2-.5Z"/>
      <path class="cls-43" d="m382.55,284.06c-3.54.54-7.07.7-10.59-.2-2.34-.6-4.44-1.65-6.39-3.04-1.94-1.75-3.8-3.56-5.26-5.77-.9-1.36-1.07-2.5-.28-4.01,1.45-2.8,2.62-5.74,3.11-8.89.21-1.33,0-2.65-.02-3.97-.06-3.67-.05-7.33-.07-11,6.18,4.61,12.37,9.22,18.56,13.82.45.34.61.76.62,1.3.1,7.25.22,14.51.32,21.76Z"/>
      <path class="cls-41" d="m116.66,111.16c-2.03-1.48-3.3-3.54-4.36-5.75-.29-.61-.49-.91-1.3-.7-1.04.27-1.99-.26-2.77-.94-1.49-1.3-2.07-2.98-1.87-4.93.07-.66.43-1.1,1.15-1.15.64-.05,1.15.08,1.48.74.42.84.93,1.63,1.53,2.68-.45-4.4-2.13-8.44-.36-12.56.21,1.34-.08,2.73.67,4.32.19-2.94,2.08-3.37,4.25-3.49,1.43-.08,2.81-.43,3.95-1.38.78-.66,1.7-.88,2.55-.37.9.54.95-.03,1.16-.6.7-1.94,1.12-3.96,1.45-6.23.71,1.74.99,3.31.63,4.91-.19.82.03.94.75.92.88-.03,1.75.18,2.53.58.92.47,1.17-.02,1.22-.74.06-1.05.02-2.11.02-3.49,1.03,1.63,1.32,3.17,1.69,4.69.06.26.08.73.21.76,1.76.41,1.53,2.08,2.02,3.24.53,1.25.82,2.6,1.4,3.9.04-.65.1-1.31.11-1.96.02-1.82.88-2.4,2.61-1.77,1.07,1.85.98,3.81.53,5.81-.21.96-.77,1.67-1.67,2.04-.77.31-1.01.84-.97,1.61.03.6-.09,1.18-.15,1.78-.59,5.53-3.83,8.6-9.06,9.86-2.39.64-4.78.79-7.17-.06-.93-.33-1.78-.74-2.22-1.69Z"/>
      <path class="cls-46" d="m482.76,299.74c.69-.8,1.3-1.67,2.07-2.37,2.36-2.16,3.2-2.2,6.61-.31-.59-1.75-.68-3.31.42-4.68.99-.2,1.98-.33,2.99-.28,1.06.06,1.7.41,1.68,1.65-.02,1.74,1.42,3.02,3.2,3.33,2.43.41,4.6-.35,6.73-1.28,1.59-.7,3.07-1.66,4.68-2.29,2.39-.93,4.8-1.07,7.08.46.48.32.95.67,1.05,1.21.23,1.17,1.25,2.02,1.24,3.27-2.43.53-4.15,2.21-5.67,3.92-3.58,4-7.68,7.31-12.23,10.1-2.46,1.51-5.01,2.85-7.66,3.99-.24.1-.53.17-.65.46-1.3.75-2.34.66-3.49-.52-1.92-1.97-3.22-4.19-3.67-6.88-.1-.62-.48-1.01-.91-1.31-1.42-.99-2.34-2.41-3.44-3.69-1.05-1.22-1.19-2.4-.41-3.76.18-.31.25-.68.37-1.02Z"/>
      <path class="cls-41" d="m81.08,285.21c3.94-.66,7.28.57,10.15,3.25,1.96,1.83,3.79,3.85,6.33,4.93.03,2.24-.28,4.43-.83,6.59-.4.54-.97.43-1.51.35-.54-.08-1.08-.22-1.62-.31-2.33-.37-3.82.76-4.59,3.48.42,1.39,1.37,2.47,2.23,3.58,1.03,1.34,2.08,2.67,3.28,3.87.5.5.7,1.05.47,1.73-.68,5.96-1.36,11.93-2.04,17.89-.26.28-.62.38-.97.46-2.28.54-3.9,1.82-4.78,4.05-.48,1.22-.91,1.22-1.97.23-.59-3.61-1.2-7.22-1.75-10.84-.77-5.16-1.38-10.34-1.88-15.54-.4-4.21-.32-8.43-.56-12.64-.15-2.57-.21-5.13-.22-7.69,0-1.15-.02-2.29.26-3.41Z"/>
      <path class="cls-60" d="m385.7,333.21c2.96.36,5.91.77,8.9.76,1.42,0,2.83-.14,4.25-.21,2.03,2.69,4.95,3.85,8.06,4.63,1.86.47,3.77.75,5.69.9,3.49.27,5.27,2.16,5.57,5.8q.32,3.81-3.47,3.81c-9.88,0-19.76-.03-29.64.02-1.27,0-1.69-.35-1.62-1.62.27-4.5.93-8.93,2.09-13.29.07-.27.12-.54.17-.81Z"/>
      <path class="cls-54" d="m280.26,336.4c.81.18,1.43.02,2.09-.61,4.19-4.05,8.44-8.04,12.68-12.05.28-.27.45-.71.95-.69-.11,1.46.62,3.04-.62,4.34-.08.08-.06.26-.06.39-.02,3.66,2.92,7.8,6.4,8.99.87.3,1.74.57,2.61.85,4.92,1.61,5.86,6.45,4.77,10.59-.21.81-.82.72-1.42.71-6.15,0-12.3,0-18.46,0-1.24,0-2.47-.04-3.71-.07-.42-.43-.23-.94-.17-1.43.35-2.55-.46-4.54-2.71-5.94-1.71-1.06-2.81-3.6-2.36-5.09Z"/>
      <path class="cls-46" d="m88.64,303.68c.49-3.16,2.3-4.45,5.46-3.95.8.13,1.57.5,2.41.37,2.08.57,4.12,1.27,6.21,1.79,1.97.49,3.94.73,5.99.45,1.93-.27,3.29-1.26,4.36-2.8,1.17-1.69,1.75-1.67,3.05.04.21,1.43.55,2.87-.51,4.49,2.76-.61,4.42.56,5.75,2.42.33,1.57-.11,2.84-1.2,4.05-1.36,1.5-2.15,3.36-2.56,5.37-.58,2.83-2.54,4.78-4.43,6.75-.44.46-.95.85-1.43,1.26-.34.28-.66.73-1.13.17.33-1.42-.55-2.33-1.39-3.25-2.73-3-6.1-5.25-9.31-7.68-1.49-1.13-3.03-2.22-4.47-3.42-.95-.79-1.88-1.63-2.45-2.75-.93-1.8-2.59-2.62-4.35-3.32Z"/>
      <path class="cls-18" d="m420.4,171.55c-.89,3.53-3.61,5.56-6.37,7.41-6.95,4.67-14.42,8.31-22.59,10.36-5.45,1.37-11.01,1.84-16.59,1.48-3.35-.21-6.72-.6-9.98-1.55-.47.32-.86.1-1.23-.2-1.03-.81-1.46-2.6-.95-3.93.03-.49.07-.99.12-1.67,3.47,2.04,7.19,2.08,10.89,1.85,4.47-.27,8.85-1.17,13.17-2.37,3.87-1.08,7.73-2.2,11.45-3.7,4.1-1.66,8.19-3.32,12.07-5.48,2.68-1.49,5.41-2.85,7.56-5.12.42-.44.77-.89.96-1.47.99,1.29,1.68,2.69,1.5,4.39Z"/>
      <path class="cls-46" d="m205.8,325.94c1.49.14,3-.03,4.45.51.73.27,1.53.5,2.03,1.08,1.06,1.23,1.68.62,2.29-.39.07.17.1.47.2.49,1.61.37,1.25,1.65,1.21,2.71-.11,2.96.16,5.8,1.52,8.55.94,1.9.91,4.09.53,6.2-.09.51-.09.99-.04,1.5.13,1.43-.61,2.32-2.02,2.33-4.41.03-8.83.13-13.23-.03-2.49-.09-4.97.29-7.45.01-.98-1.25-.6-2.71-.66-4.11.08-2.31,1.23-4,3-5.39,1.1-.86,2.32-1.6,3.24-2.68,1.7-1.88,3.08-3.89,2.87-6.6-.05-.69-.18-1.36-.33-2.03-.15-.69-.67-1.46.05-2.05.69-.57,1.53-.5,2.33-.09Z"/>
      <path class="cls-53" d="m258.47,49.61c-.92.51-1.58,1.22-1.8,2.33-.57-1.39-.41-2.85-.65-4.25-.53-3.13-1.33-6.17-2.51-9.12-.38-.96-.81-1.26-1.85-.77-1.53.72-3.12,1.34-4.81,1.6-1.42.22-1.75-.22-1.19-1.63-2.22.59-4.37,1.16-6.52,1.73-.31.08-.62.22-.93.21-.55-.02-1.32.67-1.59-.09-.2-.56.64-.89,1.09-1.26.14-.11.29-.21.37-.49-1.33.45-2.66.87-3.97,1.37-.66.26-.59.99-.7,1.55-.75,3.65-1.1,7.34-.98,11.15-.78-1.17-1.42-2.43-2.53-3.32-.87-3.8-1.53-7.61-1-11.55.35-2.6,1.51-4.68,3.55-6.28,2.69-2.11,5.85-2.97,9.19-3.21,3.98-.29,7.85.26,11.6,1.65.24.09.47.32.8.12-.36-.58-.73-1.16-1.07-1.75-.23-.4-.5-.91-.04-1.25.58-.42.91.18,1.21.54.65.78,1.1,1.7,1.46,2.63.3.78.7,1,1.55.84.79-.15,2.1-.67,2.31.31.21.99-1.24.86-1.96,1.21-.19.09-.41.13-.67.22,3.52,4.64,2.83,9.78,2.06,14.94-.13.86-.27,1.71-.41,2.57Z"/>
      <path class="cls-46" d="m356.6,321.06c-.13,1.32-.25,2.64-.39,3.96-.07.68-.23,1.37.29,1.96,1.34-1.52,1.91-1.7,3.75-.76,1.77.91,3.37.61,4.94-.38.86-.54,1.45-.47,1.8.58.67-.46.67-1.32,1.22-1.81,1.06,1.49.69,3.22.51,4.78-.26,2.29-.11,4.56-.21,6.84-.19.05-.38.04-.52-.09-2.75-2.57-5.91-1.32-8.97-.93-.31.04-.71.26-.65.6.09.52.57.32.9.27,1.76-.29,3.52-.56,5.32-.54,1.4.02,2.74.17,3.94.94.46,1.91,1.62,3.25,3.25,4.34,1.89,1.27,2.52,4.56,1.43,6.56-.57,1.04-1.31,1.58-2.62,1.56-4.77-.08-9.55-.03-14.33-.03-1.56,0-2.26-.95-2.71-2.46-.76-2.55-.77-5.12-.76-7.71,0-1.47.28-2.9.46-4.35.11-.9.19-1.86.03-2.74-.46-2.49-.19-4.91.34-7.34.18-.82.58-1.51,1.4-1.72.87-.22,1.29-.78,1.57-1.54Z"/>
      <path class="cls-60" d="m280.26,336.4c.35,2.12,1.05,3.98,3.09,5.14,1.96,1.12,2.83,3.64,2.33,6.11-.08.4-.13.8-.19,1.2-7.43.02-14.85.02-22.28.07-.86,0-1.23-.35-1.45-1.11-.89-3.14-.35-6.14.77-9.11,1.14-3.03,2.93-5.69,4.75-8.33,1.15.29,1.94,1.18,2.9,1.77,3.15,1.93,6.48,3.38,10.07,4.24Z"/>
      <path class="cls-41" d="m37.7,216.07c-.2,1.59.44,3.05.75,4.56.41,1.98-.08,3.66-1.6,4.94-2.29,1.94-4.19,4.17-5.64,6.8-3.12-7.05-6.23-14.1-9.38-21.14-1.05-2.34-1.94-4.76-3.28-6.96.1-1.05.05-2.07-.4-3.05-.19-.43-.14-.88.13-1.3,1.03-1.62,3.91-2.06,5.41-.83,4.48,5.05,8.72,10.29,12.84,15.64.36.47.78.9,1.18,1.34Z"/>
      <path class="cls-17" d="m368.24,69.82c-1.47.33-1.63,1.59-1.83,2.84-.12-.03-.25-.06-.37-.1,0-1.42.07-2.85-.01-4.27-.16-2.69-.48-5.36-1.32-7.95-.44-1.35-1.09-1.98-2.65-1.91-5.69.25-11.33-.13-16.89-1.51-1.43-.36-2.15,1.13-2.78,2.08-1.54,2.34-2.3,4.97-2.27,7.8.02,1.82-.11,3.65.27,5.47-.91-.81-.58-2.41-1.98-2.82-.58-2.73-1.14-5.44-1.07-8.27.06-2.55.61-4.9,2.19-6.94.46-.6.4-1.17.17-1.81-.57-1.58-.46-3.13.09-4.7.28-.8.63-1.02,1.41-.6,3.71,1.96,7.66,2.12,11.75,1.76,3.38-.3,6.89-.52,9.65,2.04,1.92,1.78,3.2,4.13,4.93,6.13,1.67,1.93,1.49,4.81,1.16,7.41-.18,1.45-.28,2.91-.65,4.33-.09.34-.14.74.23,1Z"/>
      <path class="cls-51" d="m291.92,79.66c.75.03,1.26.55,1.86.9.19.68.59,1.01,1.33,1.15,1.2.22,2.41.52,3.55.94,2.87,1.05,3.69,2.95,2.67,5.84-.58,1.66-1.67,3.02-2.63,4.45-.54.19-.98-.11-1.43-.32-5.27-2.38-10.68-2.26-16.13-.79-4.28,1.15-8.28,2.96-11.89,5.55-.34.24-.7.45-1.15.3-.39-.52-.17-1.06-.04-1.58.43-1.69.94-3.36,1.61-4.98.2-.56.42-1.12.62-1.68,1.49-4.11,4.81-5.94,8.72-7.06,3.74-1.07,7.54-1.53,11.43-1.41,1.53.05,1.53,0,1.49-1.31Z"/>
      <path class="cls-41" d="m416.54,24.77c-.02,2.15-.03,2.11-2.17,2.59-1.34.3-2.61.23-3.91-.17-1.13-.34-1.95-.9-2.17-2.12.62-1.33.45-2.55-.71-3.45-1.89-1.47-3.04-3.35-3.71-5.63-.45-1.54-1.43-2.86-2.3-4.22-.27-.42-.69-.81-.11-1.3.5-.42,1.02-.35,1.52-.02.83.55,1.34,1.38,1.8,2.23.5.9,1.06,1.58,2.25,1.39,1.15-.18,1.45-1.09,1.69-1.95.39-1.41.64-2.85.63-4.34-.01-1.92-.12-3.86.31-5.75.13-.6.35-1.23,1.11-1.18.79.05,1.06.64,1.05,1.36-.01,1.61-.01,3.21.28,4.8.09.51-.06,1.33.59,1.36.67.03.6-.83.72-1.31.44-1.73.73-3.5.9-5.28.02-.23,0-.47.07-.68.18-.58.37-1.2,1.17-1.08.72.1.97.61,1,1.27.11,2.21-.41,4.38-.41,6.59,0,.43-.35,1,.31,1.14.52.11.58-.5.75-.84.58-1.15,1.03-2.35,1.35-3.6.17-.66.34-1.48,1.28-1.3.9.17.83,1,.8,1.67-.04,1.06-.21,2.09-.68,3.06-.36.73-.63,1.49-.65,2.48.93-.87,1.39-1.87,1.94-2.81.25-.44.59-.94,1.18-.72.6.22.52.85.41,1.32-.16.66-.33,1.38-.71,1.91-1.74,2.44-2.81,5.12-3.32,8.06-.27,1.55-.78,3-1.73,4.3-.47.64-.62,1.42-.54,2.23Z"/>
      <path class="cls-60" d="m23.68,199.09c-1.76-.85-3.33-.4-4.85.66-.6.42-.73.79-.37,1.47.51.97,1,2.01.08,3.05-.61.26-1.18.05-1.71-.23-1.64-.87-3.07-.49-4.44.62-.97.78-1.85,1.65-2.68,2.57-.77.85-1.52,1.72-2.29,2.57-1.52,1.65-3.75,2.26-5.33,1.45-1.56-.8-2.42-3.15-1.98-5.31.5-2.41,1.76-4.42,3.27-6.28,2.49-3.08,5.35-5.8,8.46-8.25,1.6-1.26,3.37-2.19,5.5-2.22,3.41-.04,3.97,1.13,4.66,3.9.28,1.11.59,2.09,1.35,2.92.87.94,1.16,1.95.33,3.07Z"/>
      <path class="cls-41" d="m341.38,21.06c-1.14-2.57-3.05-4.33-5.68-5.31,1.17-1.47,1.61-3.13,1.47-5.01-.09-1.25.24-2.47.89-3.56,1.1-1.83,1.78-3.82,2.32-5.86.14-.53.17-1.16.95-1.11.83.06,1.01.66,1.04,1.36.04.98-.27,1.89-.51,2.83-.21.8-.34,1.64.46,2.28.76.61,1.53.47,2.32.13,1.92-.83,3.55-2.1,5.07-3.51,1.04-.97,2.08-1.95,3.32-2.68.56-.33,1.22-.69,1.74-.04.55.7.09,1.33-.44,1.8-1.32,1.16-2.56,2.37-3.6,3.78-.18.25-.53.53-.32.84.26.39.68.17.98,0,1.42-.84,2.83-1.71,4.23-2.58.35-.22.66-.51,1.02-.7.61-.31,1.27-1.04,1.92-.15.62.85-.01,1.53-.6,2.01-1.49,1.22-3.07,2.34-4.58,3.53-.39.31-1.23.54-.87,1.17.33.57,1.02.08,1.5-.09,1.08-.38,2.12-.86,3.19-1.28.62-.25,1.34-.77,1.84.05.48.79-.26,1.26-.75,1.71-.78.73-1.68,1.26-2.71,1.59-.81.26-1.63.54-2.39,1.2,1.25.14,2.28-.27,3.35-.45.53-.09,1.21-.28,1.45.39.23.63-.32.99-.83,1.25-.78.4-1.58.7-2.47.81-2.26.27-4.38.97-6.34,2.13-1.74,1.03-3.44,2.1-5.53,2.33-.66.07-1.15.53-1.46,1.15Z"/>
      <path class="cls-41" d="m154.8,15.04c-2.36,1.53-4,3.67-5.22,6.16-.56-.85-1.28-1.29-2.36-1.43-1.61-.21-3.01-1.09-4.38-1.93-2.14-1.32-4.45-2.11-6.94-2.43-.82-.11-1.62-.35-2.32-.8-.46-.29-1.05-.6-.78-1.27.24-.59.87-.45,1.34-.36,1.08.19,2.12.55,3.52.5-.94-.69-1.75-1.05-2.61-1.32-1.12-.35-2.06-.98-2.88-1.81-.39-.39-.85-.82-.46-1.43.38-.6.95-.4,1.48-.17,1.35.57,2.65,1.25,4.09,1.61.38.09.87.34,1.08-.17.17-.43-.33-.6-.6-.81-1.38-1.07-2.77-2.11-4.15-3.18-.36-.28-.72-.57-1.04-.9-.55-.54-.76-1.23-.26-1.85.49-.62,1.12-.2,1.6.12,1.67,1.13,3.32,2.3,5.12,3.23.39.2.86.68,1.23.28.48-.53-.2-.88-.47-1.24-.94-1.25-2.08-2.31-3.24-3.37-.5-.46-1.21-1.06-.51-1.87.6-.69,1.27-.26,1.85.1,1.06.66,1.99,1.46,2.89,2.32,1.6,1.53,3.32,2.9,5.36,3.8.85.37,1.66.45,2.43-.23.74-.64.55-1.38.35-2.15-.24-.93-.57-1.83-.53-2.82.03-.72.22-1.3,1.02-1.39.77-.09.82.51.97,1.06.55,2.09,1.25,4.12,2.38,5.99.86,1.43.98,3.04.87,4.66-.08,1.23.29,2.25,1.17,3.09Z"/>
      <path class="cls-41" d="m183.41,89.91c.26.95.9.14,1.34.26.38.11.91-.04,1.03.44.12.47-.41.52-.7.68-1,.54-1.95,1.12-2.45,2.2-.55.88-1.19,1.71-1.79,2.56-.76,1.07-1.76,1.92-3.05,2.19-1.67.34-2.83,1.37-3.99,2.48-1.31,1.26-2.61,2.55-4.18,3.5-.63.58-1.27,1.17-1.9,1.75-.67.99-1.38,1.93-2.54,2.4-1,.07-1.66-.64-2.45-1.05-1.41-.74-2.65-1.74-3.95-2.65-.41-.29-.78-.63-.88-1.16-.01-.3.12-.56.34-.72,1.59-1.16,3.03-2.55,4.99-3.11,3.04-1.61,5.91-3.53,9.02-5.01.47-.22.55-.7.72-1.13,1.22-3.19,1.71-6.55,2.17-9.9.18-1.36,1.27-2.49.9-4-.1-.43.35-.43.68-.25.52.29.79.76.94,1.31.26.87.49,1.75.73,2.63.13,0,.25,0,.38.01,0-1.35-.02-2.71,0-4.06.01-.56-.34-1.46.27-1.58.62-.11.88.78,1.11,1.38.55,1.47.54,3.02.75,4.57.63-1.14.69-2.4,1.01-3.6.09-.32.05-.86.56-.81.43.05.46.52.49.89.2,2.59-.34,5.11-.72,7.64-.08.54-.22,1.08-.32,1.62-.09.51-.45,1.27.06,1.48.61.25,1.16-.32,1.43-.96Z"/>
      <path class="cls-60" d="m85.23,335.33c.42.18.83.36,1.33.57.85-3.3,3.02-5.04,6.39-5.31,2.18.41,2.19.41,2.25,2.75.08,2.86.51,5.58,2.82,7.62,1.04.92,2.24,1.58,3.44,2.25,1.45.8,2.39,2.5,2.17,4.11-.14.98-.64,1.58-1.73,1.58-5.84-.01-11.68-.02-17.51,0-.77,0-1.07-.25-1.06-1.03.03-1.56-.06-3.11.36-4.65.5-1.79.57-3.62.43-5.46-.07-.99.03-1.95,1.11-2.43Z"/>
      <path class="cls-59" d="m200.34,282.64c.82,2.55.95,5.22,1.3,7.84.93,7.04,1.82,14.09,2.66,21.15.54,4.51.96,9.02,1.43,13.54-.85.49-1.68.02-2.52-.06-.73-.07-1.44-.24-2.16-.37-1.66-.32-1.69-.27-2.11,1.4-.14.57-.02,1.33-.85,1.54-.75-.73-1.25-1.54-1.14-2.66.45-4.96.89-9.92,1.31-14.89.23-2.78.41-5.56.63-8.34.34-4.24.7-8.47,1.03-12.71.17-2.14.28-4.29.42-6.44Z"/>
      <path class="cls-29" d="m268.14,97.66c3.88-2.86,8.15-4.92,12.81-6.17,6.09-1.64,12.05-1.65,17.75,1.46.74,2.59.31,5.32.9,7.93-1.15.75-.45,2.27-1.31,3.24-.42-3.32-1.09-6.49-2.61-9.42-.17-.32-.35-.65-.55-.95-1.62-2.51-1.76-2.54-4.32-1.04-2.9,1.69-5.97,3-9.11,4.18-1.49.56-3.01,1.2-4.33,2.16-.33.24-.55.97-1.07.58-.58-.45.2-.86.28-1.34-1.52.16-3,.35-4.5.47-.78.06-.71.57-.69,1.07.07,2.57.16,5.14.23,7.71.02.54,0,1.09,0,1.9-.95-1.45-1.04-3.53-3.28-3.33-.88-2.36-1.24-4.8-1.34-7.3-.1-.85.53-.98,1.13-1.13Z"/>
      <path class="cls-18" d="m341.76,81.86c.35.05.55.27.67.58.64,1.62,1.73,2.92,2.94,4.14-2.17,2.11-2.16,4.25-.05,6.53,1.19,1.29,2.62,2.13,4.28,2.64.78.28,1.58.47,2.38.66.44.1.92.15,1.09.69-.33.47-.94.42-1.37.72-.12.44-.46.59-.86.64-.44.68-.93.88-1.83.65-4.6-1.19-9.05-2.74-13.15-5.17-.77-.45-1.57-.95-2.02-1.8-1.94-2.36-1.88-4.08.26-6.21,2.13-2.12,4.84-3.2,7.64-4.08Z"/>
      <path class="cls-5" d="m239.23,67.62c.79-.41,1.5.11,2.23.25,3.09.6,6.06.07,9.01-.84.06.39.12.78.17,1.17.59.66.36,1.55.66,2.29.08.31.12.63.2.94.61,2.52-.09,4.65-2.17,6.1-2.17,1.52-4.48,2.03-6.97.69-1.54-.83-2.65-2.07-3.65-3.47-.55-.78-.72-1.54-.24-2.43.34-.65.51-1.37.57-2.11.19-.86-.49-1.78.19-2.6Z"/>
      <path class="cls-43" d="m201.02,337.06c-.78.97-1.86,1.6-2.82,2.34-1.71,1.32-3.15,2.77-3.22,5.11-.66.58-1.48.46-2.23.41-2.46-.15-4.94-.26-7.36-.77-.44-.09-.92-.11-1.23-.52.4-3.01,2.05-5,4.9-6.01,2.01-.71,4.14-1.14,5.86-2.53.39-.17.78-.26,1.2-.12,1.68.57,3.35,1.18,4.89,2.08Z"/>
      <path class="cls-59" d="m126.06,112.54c6.19-1.77,8.8-5.22,8.82-11.67,0-.75-.09-1.37,1-1.49.95-.11,1.43-1.06,2.01-1.75.31,5.3-.39,10.5-1.47,15.66-.07.36-.1.72-.16,1.08-.42.62-1.02.61-1.65.46-3.05.78-6.15,1.26-9.3,1.26-.51-1.34-.06-2.49.74-3.56Z"/>
      <path class="cls-54" d="m201.02,337.06c-1.24-.01-2.24-.72-3.34-1.15-.89-.34-1.77-.74-2.75-.81,1.85-2.13,2.88-4.62,3.16-7.42.49-.8.49-1.75.67-2.63.17-.82.54-1.08,1.31-.93,1.88.35,3.77.7,5.65,1.05.02.26.05.51.07.77-2.4.19-2.44.2-1.91,2.47.81,3.49-.37,6.28-2.87,8.65Z"/>
      <path class="cls-34" d="m88.64,303.68c1.92.03,3.32,1.01,4.24,2.58,1.36,2.35,3.51,3.83,5.58,5.4,3.78,2.88,7.78,5.5,11.07,8.99.67.71,1.25,1.45,1.53,2.4.14.46.26.93-.44,1.04-3.81-2.23-7.3-4.91-10.66-7.75-1.44-1.21-2.84-2.46-4.23-3.73-.34-.31-.52-.23-.74.08.03-.76-.45-1.23-.92-1.74-2.03-2.26-4.1-4.5-5.43-7.28Z"/>
      <path class="cls-64" d="m184.17,343.64c3.6.42,7.18.98,10.82.88.02,1.46.05,2.93.3,4.37-3.25.02-6.5.03-9.75.06-.56,0-.97-.1-1.1-.74-.32-1.51-.69-3.02-.27-4.57Z"/>
      <path class="cls-37" d="m165.27,108.21c.82-.75,1.63-1.49,2.45-2.24.97,2.77-.07,4.94-2.3,6.45-3.09,2.1-4.79,5.26-6.57,8.31-1.14,1.96-2.96,2.95-4.64,4.14-1.71,1.22-3.63,2.13-5.63,2.86-.34.13-.66.33-1.21.07,2.18-1.17,4.25-2.34,6.12-3.78,2.12-1.64,4.85-2.88,5.75-5.53.69-2.02,1.76-3.7,2.88-5.4.64-.98,1.48-1.82,2.33-2.86-4.55-1.08-8.17-3.43-11.13-6.84.11-.1.21-.2.32-.3.73-.29,1.09.28,1.51.67,2.48,2.3,5.24,4.12,8.52,5.05.66.19,1.39.46,1.6-.6Z"/>
      <path class="cls-34" d="m494.31,316.93c-.06-.38-.07-.38.1-.47,1.99-1.03,4.01-2,5.97-3.09,3.43-1.91,6.62-4.15,9.64-6.69,2.97-2.5,5.12-5.86,8.55-7.83.59-.34,1.16-.96,1.95-.39-2.06,3.02-4.65,5.57-7.37,7.96-5.37,4.71-11.48,8.2-18.3,10.4-.17.06-.36.08-.53.12Z"/>
      <path class="cls-62" d="m251,70.36c-.45-.67-.32-1.43-.37-2.16.75-.25,1.33-.76,1.91-1.27.51-.45,1.01-.93,1.57-1.3,1.96-1.3,2.83-1.1,4.07.89.64,3.57-.07,6.93-1.57,10.17-.6-.09-.75-.62-.98-1.05-.75-1.41-1.34-2.9-1.79-4.43-.3-1-.67-1.59-1.8-.93-.3.18-.68.27-1.05.09Z"/>
      <path class="cls-62" d="m239.23,67.62c.05.88.09,1.76.14,2.65-.95.28-1.49-.49-2.2-.85-.59,2.1-1.3,4.15-2.29,6.1-.24.47-.39,1.06-1.05,1.17-1-1.47-1.14-3.23-1.52-4.89-.4-1.73-.52-3.51-.05-5.28,1.27-1.99,1.7-2.11,3.9-1.04,1.06.66,1.81,1.77,3.07,2.14Z"/>
      <path class="cls-58" d="m165.27,108.21c.18.21.65.29.34.73-.29.42-.64.56-1.17.42-2.87-.72-5.44-2-7.76-3.84-1.02-.81-1.75-1.98-3.05-2.43.33-.45.5-.96.65-1.49.63-2.2,2.03-3.23,4.33-3.11.76.04,1.53.15,2.23.5-.33.42-.81.35-1.25.38-.5.03-.99.09-1.47.21-2.09.52-2.31,1.22-.87,2.82.27.3.64.52.66.99,2.19,2,4.6,3.68,7.35,4.83Z"/>
      <path class="cls-11" d="m342.26,233.03c-.26-1.97-.47-3.95-.78-5.92-.58-3.75-1.45-7.42-3.05-10.89.02-.63.36-.77.91-.58,1.05,2.1,1.66,4.35,2.27,6.6.14.52.19,1.08.6,1.76,1.46-1.63,2.09-3.44,2.18-5.42.09-1.78.14-3.58-.32-5.33-.12-.44-.2-.9,0-1.35.17-.28.38-.45.73-.35.35,1.97.94,3.9.84,5.94-.14,2.91-.76,5.62-3.01,7.69-.54.49-.67,1.03-.49,1.73.43,1.65.53,3.33.45,5.03-.11.36-.22.73-.33,1.09Z"/>
      <path class="cls-67" d="m157.92,103.38c-.41-.42-.95-.66-1.32-1.17-1.17-1.61-.94-2.33.99-2.9,1.07-.32,2.16-.3,3.26-.32.85.04,1.58.47,2.38.69-1.77,1.24-3.54,2.47-5.31,3.7Z"/>
      <path class="cls-34" d="m368.55,336.49c-1.34-.05-2.58-.6-3.96-.57-1.93.04-3.8.37-5.69.63-.4.05-.92.53-1.1-.23-.15-.64-.01-1.19.72-1.4,1.14-.34,2.3-.56,3.48-.6.91-.03,1.84.07,2.74-.02,1.71-.18,2.84.68,3.77,1.95.01.08.02.17.03.25Z"/>
      <path class="cls-21" d="m134.63,114.83c.55-.15,1.1-.31,1.65-.46,1.13-.05,2.27-.4,3.4.07-.75,1.73-1.5,3.46-2.26,5.19-.93-1.6-1.86-3.2-2.79-4.8Z"/>
      <path class="cls-52" d="m40.23,250.45c1.52,1.46,2.37,3.27,2.83,5.3-.49-.46-.96-.96-1.47-1.39-.75-.62-1.15-1.35-1-2.35.08-.56-.2-1.05-.36-1.56Z"/>
      <path class="cls-33" d="m46.06,215.15c-1.63.58-2.01.4-2.24-1.06.82.19,1.54.62,2.24,1.06Z"/>
      <path class="cls-48" d="m102.91,285.75c.85,0,1.26.48,1.29,1.17.04.73-.43,1.24-1.16,1.24-.7,0-1.23-.37-1.24-1.17,0-.77.43-1.15,1.11-1.25Z"/>
      <path class="cls-48" d="m115.85,209.62c-.65-.11-1.09-.49-1.08-1.25.01-.79.56-1.16,1.25-1.16.74,0,1.2.5,1.16,1.24-.04.7-.45,1.18-1.32,1.17Z"/>
      <path class="cls-48" d="m117.2,244.56c-.14.67-.43,1.22-1.23,1.19-.74-.03-1.19-.44-1.21-1.2-.02-.79.52-1.18,1.2-1.21.74-.03,1.13.48,1.23,1.21Z"/>
      <path class="cls-30" d="m85.52,259.03c0,.86-.52,1.26-1.2,1.26-.71,0-1.22-.51-1.2-1.22.02-.68.42-1.2,1.22-1.18.76.02,1.14.46,1.19,1.14Z"/>
      <path class="cls-35" d="m75.27,281.03c-.71-.08-1.22-.49-1.25-1.19-.03-.68.35-1.23,1.14-1.24.75-.01,1.19.38,1.25,1.14.06.8-.46,1.11-1.14,1.3Z"/>
      <path class="cls-72" d="m67.48,216.76c-.74-.12-1.23-.5-1.24-1.24-.02-.75.45-1.16,1.19-1.2.81-.04,1.17.49,1.2,1.18.04.75-.47,1.12-1.15,1.25Z"/>
      <path class="cls-30" d="m124.11,198.13c-.15.68-.52,1.22-1.25,1.22-.69,0-1.22-.4-1.2-1.19.01-.76.43-1.17,1.18-1.21.81-.04,1.08.53,1.27,1.19Z"/>
      <path class="cls-26" d="m118.49,187.86c.67.16,1.24.41,1.23,1.22-.01.75-.4,1.19-1.16,1.22-.8.04-1.2-.48-1.23-1.16-.03-.72.49-1.12,1.17-1.28Z"/>
      <path class="cls-48" d="m56,224.2c-.08.71-.48,1.15-1.23,1.15-.75,0-1.22-.42-1.21-1.17,0-.74.51-1.2,1.21-1.22.72-.02,1.13.48,1.23,1.24Z"/>
      <path class="cls-30" d="m42.58,227.78c-.71-.15-1.19-.55-1.18-1.29.02-.75.5-1.14,1.24-1.14.8,0,1.15.54,1.16,1.23.01.75-.53,1.09-1.22,1.2Z"/>
      <path class="cls-75" d="m81.11,183.7c-.01.89-.36,1.34-1.15,1.39-.73.05-1.18-.39-1.23-1.03-.06-.7.34-1.3,1.08-1.35.69-.04,1.23.32,1.29.99Z"/>
      <path class="cls-75" d="m42.7,242.24c-.14.76-.6,1.09-1.34,1.07-.72-.02-1.08-.38-1.09-1.11,0-.81.41-1.17,1.18-1.16.8,0,1.1.51,1.25,1.2Z"/>
      <path class="cls-42" d="m77.64,243.31c.69.17,1.2.58,1.15,1.32-.05.73-.55,1.17-1.31,1.11-.69-.05-1.06-.5-1.07-1.19-.01-.81.55-1.08,1.24-1.24Z"/>
      <path class="cls-73" d="m78.82,196.91c-.77-.12-1.28-.51-1.26-1.23.02-.68.4-1.21,1.19-1.22.79,0,1.18.52,1.21,1.2.03.72-.48,1.12-1.13,1.25Z"/>
      <path class="cls-19" d="m60.97,251.05c-.02.84-.5,1.25-1.22,1.27-.75.02-1.21-.48-1.21-1.22,0-.68.47-1.14,1.14-1.16.71-.02,1.21.38,1.28,1.11Z"/>
      <path class="cls-42" d="m58.65,236.94c-.13.71-.5,1.16-1.28,1.14-.7-.01-1.1-.33-1.12-1.07-.02-.77.31-1.18,1.12-1.2.8-.02,1.14.42,1.27,1.14Z"/>
      <path class="cls-42" d="m95.74,238.1c0,.84-.54,1.23-1.22,1.24-.77,0-1.11-.59-1.1-1.31,0-.69.38-1.11,1.12-1.09.76.02,1.17.42,1.21,1.16Z"/>
      <path class="cls-24" d="m65.65,201.99c.58.1,1.1.34,1.12,1.09.02.74-.29,1.23-1.09,1.3-.8.07-1.24-.39-1.27-1.11-.03-.73.46-1.16,1.24-1.28Z"/>
      <path class="cls-28" d="m108.66,194.46c.78.06,1.23.54,1.22,1.23,0,.68-.44,1.22-1.22,1.2-.69-.02-1.08-.44-1.11-1.14-.02-.75.36-1.18,1.1-1.29Z"/>
      <path class="cls-75" d="m83.09,206.33c-.04.69-.34,1.13-1.09,1.08-.75-.04-1.17-.46-1.17-1.21,0-.78.53-1.2,1.22-1.18.74.02,1.09.56,1.05,1.31Z"/>
      <path class="cls-28" d="m99.78,252.33c.7.08,1.17.46,1.13,1.23-.03.69-.53,1.11-1.17,1.11-.7,0-1.24-.41-1.24-1.18,0-.76.48-1.14,1.27-1.16Z"/>
      <path class="cls-42" d="m94.62,190.92c-.15.71-.56,1.1-1.32,1.06-.7-.04-1.11-.43-1.11-1.11,0-.76.45-1.16,1.21-1.15.76.01,1.14.45,1.22,1.2Z"/>
      <path class="cls-8" d="m71.47,230.34c-.69-.06-1.14-.46-1.09-1.21.04-.67.49-1.06,1.18-1.06.74,0,1.24.38,1.22,1.15-.01.75-.48,1.13-1.3,1.13Z"/>
      <path class="cls-28" d="m92.71,179.13c-.02.76-.41,1.23-1.15,1.22-.75,0-1.13-.5-1.12-1.25.01-.7.42-1.12,1.08-1.15.75-.03,1.15.42,1.19,1.18Z"/>
      <path class="cls-28" d="m46.33,261.19c0-.83.46-1.14,1.23-1.11.75.03,1.04.48,1.03,1.18,0,.82-.48,1.14-1.24,1.1-.74-.04-1.06-.45-1.02-1.17Z"/>
      <path class="cls-28" d="m98.5,202.15c-.06.69-.47,1.13-1.21,1.09-.68-.03-1.05-.49-1.06-1.18,0-.75.39-1.24,1.14-1.23.74.01,1.13.49,1.13,1.32Z"/>
      <path class="cls-42" d="m110.88,265.57c.8,0,1.16.41,1.14,1.2-.02.74-.39,1.07-1.12,1.07-.81,0-1.17-.42-1.15-1.2.01-.74.42-1.07,1.13-1.08Z"/>
      <path class="cls-42" d="m94.62,273.65c-.13.73-.52,1.15-1.29,1.12-.77-.03-1.19-.48-1.14-1.22.04-.66.47-1.05,1.18-1.05.77,0,1.14.43,1.25,1.15Z"/>
      <path class="cls-28" d="m106.44,183.94c.7.06,1.14.46,1.09,1.22-.04.68-.48,1.06-1.17,1.06-.75,0-1.23-.4-1.22-1.15,0-.75.5-1.12,1.31-1.13Z"/>
      <path class="cls-28" d="m86.67,222.96c-.07.84-.48,1.3-1.22,1.26-.75-.05-1.11-.56-1.07-1.3.04-.7.47-1.09,1.14-1.09.77,0,1.1.5,1.15,1.14Z"/>
      <path class="cls-28" d="m104.23,214.35c-.07.65-.42,1.07-1.13,1.1-.76.03-1.25-.34-1.28-1.11-.02-.7.39-1.08,1.1-1.15.83-.07,1.14.43,1.31,1.15Z"/>
      <path class="cls-42" d="m66.27,263.65c-.68-.17-1.22-.44-1.17-1.27.04-.7.41-1.14,1.11-1.15.78,0,1.16.47,1.15,1.24,0,.71-.4,1.08-1.08,1.18Z"/>
      <path class="cls-47" d="m55.13,276.99c0-.51.59-.76,1.28-.72.71.04,1.04.53.97,1.24-.08.77-.55,1.13-1.31,1.08-.78-.05-.96-.58-.94-1.6Z"/>
      <path class="cls-44" d="m122.12,218.73c-.13.69-.45,1.13-1.19,1.11-.77-.02-1.22-.4-1.2-1.19.02-.7.41-1.08,1.15-1.09.82-.01,1.12.48,1.24,1.16Z"/>
      <path class="cls-42" d="m109.71,230.33c-.56-.06-1.01-.38-1.01-1.11,0-.79.48-1.14,1.23-1.16.74-.02,1.13.47,1.13,1.11,0,.72-.42,1.19-1.35,1.16Z"/>
      <path class="cls-46" d="m124.92,188.04c-.02,1.5.31,3.01-.18,4.48.03-1.5-.27-3,.18-4.48Z"/>
      <path class="cls-12" d="m233.83,76.68c1.54-2.34,2.22-5.04,3.18-7.66.83.44,1.6.84,2.36,1.24.1.76-.13,1.52-.52,2.09-.68,1-.23,1.69.33,2.43,1.64,2.19,3.51,3.98,6.53,3.82,2.41-.12,5.31-2.48,5.82-4.77.11-.5.02-.99-.17-1.48-.24-.64-.44-1.3-.36-2.01,2.49-1.1,2.47-1.1,3.41,1.47.61,1.67,1.21,3.36,2.21,4.86,4.08,14.25,7.53,28.64,10.04,43.24,1.15,6.68,2.3,13.38,2.6,20.18,0,.21.16.42.24.63.41.72-.15,1.22-.46,1.74-1.93,3.28-3.05,6.78-2.67,10.6.33,3.31,1.31,6.45,3.01,9.34.38.64.96,1.26.71,2.13-9.73,2.14-19.56,3.13-29.53,2.6-.21-.69.31-1.12.63-1.59,1.92-2.87,3.7-5.81,5.32-8.86,1.61-3.01,1.5-5.84-.09-8.77-3.03-5.55-6.75-10.62-10.66-15.56-3.43-4.33-7.15-8.39-11.12-12.23-.35-.34-.8-.66-.69-1.26,2.59-14.23,5.92-28.29,9.88-42.2Z"/>
      <path class="cls-46" d="m339.28,215.71c-.39-.01-.66.18-.84.51-2.29,1.25-4.55,2.55-6.87,3.73-7.16,3.65-14.77,5.24-22.81,4.85-.56-.03-1.15-.47-1.72,0-.18.02-.36.04-.55.01-3.86-.6-3.85-.6-4.95-4.33-2.43-8.18-5.87-15.91-10.05-23.36-3.63-6.46-7.76-12.58-11.71-18.83-.12-.19-.2-.29-.38-.08-.19-1.97-1.63-3.34-2.47-4.99.54-.29.58-.32,1.14.26,1.5,1.56,3.23,2.85,4.84,4.28.78.7,1.38.84,2.06-.01,1.49.51,2.71,1.52,4.06,2.29,4.1,2.36,8.24,4.66,12.66,6.39.47.18.95.35,1.43.51,2.94,1.04,5.65.62,8.26-1.07,4.07-2.64,7.3-6.13,10.26-9.9,2.39-3.03,4.6-6.2,6.65-9.47.17-.27.33-.55.61-.74.82-.52,1.77-.42,2.67-.54,2.49-.33,4.93-1.03,7.46-1.06.73.29.89,1.02,1.17,1.63,3.71,8.17,8.24,15.87,13.13,23.38,1.65,2.54,3.38,5.03,5.14,7.49.23.32.57.63.39,1.1-1.52.64-2.19,2.13-3.24,3.24-2.55,2.71-5.12,5.38-7.9,7.85-.99.88-1.95,1.79-2.92,2.68-.18.1-.36.19-.55.29-1.28,1.78-3.08,2.89-4.98,3.87Z"/>
      <path class="cls-22" d="m223.95,118.88c3.24,3.3,6.55,6.55,9.5,10.13,4.79,5.8,9.37,11.75,13.03,18.36,1.77,3.19,2.13,6.23.3,9.6-1.91,3.51-4.07,6.84-6.23,10.19-2.3,3.01-4.54,6.06-7.03,8.92-1.42,1.64-3.11,2.77-5.11,3.51-3.17.32-6.05-.76-8.9-1.88-1.86-.73-3.72-1.53-5.26-2.88-.05-.97.81-1.39,1.31-1.98,1.02-1.19,1.95-2.43,2.89-3.67,1.03-1.63,2.34-3.09,3.16-4.86,2.23-3.24,4.27-6.6,5.79-10.25.05-.13.06-.29.15-.38,1.47-1.33.44-2.34-.38-3.45-1.94-2.61-3.96-5.15-6.32-7.4-.48-.51-.97-1-1.47-1.48-.46-.48-1.02-.83-1.57-1.19-1.26-.96-2.89-1.17-4.17-2.09-3.85-2.76-5.77-6.54-6.01-11.22-.09-1.74-.08-3.49,0-5.23.21-4.75,4.31-8.28,9.03-7.82.37.04.72.11,1.02.36.12.02.24.04.35.07,1.97,1.55,3.95,3.09,5.92,4.64Z"/>
      <path class="cls-13" d="m284.89,177.92c-.4.33-.06.9-.49,1.34-2.23-1.64-4.38-3.35-6.33-5.31-.3-.3-.49-.9-1.12-.72-2.29-2.89-4.81-5.59-6.86-8.67-1.77-3.26-3.4-6.53-3.95-10.3-.66-4.45.45-8.42,2.71-12.17.26-.43.59-.82.65-1.35.09-.02.19-.04.28-.07,4.5-2.2,7.85.2,11,2.91,3.9,3.36,6.68,7.59,8.96,12.18,1.61,3.23,3.04,6.58,5.73,9.14.27.26.36.72.53,1.09-.26.82-1.08.92-1.69,1.27-3.48,1.96-6.5,4.38-8.36,8.03-.43.85-.31,1.91-1.05,2.63Z"/>
      <path class="cls-54" d="m153.96,212.91c-.45-.39-.7-.79-.33-1.41.25-.43.34-.95.57-1.4,3-5.99,3.45-12.66,5.08-19.02-.14-.88.05-1.71.28-2.56,1.49-5.61,3.44-11.05,5.87-16.32.24-.53.3-1.45,1.33-1.08.3,1.35-.2,2.64-.36,3.93-.58,4.61.1,9.05,1.43,13.44.36,1.18.71,2.37,1.19,3.58-.18-6.26,0-12.45,1.3-18.55.17-.8.25-1.65.92-2.25.39-.14.61.06.79.36.21,1.22-.28,2.36-.51,3.51-.8,4.03-.94,8.12-1.11,12.2-.09,2.14.24,4.3.28,6.46.04,2.17,1.01,4.01,2.26,5.67,1.65,2.21,2.45,4.62,2.72,7.36.32,3.24.93,6.46,1.32,9.69.13,1.05.63,1.43,1.7,1.54,2.8.28,5.6.24,8.4.24,5.69,0,11.38.23,17.06-.24,1.13-.09,1.53-.48,1.51-1.58-.02-1.66-.22-3.3-.33-4.94-.31-4.57-.11-9.18-1.04-13.72-.54-2.66-1.21-5.28-1.97-7.88-.23-.79-.58-1.55-.54-2.4.02-.17.1-.29.25-.38.64-.2.92.19,1.13.69.26.59.41,1.21.65,1.8.07.14.12.29.16.44,1.95,6.33,2.79,12.81,2.78,19.42,0,2.25.29,4.49.41,6.73.06,1.06.55,1.44,1.61,1.25.74-.13,1.54-.45,2.25.14l.02.53c-.39.64-1.06.66-1.68.78-4.12.78-8.3.87-12.46,1.03-5.78.22-11.56-.12-17.33-.27-1.1-.03-1.98.19-2.47,1.26-4.88-.88-9.55-2.47-14.19-4.2-3.05-1.14-5.98-2.55-8.95-3.86Z"/>
      <path class="cls-67" d="m226.47,181.76c1.22,1.52,1.74,3.39,2.52,5.13,1.31,2.96,2.56,5.95,3.84,8.93.2.54.21,1.06-.09,1.58-2.47,4.19-6.1,6.77-10.82,7.85-.4.09-.82.13-1.21-.07-1.02-1.64-2.05-3.28-3.07-4.91-1.43-1.29-2.1-3.07-3.04-4.67-1.48-2.52-2.85-5.1-4.3-7.64-.27-.47-.57-.94-.52-1.53.24-.63.86-.62,1.36-.77,1.48-.42,2.72-1.11,3.75-2.35.98-1.18,2.23-2.15,3.65-2.85.66-.14,1.25.13,1.83.36,1.01.41,2.08.65,3.09,1.02,1.05.38,2.02.12,3.02-.07Z"/>
      <path class="cls-43" d="m211.03,217.63c-1.08.13-2.17.2-3.24.41-.58.11-.86.08-.91-.58-.17-2.22-.52-4.44-.52-6.66.03-6.88-.69-13.64-2.66-20.24-.08-.26-.07-.54-.1-.81,1.08-.52,2.03-1.21,2.86-2.08.37-.39.82-.8,1.44-.34,1.22,2.28,1.73,4.8,2.36,7.28.28,1.11.55,2.22.69,3.36.06.5.21,1-.14,1.45.43,4.05.72,8.09.29,12.17-.21,2-.05,4.03-.06,6.04Z"/>
      <path class="cls-43" d="m177.09,220.97c-.27-1.43.38-1.75,1.74-1.72,6.31.12,12.62.58,18.93.27,4.45-.22,8.93-.27,13.29-1.36.54,1.88.41,2.17-1.1,2.5-3.65.33-7.29.73-10.95.95-2.34.14-4.68.15-7.02.17-4.32.03-8.64,0-12.95-.02-.68-.17-1.5,0-1.93-.79Z"/>
      <path class="cls-55" d="m210.8,199.41c-.61-4.15-1.73-8.18-3.12-12.13.45-1.05,1.24-1.2,2.22-.86,2.57,4.61,5.15,9.23,7.72,13.84-2.34.21-4.58-.37-6.83-.85Z"/>
      <path class="cls-2" d="m233.59,197.53c1.18,1.73.43,3.09-.72,4.51-2.26,2.79-5.18,4.55-8.44,5.9-1.18.48-2.06.54-2.6-.83-.15-.38-.42-.71-.63-1.06.05-.76.71-.73,1.19-.85,4.14-1.11,7.48-3.33,9.87-6.94.28-.43.5-1.19,1.33-.73Z"/>
      <path class="cls-3" d="m226.47,181.76c-.76.86-1.66.88-2.69.54-1.75-.58-3.52-1.1-5.28-1.65-2.32-.56-4.21-1.9-6.05-3.34-.59-1.56-.36-2.01,1.27-2.41,1.94.72,3.61,1.97,5.53,2.75,2.36.95,4.78,1.6,7.27,2.04.45.08.93.04,1.26.44-.3.66-1.12.91-1.32,1.64Z"/>
      <path class="cls-61" d="m233.59,197.53c-.91.09-1.01.97-1.42,1.52-2.47,3.33-5.72,5.46-9.73,6.47-.43.11-.91.15-1.23.53-.17-.29-.34-.58-.5-.87,3.85-.69,7.21-2.34,9.8-5.3,1.02-1.17,2.24-2.31,2.33-4.05.25.57.51,1.14.76,1.71Z"/>
      <path class="cls-77" d="m227.8,180.12c-5.11-.42-9.71-2.25-13.97-5.01-.11-.44.07-.59.5-.5,4.1,2.53,8.42,4.41,13.3,4.75.26.02.52.15.78.23-.13.26-.32.46-.61.54Z"/>
      <path class="cls-5" d="m339.29,164.41c-3.47.56-6.94,1.12-10.41,1.68-1.46.64-3.04.68-4.57.84-4.19.44-8.39.87-12.59,1.1-1.78.1-3.11.96-4.53,1.79-.28.16-.53.37-.78.56-2.48,1.83-4,1.69-6.16-.59-.26-.27-.5-.55-.38-.97,1.38-1.56,3.23-2.47,5.13-3.06,3.37-1.06,6.25-2.99,9.29-4.65,4.78-2.61,9.67-5,14.75-6.98,1.99-.86,4.09-1.3,6.24-1.48.51-.04,1.03-.21,1.19-.77.17-.6-.39-.74-.74-1-.71-.52-.42-.91.18-1.22.82-.42,1.67-.75,2.61-.81.41-.03.83-.04,1.22-.18.3-.11.63-.24.61-.64-.02-.31-.28-.46-.54-.57-1.05-.46-2.14-.42-3.24-.29-.49.06-1.12.32-1.37-.24-.23-.51.32-.89.67-1.25.35-.37.79-.62,1.22-.89.36-.23.74-.5.53-.98-.25-.57-.76-.4-1.19-.26-1.02.33-1.94.81-2.63,1.66-.27.33-.51.8-1.09.68-.48-1.25-1.06-2.46-1.09-3.84.14-.8.77-1.22,1.35-1.63,1.87-1.29,3.92-2.02,6.23-1.9,1.79,1.75,2.83,4.01,4.15,6.09.33.52.46,1.17,1,1.56.99,2.71,2.53,5.16,3.64,7.81.97,2.31,1.41,4.62,1.25,7.09-.28.63-.81.96-1.4,1.23-2.51,1.16-5.18,1.71-7.87,2.24-.23.05-.45-.01-.65-.16Z"/>
      <path class="cls-70" d="m348.37,133.75c2.23-1.3,3.08-3.25,2.73-5.77,2.73.6,5.22,3.47,5.27,6.21.07,3.67.11,7.33-.51,10.98-.13.78-.43,1.23-1.18,1.48-1.75.57-3.51.97-5.38.95-1.21-.01-1.85-.41-1.74-1.68-.37-1.2-.1-2.31.8-3.11,1.23-1.1,2.5-.53,3.07,1.28-.1-1.17-.23-2.32.01-3.44.27-1.25-.11-2.24-.88-3.16-.62-.74-1.23-1.48-1.79-2.25-.31-.42-.75-.85-.39-1.47Z"/>
      <path class="cls-15" d="m353.07,97.1c-1.14-.54-2.52-.35-3.59-1.12-.28-.57-.13-1.17-.11-1.75.06-1.52-.13-3-.67-4.43-.16-.41-.38-.85,0-1.28,1.04.1,2.08.19,3.12.32,3.22.38,6.23-.2,8.99-1.95.47.38.53.94.65,1.47.26,1.21.57,2.41.99,3.58.92,2.57.26,4.06-2.22,5.15-2.39.57-4.77.35-7.16.02Z"/>
      <path class="cls-5" d="m348.37,133.75c.4,1.32,1.46,2.18,2.27,3.21.91,1.15,1.63,2.21,1.14,3.85-.29.96-.22,2.09.05,3.13.14.51.16.99-.44,1.06-.66.09-.5-.51-.52-.88-.04-.67.15-1.52-.91-1.49-.86.03-1.77.14-1.97,1.29-.11.67-.29,1.33-.44,2-1.01-.21-1.82-.85-2.61-1.43-1.07-.77-1.02-2.21.11-3.34.62-.62.82-1.06.36-1.94-.69-1.34-.24-2.87-.33-4.32,1.1-.38,2.19-.75,3.29-1.13Z"/>
      <path class="cls-56" d="m360.23,97.08c2.48-1.82,2.7-2.67,1.61-5.69-.53-1.46-.81-2.98-1.04-4.52.53-.47,1.07-.95,1.6-1.42.98.36,1.99.65,2.93,1.08,2.03.95,2.63,2.71,1.92,4.85-.72,2.16-2.35,3.48-3.98,4.85-1.08.05-1.93.89-3.04.84Z"/>
      <path class="cls-6" d="m350.84,98.46c.22-.3.47-.57.86-.64,2.61,1.62,4.03,3.99,4.13,7.02.07,2.33-.27,4.67-.29,7-.02,3.55,1.71,5.46,5.17,5.9.65.08,1.26-.02,1.89-.19.66-.18,1.18.06,1.25.86.06.7-.2,1.15-.95,1.24-2.75.31-7.25-2.18-8.19-4.62-.8-2.07-.59-4.24-.38-6.39.2-2.01.5-4.02-.25-5.99-.66-1.72-1.94-2.96-3.25-4.19Z"/>
      <path class="cls-6" d="m364.11,96.5c.38.1.75.21,1.13.31-.84,2.73.57,4.36,2.75,5.6,3.36,1.92,6.97,2.75,10.83,2.39.79-.07,1.53-.33,2.21-.73,1.21-.7,1.37-1.48.6-2.61-.32-.46-.66-.94-.24-1.5.26-.36.67-.49,1.1-.42.68.1.82.65.93,1.2.51,2.48-.39,4.14-2.79,4.92-3.54,1.16-6.99.4-10.37-.75-1.78-.61-3.44-1.48-4.86-2.78-1.74-1.6-2.02-3.5-1.3-5.64Z"/>
      <path class="cls-5" d="m126.06,112.54c-.25,1.19-.49,2.37-.74,3.56-.23,1.51-.14,3.16-2.02,3.84-1.92.69-3.62.29-5.17-.89-.73-.55-1.38-1.21-2.04-1.83-.65-.61-.93-1.33-.5-2.19.57-1.22,1-2.49,1.07-3.85,2.87,2.26,6.08,2.21,9.4,1.37Z"/>
      <path class="cls-70" d="m299.85,168.83c.89,1.24,2.29,1.78,3.52,2.55.64.4,1.15-.03,1.6-.42,1.36-1.18,2.87-2.15,4.48-2.91,1.41-.66,3.04-.49,4.58-.61,4.37-.34,8.73-.65,13.07-1.32.58-.09,1.19-.02,1.78-.03-2.12,3.87-4.78,7.37-7.52,10.81-2.57,3.24-5.44,6.17-8.79,8.65-3.51,2.6-7.08,2.93-11.08,1.22-5.8-2.47-11.26-5.54-16.6-8.85.42-3.75,2.83-6.23,5.51-8.51,1.68-1.43,3.62-2.46,5.59-3.42,1.28.96,2.3,2.27,3.86,2.84Z"/>
      <path class="cls-13" d="m338.21,135.46c.56.66,1.14,1.31,1.67,2,.24.31.78.58.61.99-.2.5-.82.18-1.23.33-2.98.1-5.57,1.11-7.68,3.27-.95-2.07-1.86-4.15-2.87-6.19-4.06-8.29-10.36-13.79-19.6-15.57-1.16-.22-2.36-.24-3.54-.35,8.19-.73,16.22-.92,22.83,5.32,3.43,3.24,6.75,6.58,9.79,10.19Z"/>
      <path class="cls-5" d="m281.32,123.31c3.75.97,7.36.38,10.87-1.05.52-.21.91-.38,1.25.2.4,1.36.76,2.73,1.2,4.07.66,1.99-.17,3.77-2.15,4.5-2.68.99-5.33.36-7.97-.15-.76-.15-1.61-.26-2.2-.69-.74-.54.2-1.41-.05-2.13-.06-.17-.04-.36-.05-.55.14-1.5-.42-2.84-.89-4.21Z"/>
      <path class="cls-70" d="m332.68,145.9c1.04-1.3,2.2-2.39,3.9-2.83.7-.18,1.19-.15,1.49.49.33.72.04,1.22-.69,1.51-.87.35-1.53.96-2.08,1.79.71.35,1.26-.25,1.89-.15.49.08,1.04-.09,1.51.05.86.25,2.25.13,2.16,1.41-.08,1.17-1.33,1.02-2.21,1.03-1.15.02-2.07.62-3.06.96-.02.42.26.39.46.48.49.23,1.08.39,1.02,1.12-.06.71-.62,1.14-1.18,1.17-2.34.13-4.55.93-6.85,1.2,1.3-.98,2-2.42,2.2-3.92.21-1.58.57-3.01,1.46-4.32Z"/>
      <path class="cls-46" d="m291.92,79.66c.31.49.62.99,1.04,1.66-1.42,0-2.68,0-3.93,0-3.97.02-7.82.71-11.59,1.96-3.97,1.32-6.29,4.08-7.4,7.99-.52,0-.57-.42-.6-.77-.21-2.34-.01-4.66.5-6.96.09-.42.45-.68.63-1.05,2.53-1.78,5.4-2.73,8.39-3.36.26-.06.51-.15.77-.23,3.61-.39,7.21-.65,10.79.25.48.12.94.34,1.41.51Z"/>
      <path class="cls-18" d="m270.55,82.49c-.63,2.41-.85,4.87-.81,7.36,0,.48-.17,1.02.28,1.42-.86,2.06-1.55,4.17-1.89,6.38-.38.38-.75.75-1.13,1.13-.78-1.08-.48-2.37-.64-3.56-.34-2.52-.18-5.03.16-7.54.33-2.51,1.86-4.1,4.03-5.19Z"/>
      <path class="cls-31" d="m351.55,77.49c2.57-.03,5.14-.16,7.67-.61.72-.13.85.06.87.72.04,2.28-1.25,4.29-3.47,4.89-4.12,1.11-7.17-.16-8.25-3.09-.66-1.8-.57-1.96,1.26-1.91.64.02,1.29,0,1.93,0Z"/>
      <path class="cls-56" d="m348.7,88.52c.65,1.9,1.31,3.8,1.11,5.86-.05.55-.02,1.1-.32,1.6-2.66-.35-6.57-3.74-6.11-6.86.2-1.35.62-2.25,1.99-2.54.99.85,2.21,1.3,3.32,1.94Z"/>
      <path class="cls-27" d="m359.45,69.34c-.27.8-.15,1.88-1.22,1.79-.96-.08-1.02-1.07-.99-1.84.03-.75.08-1.76,1.13-1.69,1.03.06.78,1.15,1.07,1.75Z"/>
      <path class="cls-74" d="m348.44,69.26c-.06.83-.03,1.84-1.03,1.85-1.03.02-1.01-1.03-1.01-1.79,0-.77,0-1.76,1.07-1.72.97.03.87,1,.97,1.66Z"/>
      <path class="cls-20" d="m280.97,113.02c4.13.42,7.75-.33,11.39-1.12-.25,1.66-1.61,2.9-3.88,3.59-2.88.88-5.16-.19-7.51-2.47Z"/>
      <path class="cls-71" d="m291.58,102.51c-.03.53.02,1.3-.77,1.45-.87.17-1.17-.62-1.35-1.26-.22-.79-.31-1.63.3-2.33.24-.28.55-.31.86-.1.77.51.96,1.28.96,2.25Z"/>
      <path class="cls-40" d="m278.01,103.65c.02-.64-.08-1.42.74-1.57.88-.17,1.11.61,1.34,1.26.28.81.3,1.61-.27,2.33-.23.29-.56.31-.86.12-.79-.5-.93-1.29-.94-2.14Z"/>
      <path class="cls-27" d="m292.93,96.57c-.05.58-.39.63-.77.42-1.04-.56-2.11-.82-3.29-.61-.22.04-.47-.03-.56-.28-.09-.25.03-.43.25-.56.7-.44,3.61.05,4.17.72.08.1.14.22.19.31Z"/>
      <path class="cls-20" d="m239.85,59.54c3.59.14,7.06.44,10.63-.84-1.37,2.39-2.77,4.36-5.59,4.39-2.3.02-4.19-1.34-5.04-3.55Z"/>
      <path class="cls-49" d="m248.35,49.01c.16-.76.06-1.81,1.1-1.78.91.02.96.99.96,1.72,0,.77-.03,1.76-1.06,1.76-.97,0-.81-1.04-1.01-1.69Z"/>
      <path class="cls-71" d="m239.77,49.04c-.06.68-.02,1.64-.95,1.66-1.04.02-1.01-.99-1.03-1.76-.02-.75.06-1.69.96-1.71,1.03-.02.99.98,1.03,1.81Z"/>
      <path class="cls-14" d="m238.81,42.7c.42.08.96-.16,1.02.33.07.59-.51.5-.9.55-.88.11-1.68.42-2.39.97-.23.18-.55.23-.75-.02-.22-.28.02-.52.21-.7.8-.78,1.82-1.01,2.8-1.13Z"/>
      <path class="cls-76" d="m248.39,42.72c.95.09,1.77.33,2.47.87.29.22.84.47.51.94-.27.38-.65,0-.96-.16-.64-.36-1.27-.71-2.02-.79-.41-.04-1.08.16-.99-.53.07-.54.69-.21.99-.33Z"/>
      <path class="cls-67" d="m156.4,185.07c-1.28-5.19-2.57-10.37-3.86-15.56-.17-.67-.3-1.35-.54-1.99-1.65-4.49-1.07-8.91.35-13.31.18-.56.29-1.15.43-1.72-.03-1.27.39-2.39,1.15-3.39.95-1.98,1.94-3.94,2.84-5.94.44-.98,1.14-1.33,2.13-1.39.54-.03,1.09-.14,1.61-.28,1.5-.41,2.42-1.33,2.27-2.85-.53-5.18,1.66-9.64,3.51-14.2,2.32-5.24,5.04-10.26,8.14-15.07,1.14-1.76,2.3-3.52,3.8-5.02.54-.54,1.13-.93,1.91-.95.42-.32.74-.13,1.03.2,1.02.44,2.04.88,3.06,1.31.39.79-.15,1.41-.42,2.05-.87,2.12-1.68,4.26-2.52,6.39-.25.63-.53,1.27-.47,1.99-.37,1.31-1.35,2.27-1.95,3.45-1.12,2.21-1.98,4.53-3.07,6.75-3.16,6.42-6.96,12.47-10.73,18.54-1.95,3.54-4.4,6.76-6.52,10.19-.86,1.39-1.49,2.84-1.72,4.45-.33,2.27-.57,4.54-.59,6.84-.06,5.13.06,10.26.28,15.39.03.64.18,1.27.21,1.91.04.76.25,1.56-.34,2.23Z"/>
      <path class="cls-67" d="m214.32,174.6c-.17.17-.33.34-.5.5-1.25.24-1.78.86-1.14,2.12-.07.76-.65,1.14-1.24,1.33-1.7.54-3.44.98-5.25.66-.75-.53-1.02-1.38-1.41-2.15-2.24-4.42-4.06-9.02-5.92-13.6-1.91-5.08-3.57-10.23-4.26-15.64-.76-5.93.05-11.72,1.73-17.4,1.01-3.4,2.52-6.6,3.91-9.85.18-.42.4-.83.75-1.14,1.54-1.34,2.38-3.23,3.67-4.77,1-1.2,2.05-2.34,3.17-3.43.49-.47,1.04-.74,1.74-.6,2.49.48,4.83,1.42,7.14,2.44.39.17.65.5.9.83.04.08.06.17.07.26-2.26-.01-4.5,0-6.45,1.42-1.99,1.45-3.02,3.49-3.2,5.85-.23,3.06-.33,6.19.59,9.15,1.12,3.62,3.32,6.51,6.94,8.05.96.41,2.01.63,2.69,1.54.4.59.28,1.22.17,1.86-.68,4.02-1.54,7.99-2.88,11.84-.46,1.32-.94,2.64-1.33,3.99-.18.63-.26,1.26.31,1.76.73.65.83,1.46.64,2.36-.48,1.41-.31,1.96.94,2.97.67,1.59,2.01,2.78,2.65,4.39-1.34,1.87-2.74,3.68-4.42,5.26Z"/>
      <path class="cls-41" d="m187.05,102.51c.41-.23.4-.5.18-.89-1.84-3.16-1.59-6.47-.59-9.8.24-.8.35-1.32-.52-1.91-2.24-1.52-1.64-5.96,1-7.56.89-.54,1.69.24,1.75.97.15,1.8,1.36,1.86,2.62,1.88.81.01,1.63-.16,2.44-.26.65.4,1.15.04,1.72-.27,1.19-.64,1.74-.31,1.92,1.13.3-.9-.5-1.3-.65-1.94,2.76-1.25,5.3-2.85,7.68-4.72,1.51-1.18,3.17-1.09,4.79.23.64.52,1.33.97,1.97,1.48,1.18.95,1.88,2.19,1.48,3.73-.97,3.77-1.77,7.55-1.86,11.46-.02.71-.34,1.42-.48,2.14-.04.21-.02.52.11.64.27.25.5-.02.69-.21.38-.38.92-.58,1.21-1.1.21-.38.5-.78,1.1-.5.53.25.72.62.74,1.19.12,2.9-3.45,5.52-6.28,4.5-.47-.17-.73-.21-1.04.15-1.52,1.75-3.42,3.01-5.4,4.17-.6.37-.98,1.07-1.76,1.17-.35-.09-.7-.24-1.07-.22-2.74.16-5.19-.73-7.52-2.05-1.55-.96-2.96-2.1-4.23-3.41Z"/>
      <path class="cls-50" d="m200.03,108.15c.25-.78.77-1.16,1.59-1.13.26.73.59,1.44.77,2.19.18.79.46,1.37,1.37,1.44.9.07,1.71.07,2.16-.95.33-.75.79-1.44,1.24-2.13,1.08-1.68,1.87-2.02,3.8-1.59,1.95.45,3.69,1.36,5.15,2.73,1.52,1.42,1.61,3.3,1.48,5.21-2.48-1.18-5-2.22-7.69-2.85-.84-.2-1.35-.07-1.95.51-2.24,2.14-4.05,4.6-5.79,7.14-.18.27-.18,1-.87.65-.23-1.14.51-1.99.9-2.95.38-.93,1.36-1.92,1.06-2.74-.39-1.08-1.77-.28-2.69-.51-.4-.1-.83-.09-1.07-.51-.35-1.56-.27-3.08.53-4.5Z"/>
      <path class="cls-22" d="m187.05,102.51c.61-.05.96.35,1.36.72.88.82,1.81,1.59,2.72,2.38.33,1.52,0,2.96-.59,4.35-.34.36-.76.31-1.14.15-1.16-.46-2.15-.05-3.09.56-1.68,1.09-3.36,2.19-4.58,3.84-.27.36-.58.72-1.09.74-.49-.97.24-1.73.53-2.52.96-2.64,2.05-5.24,3.08-7.86.49-1.31,1.44-2.1,2.8-2.38Z"/>
      <path class="cls-4" d="m196.91,83.87c1.16.53.92,1.51.81,2.54-.48-.57-.03-1.54-.89-1.75-.68-.17-1.24.25-1.74.63-.59.46-.89.16-1.16-.35,1.14.05,1.96-.81,2.99-1.08Z"/>
      <path class="cls-74" d="m120.29,104.34c2.34-.43,4.71-.75,6.74-2.14-.12,1.92-1.26,3.6-2.65,3.96-1.61.41-3.12-.24-4.09-1.81Z"/>
      <path class="cls-69" d="m115.71,93.58c.49.69,1.14,1.3,1.19,2.22.03.6,0,1.3-.65,1.49-.7.21-1-.41-1.26-.96-.32-.7-.23-1.42-.16-2.14.14-.73.29-.84.88-.61Z"/>
      <path class="cls-38" d="m125.25,93.11c.06-.64.07-1.46.79-1.43,1.09.04,1.24,1.08,1.34,1.93.07.62,0,1.52-.82,1.45-1.06-.09-1.12-1.15-1.31-1.95Z"/>
      <path class="cls-10" d="m116,90.07c-.09.07-.2.25-.36.29-1.03.3-1.93.8-2.61,1.67-.14.18-.4.21-.61.04-.18-.14-.12-.33-.07-.5.23-.79,2.47-2.16,3.26-2,.22.05.46.1.39.5Z"/>
      <path class="cls-25" d="m127.36,88.52c-.09.42-.34.64-.68.43-.93-.55-1.93-.46-2.93-.41-.28.01-.59,0-.6-.36,0-.14.15-.33.28-.41.62-.38,3.2-.05,3.7.46.09.09.17.2.24.29Z"/>
      <path class="cls-16" d="m128.9,91.48c-.63,1-1,1.25-1.73.35-1.16-1.44-1.62-1.33-2.34.27-.15-.96.03-1.51.6-1.78.71-.34,1.13.18,1.53.59.5.51.85,1.26,1.94.57Z"/>
      <path class="cls-57" d="m115.71,93.58c-.45-.02-.63.34-.88.61-.3.2-.37.52-.41.83-.14,1.03-.67,1.01-1.53.48.95-.07,1.22-.62,1.35-1.38.09-.52.31-1.1.95-1.22.75-.13,1.16.34,1.53.95-.47.2-.68-.24-1.01-.28Z"/>
      <path class="cls-34" d="m356.64,330.96c3.57,1.51,6.87.81,10.18.06-.22,2-1.31,2.92-3.61,3-1.37.05-2.76-.07-4.13.04-1.11.09-1.72-.25-1.9-1.38-.08-.49-.29-.95-.54-1.71Z"/>
      <path class="cls-34" d="m368.43,338.37c-3.83-.91-7.42-.75-10.86,1.36,1.82-3.92,7.72-3.9,10.86-1.36Z"/>
      <path class="cls-22" d="m339.28,215.71c1.66-1.29,3.32-2.58,4.98-3.87.37,2.21.69,4.42.56,6.68-.13,2.18-.88,4.09-2.25,5.78-.43.54-.73.56-.86-.16-.54-2.88-1.75-5.57-2.43-8.42Z"/>
      <path class="cls-23" d="m156.4,185.07c-.35-6.41-.67-12.81-.56-19.23.04-2.48.31-4.93.59-7.38.27-2.37,1.67-4.23,2.89-6.15,1.83-2.9,3.74-5.76,5.62-8.63.24.18.34.43.38.71.57,3.43,1.37,6.83,1.43,10.33.08,4.95.64,9.87.63,14.82-.05.59-.23,1.11-.79,1.42-1.22,1.63-1.84,3.57-2.59,5.41-1.93,4.78-3.51,9.69-4.72,14.71-.64-1.1-1.3-2.2-1.93-3.31-.47-.84-.91-1.7-.94-2.69Z"/>
      <path class="cls-32" d="m153.94,149.09c-.24,1.18-.71,2.29-1.15,3.4-1.42-1.91-1.26-2.38,1.15-3.4Z"/>
      <path class="cls-12" d="m214.87,162.19c.08-.91.25-1.81-.79-2.4-.51-.29-.51-.89-.36-1.48.38-1.51.88-2.97,1.48-4.4.63-1.05,1.13-2.17,1.75-3.22.25-.42.37-.95.96-1.07,1.93-.02,1.9-.02,2.17-1.89.18-1.23.17-2.46.21-3.7.02-.56-.11-1.23.64-1.5,3.18,2.71,5.47,6.16,7.94,9.46.23.3.34.59-.09.77-.79.33-.88,1.1-1.18,1.76-1.59,3.52-3.49,6.86-5.76,9.99-.94.38-1.78-.1-2.64-.35-1-.29-2-.63-2.97-1-.53-.2-1.12-.34-1.36-.95Z"/>
      <path class="cls-29" d="m216.27,162.81c1.86.56,3.71,1.12,5.57,1.68-.77,1.79-2.07,3.24-3.1,4.85-1.15-1.34-2.4-2.62-2.82-4.43-.46-.8-.27-1.49.35-2.1Z"/>
      <path class="cls-36" d="m217.7,149.81c-.68,1.46-1.27,2.97-2.5,4.09,1.17-3.98,2.24-7.98,2.85-12.09.08-.54.13-1.09.19-1.63.58.17,1.03.52,1.37,1.02.18.37.32.75.25,1.18-.33,2.15-.61,4.31-1.41,6.35-.17.43-.33.85-.76,1.09Z"/>
      <path class="cls-66" d="m217.7,149.81c1.04-2.78,1.61-5.67,1.91-8.62.55.33.99.77,1.31,1.32-.45,1.91-.23,3.87-.45,5.8-.21,1.85-.17,1.92-1.98,1.7-.27-.03-.53-.13-.79-.2Z"/>
      <path class="cls-59" d="m167.14,169.87c-.08-.35-.21-.71-.22-1.06-.21-4.71-.36-9.43-.6-14.14-.15-2.92-.46-5.83-1.2-8.67-.2-.78-.12-1.55-.18-2.32,3.82-6.24,7.8-12.4,10.88-19.05,1.48-3.19,2.77-6.47,4.83-9.36,1.51-1.96,3.29-3.62,5.44-4.87,1.37-.8,2.7-1.25,4.17-.31.41.27.23.65.18,1-.38,2.62.92,4.35,3.54,4.32,2.23-.02,4.37-.6,5.75-2.64,1.18.03,2.37.11,3.55.07.88-.03.88.28.57.94-.87,1.85-1.7,3.72-2.54,5.58-4.18,8.4-7.17,17.1-6.53,26.66.32,4.74,1.66,9.28,3.17,13.76.42,1.26.82,2.52,1.24,3.78-.22,2.49-1.12,4.84-1.53,7.29-.04.26-.25.48-.48.64-2.38,1.1-4.97,1.17-7.5,1.52-5.11.7-10.22.41-15.29-.51-.89-.16-1.83-.23-2.53-.93l-.58-.23c-1.58.09-2.96-.43-4.14-1.47Z"/>
      <path class="cls-43" d="m171.86,171.57c4.62,1,9.28,1.59,14.02,1.34,3.84-.2,7.64-.73,11.37-1.66.54-.1.83.3,1.16.6,2.09,1.95,3.66,4.32,5.23,6.68.22.33.46.71.2,1.14-1.01.74-2.23.77-3.38,1.06-.92.23-1.82.51-2.93.83,1.33.29,2.39-.12,3.48-.13.44,0,1.05-.08,1.15.48.08.44-.48.6-.82.81-.84.52-1.86.73-2.8,1.56,1.21.29,2.16-.18,3.13-.18.36,0,.72-.15,1.09-.09.55.09.73.37.36.85-.34.44-.8.76-1.26,1.06-.84.53-.77.97.07,1.39,1.47,4.28,2.54,8.67,3.26,13.14.25,1.53.3,3.1.3,4.65,0,3.99.44,7.95.59,11.92.04,1.16-.37,1.37-1.47,1.48-3.37.36-6.77.27-10.14.38-2.44.08-4.94-.13-7.41-.13-3.07,0-6.14-.09-9.2-.27-.76-.05-1.05-.32-1.14-1.02-.32-2.35-.67-4.69-1-7.04-.31-2.21-.59-4.43-.89-6.64-.21-1.53-1.27-2.64-2.1-3.8-1.74-2.44-2.73-5.02-2.54-8.04.16-2.37-.24-4.71-.1-7.11.27-4.48.73-8.91,1.76-13.27Z"/>
      <path class="cls-70" d="m201.93,187.3s-.09,0-.14-.01c-.47-.1-1.19.31-1.38-.21-.21-.58.51-.88.91-1.22.59-.49,1.22-.93,2.14-1.61-1.78.22-3.19.4-4.61.55-.33.03-.83.19-.96-.25-.13-.42.33-.63.63-.79,1.12-.61,2.26-1.17,3.62-1.87-1.9-.26-3.61.54-5.53-.19,2.42-1.3,4.95-1.36,7.24-2.17.66-.59,1.43-.68,2.25-.47,2.27-.37,4.75.03,6.6-1.83,1.82,1.34,3.89,2.28,5.82,3.43-1.31,1.29-2.92,2.21-4.09,3.73-1.05,1.38-2.95,1.45-4.51,2.04-.82.09-1.58.31-2.22.86-.83.2-1.2.96-1.78,1.46-.67.58-1.32,1.17-2.31,1,0,0,0,.01,0,.01-.15-1.02.86-1.64.91-2.7-.8.04-1.58.16-2.36.2-.08,0-.16.01-.23.05Z"/>
      <path class="cls-43" d="m167.14,169.87c1.38.49,2.76.98,4.14,1.47-1.96,7.23-2.15,14.6-1.75,22.12-.71-.54-.96-1.33-1.21-2.05-1.61-4.65-2.84-9.38-2.51-14.36.13-2.04.51-4.07.77-6.1.08-.42.24-.79.56-1.08Z"/>
      <path class="cls-43" d="m202.15,187.25c.94-.28,1.89-.56,3.02-.9-.2,1.43-1.03,2.36-1.57,3.41-.81-.64-.28-2.07-1.45-2.5Z"/>
      <path class="cls-55" d="m206.09,179.06c-.72.32-1.49.36-2.25.47-1.87-3.01-3.83-5.96-6.58-8.27.52-2.59.83-5.24,1.93-7.69,1.27,2.93,2.51,5.87,3.8,8.79,1,2.25,2.07,4.48,3.1,6.71Z"/>
      <path class="cls-65" d="m216.27,162.81c-.12.7-.23,1.4-.35,2.1-1.3-.42-1.78-1.65-1.05-2.73.47.21.94.42,1.4.63Z"/>
      <path class="cls-9" d="m199.73,112.77c.06.97-.49,1.48-1.32,1.85-1.43.64-2.88,1.22-4.48,1.17-2.89-.09-4.48-2.14-3.84-4.9.06-.27.11-.54.17-.8.29-1.49.59-2.98.88-4.47,1.34.05,2.25,1.13,3.51,1.45,1.39.35,2.76.55,4.19.5.48-.02,1.06-.15,1.2.58-.03,1.55-.51,3.06-.3,4.62Z"/>
      <path class="cls-20" d="m193.25,95.87c2.13,1.46,4.14,2.61,6.68,3.19-1.56,1.05-2.96,1.81-4.62,1.05-1.66-.76-2.17-2.23-2.06-4.24Z"/>
      <path class="cls-49" d="m196.96,86.11c-.04,1.12-1.03,2.41-1.73,2.34-.56-.05-.73-.46-.73-.97,0-.92.97-2.21,1.7-2.24.73-.03.76.49.77.87Z"/>
      <path class="cls-63" d="m206.42,91.26c.02.97-.88,2.2-1.64,2.25-.62.04-.77-.38-.79-.87-.05-.98.97-2.36,1.74-2.33.63.02.67.49.7.96Z"/>
      <path class="cls-39" d="m206.67,85.77c.72-.03,2.67,2.18,2.61,2.94-.02.2-.09.34-.29.41-.27.09-.45-.06-.54-.28-.39-.97-1.06-1.67-1.93-2.22-.2-.13-.34-.3-.26-.56.06-.19.2-.29.41-.28Z"/>
      <path class="cls-7" d="m208.28,92.28c-1.19.33-1.51-.06-1.41-1.05.1-1.03-.13-1.88-1.57-1.56.62-.63.95-.77,1.35-.6.66.29.78.93.71,1.5-.09.77-.03,1.38.92,1.7Z"/>
    </g>
  </g>
</svg>