<?xml version="1.0" encoding="UTF-8"?>
<svg id="Calque_2" data-name="Calque 2" xmlns="http://www.w3.org/2000/svg" viewBox="0 0 122.1 93.07">
  <defs>
    <style>
      .cls-1 {
        fill: #c6368b;
      }

      .cls-1, .cls-2, .cls-3, .cls-4, .cls-5, .cls-6, .cls-7, .cls-8, .cls-9, .cls-10, .cls-11, .cls-12, .cls-13, .cls-14, .cls-15, .cls-16 {
        stroke-width: 0px;
      }

      .cls-2 {
        fill: #100607;
      }

      .cls-3 {
        fill: #f17221;
      }

      .cls-4 {
        fill: #31308e;
      }

      .cls-5 {
        fill: #e613c2;
      }

      .cls-6 {
        fill: #f4a32b;
      }

      .cls-7 {
        fill: #d17334;
      }

      .cls-8 {
        fill: #fbb51a;
      }

      .cls-9 {
        fill: #ba186d;
      }

      .cls-10 {
        fill: #316dd0;
      }

      .cls-11 {
        fill: #f69e37;
      }

      .cls-12 {
        fill: #060304;
      }

      .cls-13 {
        fill: #170909;
      }

      .cls-14 {
        fill: #ec5b1e;
      }

      .cls-15 {
        fill: #191919;
      }

      .cls-16 {
        fill: #f3852f;
      }
    </style>
  </defs>
  <g id="Calque_1-2" data-name="Calque 1">
    <g>
      <path class="cls-2" d="m80.41,61.07c.07,1.02.85,1.97.28,3.15-.19-.7-.5-1.23-1.19-1.38.18-.69.08-1.27-.66-1.58-.19-.19-.23-.43-.22-.69,0-.42.09-.88-.52-.98h0c0-.25-.13-.42-.35-.53l-.05-.02c-1.32-.94-2.74-.49-4.14-.29-.15.42.25.68.3,1.04,0,.63.34,1.02.93,1.2.1.24.28.39.54.43.32.03.41.31.57.51-.12.49-.13.94.2,1.41.23.33.62.77.11,1.22-.04.47-.08.93-.11,1.4v-.03s0,.06,0,.06c-.5.3-.16,1.04-.68,1.33-.47-.31.32-1.26-.66-1.32.17-.69-.54-1.04-.62-1.64-.05-.37-.22-.9-.65-.7-.46.21-.56.74-.1,1.18-.52.09-1.22.03-.78.93.05.11.09.35-.15.32-.11-.02-.2-.22-.29-.33-.56-1.49-1.09-.31-1.64.01-.41-.2-.81-.41-1.23-.58-1.29-.53-2.12-.2-2.63,1.03-.85-.02-1.71-.03-2.56-.05.2-.32.6-.53.57-1-.91-.05-1.8-.05-2.69-.15-.95-.1-1.43.28-1.53,1.21-.16.41-.32.81-.48,1.21-.03.14-.06.28-.09.43-.21.29-.41.59-.41.97.1.49.5.3.76.3,2.93,0,5.86,0,8.79-.02l-.07.03c-.34.92-.89,1.67-1.76,2.15-2.59-.01-5.19-.02-7.78-.04-.55,0-.89.14-1.01.75-.22,1.09-.51,2.17-.78,3.25-.09.38-.22.76-.27,1.15-.34,2.42-.78,4.85.2,7.24-.53,1.52-1.7,2.61-2.66,3.84-.31.4-.55-.12-.69-.34-.56-.9-1.08-1.83-1.62-2.75.38-1.05.68-2.12.57-3.26.03-2.11.11-4.23-.33-6.31-.06-.72-.14-1.43-.17-2.15-.04-1.08-.52-1.51-1.65-1.46-2.18.11-4.37.07-6.56.1-.65-.6-1.26-1.23-1.33-2.18,2.65,0,5.31.01,7.96-.01.29,0,1.04.34.68-.55.1-.9-.36-1.71-.45-2.57-.07-.72-.44-.97-1.07-.97-3.23.01-6.46.04-9.68.06-.52-.15-.67-.65-.94-1.03-.2-.28-.55-.61-.37-.94.19-.35.65-.18.99-.18,2.9-.02,5.8-.03,8.7-.04.49-.17,1.12.38,1.49-.32-.15-.39-.04-.85-.35-1.19.02-.21,0-.41-.19-.55-.06-.3-.13-.6-.19-.89,0-.4-.21-.7-.43-1-.41-.25-.86-.14-1.29-.14-3.08,0-6.16-.12-9.23.04-1.87.1-3.17-.35-3.79-2.19,4.16-.01,8.32-.02,12.48-.06.36,0,.84.29,1.07-.28.06-.45-.1-.86-.3-1.25-.05-.15-.1-.3-.16-.45-.17-.36,0-.88-.51-1.08.22-.14.13-.25-.04-.34-.02-.66-.51-.62-.95-.62-4.68,0-9.35.01-14.03.02-.59-.54-.99-1.19-1.33-2,.41-.03.72-.07,1.03-.07,4.46,0,8.92,0,13.38-.02.33,0,.94.37.91-.45-.02-.22-.04-.44-.06-.66.45-.18.28-.46.17-.78-.28-.85-.35-1.8-.04-2.58.23-.59.96.16,1.5-.02.47-.16.92-.64,1.46-.34.98.55,2.03.37,3.05.33,1.08-.04,2.13-.36,3.21.18.73.36,1.5.28,2.3-.07.62-.27,1.33-.46,1.17-1.23-.16-.79-.97-.97-1.65-.86-1.13.18-2.31-.13-3.4.48-.39.22-.95.2-1.27-.32.88-.04,1.71-.33,2.6-.36.64-.02-.07-.32-.02-.49.63-.58,1.3.07,1.88.01.44-.57-.72-.49-.3-1.01.6.48,1.54-.02,2.07.71.09.12.22-.01.24-.12.23-.98.49.02.74-.02l.21.25c-.09.74.18,1.03.98.99,1.27-.07,2.56,0,3.83,0,.37.55.63,1.24.75,1.81.28,1.37.64,2.84-.24,4.17-.15-.66-.17-1.38-.7-1.9-.17-.3.09-.46.21-.68.35-.45-.09-.6-.33-.8-.59-.51-1.31-.39-2-.41.15-.33.39-.69-.24-.77-.28-.04-.56-.08-.72-.36-.18-.33-.38-.66-.83-.46-.38.18-.65.5-.66.93-.02.91-.2,1.84.21,2.72l-.03.07c-.24-.01-.49-.02-.73-.03.06-1-.8-1.1-1.42-1.44-.82-.34-1.46.17-2.14.47.16-.94-.44-.21-.62-.24-.79-.13-1.23-.95-2.14-.89-1.46.1-2.94.01-4.41.03-2.28.03-2.28.04-1.27,2.1v-.03c-.03.29.06.53.28.72.12.4.25.81.37,1.21,1.75.31,3.48.28,5.5-.07-.47-.23-.65-.32-.82-.4l-.12-.17.1-.06c1.77-.44,3.56-.44,5.34-.05,1.05.23,2.07.57,3.11.84.22.06.49.15.63-.13.11-.23-.24-.39-.24-.43.14-.93-1.24-.6-1.17-1.43.76-.62.77-1.96,2.02-2.11.23.87.92,1.46,1.35,2.2l.24.18c0,.22.02.44.23.58l.04.1c.2.43.13,1.08.87,1.07.18.51.26.96-.17,1.44-.27.3-.65.78-.38,1.16.24.35.74.61,1.28.34.12-.06.34-.04.45.03,1.11.68,1.33-.15,1.47-.92.08-.46.15-.73.69-.72,1.07.02,1.18-.44.78-1.36-.36-.83.23-2.17.59-2.19,2.02-.1,2.38-2.2,3.9-2.75.65,1.47,1.17,0,1.93-.17-.6-.41-1.19-.59-1.25-1.26,4.45.02,8.91.04,13.36.05-.15.97-.96,1.51-1.47,2.25-2.43,0-4.86,0-7.28-.02-1.26-.02-2.53-.15-3.84.63,1.55.59,3.05.72,4.57.73.1.63.59.66,1.07.71l.26.25c-.02.23.14.57-.13.65-.81.23-1.5.88-2.43.65-.44-.11-.77.16-1.13.33,0,.11.02.22.03.33h5.57c-.53.67-1.06,1.35-1.58,2.02-.5-.16-1.02-.17-1.53-.08-.64.1-1.1.27-.66,1.12.07.14.67.77.07,1.18l-.06-.07-.03-.08.07.15-.15.12c-.4.07-.8.13-1.21.2.09-.78-.71-.64-1.06-.95-.08-.07-.57.29-.96.25-.31-.03.67-1.08-.39-.43-.31.19-.06-.67-.57-.72-.4,0,.25.9-.47.64-.24-.09-.46-.46-.6.05-.07.25-.11.56.25.7.47.18.79.67,1.34.69l1.34.92-.08.17.07.07c1.15.27,1.22.31,1.18.62-.07.16-.15.32-.22.48h0c.3.43.59.87.89,1.31.16.18.31.36.47.54.06.62.38,1.1.81,1.52Zm-11.85,1.96l-.07.02c.54.05.8-.17.72-.73-.06-.42-.12-.83-.19-1.25v-.17c-.07-.41-.22-.75-.64-.91,0-.26-.16-.55.17-.73.15-.18.19-.37-.03-.5-.26-.15-.44,0-.58.23-.37.61-.11,1.23-.07,1.85l.02.06-.05.05c-.33.48-.22,1.02-.21,1.55,0,.11,0,.22,0,.33.2.57.52.59.93.2Zm3.35-3.7c-.3-.36-.56-.88-1.13-.63-.38.17-.23.53-.04.81-.07,1.19.82,1.99,1.23,2.98-.03.49.06,1.03.52,1.16.42.12.32-.38.36-.66l.14-.15c.58-.55.33-.81-.32-.94l-.04-.21c.63-.74.7-1.37-.28-1.89-.19-.1-.31-.35-.46-.54l.02.06Zm-6.67.23c.14-.17.27-.34.41-.51-.45-1-1.32-.51-1.92-.39-.64.13-1.15.22-1.8-.02-1-.37-1.94.27-2.06,1.22-.47.48-.23,1.21-.74,1.77-.44.48.19,1.18.9,1.32.95.19.84-.76,1.3-1.07.23.09.47.18.7.28.06.58.4.72.96.82,1.24.22,1.49-.62,1.8-1.47.16-.09.23-.2.11-.36.2-.38.43-.76.01-1.14.11-.15.22-.29.34-.44Zm-12.72-.06c-.16.12-.32.24-.49.37-.51.31-.25.74-.18,1.14.1.22.19.43.29.65-.04.98.32,1.48,1.4,1.29.46-.08.95,0,1.43,0,2.08-.02,2.09-.03,2.03-2.04-.01-.38.36-1.46-.7-.49-.17.16-.13-.26-.21-.41.08-.16.16-.32.23-.48.46-.4.41-.68-.22-.7-.82-.02-1.66.13-2.47.03-.62-.07-.88.19-1.11.64Zm1.16-2.87c-.25-.01-.51-.02-.76-.03.1-.57.61-.89.86-1.37.14-.1.28-.21.43-.31.16-.12.33-.24.49-.36.1-.08.2-.16.3-.24h.01c.58-.27,1.17-.5,1.73-.79.3-.16.29-.5.14-.73-.18-.28-.47-.06-.62.06-.38.29-.7.64-1.03.96-.36-.33.45-1.16-.55-1.17-1.55-.01-3.11-.02-4.66-.03-.83,0-.7.42-.41.92l.09.24c.13.38.1.82.4,1.14.03.12.05.23.08.35.22.43.03,1.34.61,1.25.76-.12,1.44.33,2.16.1-.04,1.15-.61,1.6-1.77,1.5-.97-.09-1.95-.02-2.93-.02,0,.11.01.23.02.34.66.29,1.4.17,2.09.32,1.92.4,3.02-.36,3.34-2.1.08-.08.36-.02.2-.27l-.2.27Zm.26,12.06c-.05.3.07.46.38.46,1.2,0,2.4,0,3.6,0,.24,0,.34-.16.32-.4.26-.2.23-.5.28-.78.17-.1.25-.26.25-.46.2-.21.23-.47.24-.74.11-.16.24-.31.32-.49.51-1.13.43-1.24-.84-1.24-.96,0-1.91,0-2.87,0q-2.78,0-1.94,2.66l.05.22c-.02.28-.04.56.21.77Zm1.97,2.58c-1.45-.02-1.48.02-1.19,1.46.15.74.3,1.47.47,2.2.06.26.06.62.45.58.25-.03.41-.28.41-.52,0-.87.49-1.55.81-2.31.59-1.37.56-1.4-.95-1.42Zm8.91-14.68c.55,0,1.21.39,1.37-.57.04-.26.19-.77-.07-.73-.64.09-1.25.42-1.3,1.3Zm-6.68-.02c1.18-.11,1.24-.19,1.06-1.53-.36.52-.67.96-1.06,1.53Zm14.76-7.59c.33-.04.86.05.83-.4-.03-.42-.6-.45-.96-.54-.37-.09-.61.18-.6.54.01.5.46.3.73.4Zm-3.17,10.22l-.04.09.09.05.04-.09-.09-.05Z"/>
      <path class="cls-10" d="m37.59,66.72c-4.19-4.27-8.38-8.54-12.57-12.81-6.85-6.98-13.69-13.96-20.54-20.94-1.34-1.36-2.64-2.77-4.05-4.06-.83-.75-.29-.87.31-1.02,2.21-.53,4.43-1.04,6.64-1.56,1.48-.34,2.96-.67,4.43-1,.29,0,.45.09.63.39,1.78,2.91,3.6,5.8,5.42,8.69,3.98,6.31,7.96,12.62,11.97,18.91.2.31.29.91.93.74l.02.04c.11.33-.13.64.11,1.02,1.76,2.68,3.51,5.36,5.17,8.1.67,1.11,1.8,2.01,1.78,3.48h-.27Z"/>
      <path class="cls-4" d="m114.33,14.91c2.13.65,4.37.25,6.53.68.43.08,1.02,0,1.2.38.2.44-.34.75-.64,1.05-5.39,5.43-10.81,10.85-16.19,16.29-2.49,2.52-4.9,5.11-7.41,7.62-3.92,3.92-7.87,7.8-11.83,11.67-.74.72-1.21,1.71-2.19,2.17.06-.54.39-.96.7-1.37,1.8-2.29,3.62-4.56,5.42-6.85,2.56-3.25,5.21-6.43,7.62-9.78,2.68-3.73,5.64-7.24,8.38-10.93,2.74-3.69,5.6-7.28,8.41-10.92Z"/>
      <path class="cls-10" d="m74.74,66.02c.98.05.19,1,.66,1.31.53-.29.19-1.03.68-1.33v-.04c.03-.47.07-.93.11-1.39.61-1.31,1.4-2.49,2.64-3.31.74.31.84.89.66,1.58-2.2,4.29-4.4,8.57-6.59,12.86-2.77,5.43-5.52,10.88-8.28,16.31-.68,1.35-.7,1.36-1.78.26-1.51-1.53-3.01-3.09-4.51-4.63.04-.5.36-.86.65-1.24,2.18-2.77,4.38-5.52,6.53-8.31,3.09-4.01,6.14-8.06,9.21-12.09Z"/>
      <path class="cls-4" d="m16.53,15.37c-1.05-2.4-2.13-4.79-3.13-7.21-.5-1.21-.21-1.51,1.09-1.36,5.45.62,10.92,1.01,16.39,1.37.71.05,1.42.17,2.13.26-.11.24-.48.29-.48.62l-.02.02c-.57.26-1.05.63-1.4,1.15-.44.23-.77.56-1,.99-.39.4-.79.8-1.18,1.2-.33.26-.73.48-.66,1q-.97.31-1.43,1.31c-3.45.06-6.86.77-10.32.63Z"/>
      <path class="cls-10" d="m110.14,2.13l-3.13,6.44c-3.54.47-7.12.56-10.67.89-3.43.32-6.87.75-10.34.66-.73-.02-1.4.13-1.94.65-.11,0-.23.01-.34.02-.41-.11-.82-.21-1.23-.32-.32-.64-.86-1.08-1.37-1.55,2.97-.73,5.93-1.46,8.9-2.17,4.49-1.07,8.97-2.16,13.47-3.17,2.21-.5,4.35-1.27,6.63-1.43h.02Z"/>
      <path class="cls-11" d="m81.12,8.92c.51.47,1.06.91,1.37,1.55-.12.01-.24.03-.36.03-16.63,0-33.26,0-49.88,0-.4,0-.81.02-1.13-.29.35-.53.83-.89,1.4-1.15.26.56.77.48,1.24.48,14.36,0,28.71,0,43.07,0,.35,0,.78.14,1.1-.31-.49-.24-.93-.16-1.36-.16-3.28,0-6.56,0-9.84,0-11.4,0-22.79-.02-34.19-.03,0-.33.37-.38.48-.62.33-.24.65-.48.98-.72.39.6,1,.4,1.53.4,13.44,0,26.89,0,40.33-.01,1.09,0,2.18.41,3.27.02.08.08.02.35.27.2l-.27-.19c.17-.09.33-.19.5-.28.49.36.98.72,1.48,1.08Z"/>
      <path class="cls-9" d="m84.06,10.77c.54-.52,1.21-.67,1.94-.65,3.46.09,6.91-.34,10.34-.66,3.56-.33,7.13-.42,10.67-.89,3.14-.2,6.29-.4,9.43-.62.74-.05,1.47-.14,1.89.64.43.79-.09,1.34-.54,1.91-1.17,1.46-2.31,2.94-3.46,4.41-2.81,3.63-5.68,7.23-8.41,10.92-2.73,3.69-5.69,7.2-8.38,10.93-2.41,3.35-5.07,6.53-7.62,9.78-1.8,2.29-3.62,4.56-5.42,6.85-.32.4-.64.82-.7,1.37-.24.3-.47.6-.71.89-.88.28-1.12,1.1-1.51,1.79-.85.52-1.05,1.66-1.98,2.11-.16-.18-.31-.36-.47-.54.78-.91,1.62-1.76,2.32-2.73,3.43-4.76,7.17-9.29,10.72-13.95.43-.56.94-1.09.91-1.88l.24-.27c1.78-1.22,2.82-3.08,4.08-4.75.54-.71,1.58-1.19,1.45-2.34h0c.49.02.68-.39.91-.69,2.51-3.22,5-6.45,7.51-9.66,2.05-2.63,4.14-5.24,6.18-7.88,1.26-1.64,2.47-3.31,3.68-4.99.16-.23.47-.52.21-.86-.2-.25-.51-.21-.78-.16-3.12.49-6.27.17-9.42.56-2.98.37-6.02.78-9.06.67-.94.06-1.92-.31-2.79.33-.24.02-.48.02-.71.07-2.02.4-4.08-.1-6.14.37-1.36.31-2.92.48-4.36-.08Z"/>
      <path class="cls-4" d="m37.59,66.72h.27s-.02-.02-.02-.02c.17.21.33.41.5.62.84.56,1.33,1.44,1.85,2.25,3.14,4.94,6.24,9.91,9.34,14.87.64,1.03,1.51,1.94,1.81,3.17-.8,1.26-2.01,2.15-2.98,3.27-.51.59-.85.15-1.06-.33-.42-.95-.8-1.91-1.2-2.87-2.71-6.56-5.41-13.12-8.11-19.69-.17-.4-.26-.84-.39-1.26Z"/>
      <path class="cls-9" d="m51.33,87.61c-.31-1.22-1.17-2.13-1.81-3.17-3.1-4.96-6.2-9.93-9.34-14.87-.52-.81-1.01-1.68-1.85-2.25.05-.38-.05-.64-.5-.62h.02c.02-1.46-1.11-2.36-1.78-3.47-1.66-2.74-3.41-5.42-5.17-8.1-.25-.38,0-.69-.11-1.01,1.15.49,1.58,1.63,2.18,2.55,1.71,2.62,3.21,5.39,4.96,7.98,2.56,3.78,4.93,7.69,7.39,11.53,2.67,4.17,5.36,8.34,7.86,12.62.91,1.56,1.65,1.63,2.84.27,2.41-2.75,4.33-5.87,6.68-8.68,2.21-2.64,4.23-5.45,6.33-8.19,1.52-1.98,3.05-3.95,4.53-5.97.3-.4.81-1.05-.17-1.39-.46-.44-.36-.97.1-1.18.43-.2.6.33.65.7.08.6.79.94.62,1.64-3.07,4.04-6.12,8.08-9.21,12.1-2.15,2.79-4.35,5.54-6.53,8.31-.3.37-.61.73-.65,1.24-1.06.69-1.69,1.76-2.41,2.74-.94,1.26-1.86,1.27-2.7-.07-.59-.94-1.13-1.91-1.91-2.71Z"/>
      <path class="cls-6" d="m73.87,4.28c1.42.48,2.6,1.36,3.81,2.19-.28.19-.61.2-.93.2-.27-.43-.7-.49-1.15-.49-1.23,0-2.47,0-3.7,0-11.11,0-22.23,0-33.34.01-.46,0-1-.18-1.43.23.23.3.49.22.71.26,0,.16,0,.32,0,.47-.56-.02-1.12.4-1.69,0,.24-.31.26-.66.21-1.03.89-.72,1.9-1.23,2.91-1.76.34.48.85.37,1.32.37,10.68,0,21.36,0,32.04,0,.47,0,.99.1,1.25-.48Z"/>
      <path class="cls-9" d="m16.53,15.37c3.46.14,6.87-.57,10.32-.63v.07s-.05.03-.05.03c-.36.34-.46.9-.92,1.15-.39-.27-.84-.24-1.27-.21-5.09.34-10.19.67-15.28,1.03-.9.06-1.11.89-.54,1.79,1.15,1.8,2.33,3.59,3.4,5.45,1.41,2.47,3.08,4.78,4.58,7.19,2.14,3.42,4.28,6.86,6.55,10.21,1.99,2.95,3.85,5.99,5.68,9.04.68,1.14,1.73,2.12,1.77,3.59-.64.17-.73-.43-.93-.74-4.01-6.29-7.99-12.6-11.97-18.91-1.82-2.89-3.64-5.78-5.42-8.69-.18-.3-.34-.39-.63-.39.24-.45-.07-.72-.29-1.06-1.2-1.86-2.39-3.74-3.58-5.62-.93-1.49-.57-2.35,1.13-2.53,1.78-.18,3.58-.25,5.36-.38.71-.05,1.44-.02,2.09-.39Z"/>
      <path class="cls-8" d="m36.14,7.17c.57.39,1.13-.03,1.69-.01,12.4,0,24.8,0,37.2,0,1.19,0,2.39,0,3.58,0,.34.22.69.45,1.03.67-.17.09-.33.19-.5.28h0c-1.09.39-2.18-.02-3.27-.02-13.44.02-26.89.02-40.33.01-.53,0-1.15.2-1.53-.4.17-.1.34-.2.5-.31.31.05.63.25.94,0l.24-.21c.15,0,.31-.01.46-.02Z"/>
      <path class="cls-11" d="m71.01,2.9c.97.3,1.86.75,2.7,1.3-.4.02-.8.06-1.19.06-10.98,0-21.96,0-32.94,0,.96-.6,1.97-1.09,3.06-1.42.33.68.96.46,1.48.46,8.04.01,16.08,0,24.12.01.48,0,1-.07,1.42.1.69.28,1.06.06,1.35-.52Z"/>
      <path class="cls-11" d="m42.8,2.81c1.09-.54,2.22-.97,3.43-1.17.52.24,1.08.25,1.64.25,5.98,0,11.96,0,17.94,0,.47,0,.97.09,1.34-.33,1.24.32,2.45.7,3.6,1.27-9.32,0-18.63-.01-27.95-.02Z"/>
      <path class="cls-11" d="m78.61,7.17c-1.19,0-2.39,0-3.58,0-12.4,0-24.8,0-37.2,0,0-.16,0-.32,0-.47,12.97,0,25.94,0,38.91,0,.33,0,.65-.01.93-.2.34.19.72.33.93.69Z"/>
      <path class="cls-8" d="m39.58,4.27c10.98,0,21.96,0,32.94,0,.4,0,.8-.04,1.19-.06l.16.08c-.26.57-.78.48-1.25.48-10.68,0-21.36,0-32.04,0-.46,0-.98.11-1.32-.37.1-.04.21-.08.31-.12Z"/>
      <path class="cls-8" d="m42.8,2.81c9.32,0,18.63.01,27.95.02l.26.07c-.29.59-.66.8-1.35.52-.42-.17-.95-.1-1.42-.1-8.04,0-16.08,0-24.12-.01-.52,0-1.16.22-1.48-.46l.16-.04Z"/>
      <path class="cls-8" d="m67.15,1.55c-.37.42-.87.33-1.34.33-5.98,0-11.96,0-17.94,0-.56,0-1.12-.01-1.64-.25.55-.47,1.21-.19,1.82-.25,2.03-.02,4.18.37,6.08-.14,3.02-.81,5.95.07,8.91-.1,1.1-.06,2.34.2,3.52.21.22,0,.43.03.59.2Z"/>
      <path class="cls-6" d="m66.56,1.35c-1.18-.01-2.43-.28-3.52-.21-2.97.17-5.89-.71-8.91.1-1.9.51-4.05.13-6.08.14,1.18-.92,2.62-.78,3.98-.97,3.19,0,6.38,0,9.57,0,1.69.11,3.33.52,4.97.93Z"/>
      <path class="cls-7" d="m61.59.43c-3.19,0-6.38,0-9.57,0,3.19-.58,6.38-.54,9.57,0Z"/>
      <path class="cls-10" d="m79.6,59.55c.93-.45,1.12-1.59,1.98-2.11,0,.37,0,.74,0,1.11-.39.84-.78,1.68-1.16,2.52-.43-.42-.75-.9-.81-1.52Z"/>
      <path class="cls-4" d="m81.57,58.55c0-.37,0-.74,0-1.11.39-.7.63-1.51,1.51-1.79-.56.94-.66,2.12-1.51,2.9Z"/>
      <path class="cls-11" d="m35.45,7.4c-.31.26-.63.06-.94,0,.41-.29.82-.59,1.23-.88l.16-.09c.09-.21.27-.26.46-.29.04.37.03.72-.21,1.03-.15,0-.31.01-.46.02l-.24.21Z"/>
      <path class="cls-6" d="m35.89,6.43l-.16.09.16-.09Z"/>
      <polygon class="cls-10" points="110.13 2.14 110.16 2.09 110.14 2.13 110.13 2.14"/>
      <path class="cls-12" d="m52.96,44.21c.32.52.88.54,1.27.32,1.09-.6,2.28-.3,3.4-.48.68-.1,1.49.08,1.65.86.16.77-.55.96-1.17,1.23-.8.35-1.57.43-2.3.07-1.07-.54-2.13-.21-3.21-.18-1.02.04-2.07.22-3.05-.33-.54-.3-.99.18-1.46.34-.54.18-1.27-.57-1.5.02-.3.79-.24,1.73.04,2.58.11.32.28.6-.17.78-.12-.16-.24-.33-.36-.49-.05-.17-.1-.33-.15-.5,0-.13,0-.26,0-.39.08-1.95-.22-2.22-2.11-2.01-.35.04-.72.02-1.08.02-3.39,0-6.78.02-10.17,0-1.48-.01-3.04.36-4.29-.87-.11-.11-.38-.06-.58-.08l-.08-.11c.49-.5,1.06-.54,1.73-.47.74.08,1.56.42,2.2-.33.8,0,1.6,0,2.4,0,.44.73,1.08.26,1.62.22.33-.02.38-.49.25-.69-.76-1.17-.2-2.29.06-3.43.25-.07.41-.23.48-.48.39-.16.39-.32,0-.49-.08-.08-.02-.35-.27-.2l.27.2c0,.16,0,.32,0,.48-.24.08-.41.23-.48.48-.89-.66-.29-1.64-.51-2.44,0-.24,0-.48-.01-.72.04-.16.07-.31.11-.47l.21-.2c.07-.24.14-.47.21-.71.18-.25.1-.5-.01-.75v-.24c.38-.1.56-.4.72-.72.63-.42.28-.87-.01-1.35-.08.29-.15.58-.23.87-.25.07-.41.23-.48.47-.24,0-.48,0-.72,0,.02-.34.5-.57.23-.97,0-.39,0-.78-.46-.94l-.97.47c0-.4.13-.74.48-.96l.04.03-.03-.04c-.48-.92-.97.21-1.45,0-.4,0-.8,0-1.2,0-.5-.55-1.03-.77-1.75-.22.27.2.48.35.71.52-1.08.38-1.36,1.46-.65,2.36.52.23,1.08.42.99,1.17-.27.12-.41.27-.04.44.24.11.5.19.75.28-.16.16-.42.31-.45.49-.04.23.27.2.45.24h0c0,.16-.01.31-.02.47-.39,0-.79.01-1.18.02-.5.15-.49.7-.78,1.02-.19.21-.62.41-.36.77.32.44.61-.1.93-.12.05.15.11.3.16.45v.23c-.5.7-1.39,1.36-.23,2.23-.06.22-.28.41-.17.68-.36.18-.71.35-1.07.53-.14-.18-.28-.35-.41-.53.07-.31.21-.73-.14-.87-1.06-.43-.78-1.3-.8-2.09-.02-.72-.05-1.44-.08-2.16.37-.58.69-1.16.17-1.83-.46.06-.2.8-.75.78-.2-.61-.9-1-.81-1.74.18-.27.44-.64.22-.86-.25-.26-.41.21-.62.33-.02-.29-.05-.58-.07-.87.07-.11.14-.22.21-.33.34-.46.68-.93,1.03-1.4-.47-.26-.86.34-1.44-.18,1-.13.87-1.44,1.95-1.42.09,0-.13-.29-.3-.37-.66-.64-1.3-.66-1.93.05-.71.63-1.74.69-2.42,1.37l-.19.1c-.4-.16-.78-.86-1.23-.07-.27.32-.53.65-.82.99-.3-.47.28-.85.03-1.26-.37.13-.73.26-1.09.39-.13-.92.45-1.64.71-2.45.66.18,1.08-.4,1.65-.52.8-.37,1.87-.45,1.91-1.69.14-.14.27-.27.41-.41,1.4-.55,2.89-.49,4.16.12.96.46,1.86.56,2.83.53.4,0,1,.2,1.11-.38.1-.53-.52-.61-.86-.83l-.03-.18c.64-1.08,1.62-.49,2.48-.52h0c0,.32,0,.64,0,.96-.45.31-.81.68-.91,1.24.37-.36,1.77.02.91-1.24.25-.01.49-.02.74-.04l.2.03c.41.56.46.12.47-.19.02-.57-.21-1.15.03-1.72.63.04,1.42-.26,1.84.26.72.89,1.62.69,2.51.69.24,0,.66.11.64-.3-.01-.32-.41-.32-.67-.4h-.01c.29-.78.59-1.47,1.27-.25.12.21.43.32.66.48.15,0,.3,0,.45,0l.06.19c-.02.3-.41.49-.25.85.4.04.57-.2.69-.51l.21-.06c.35,0,.63-.1.72-.48h.01c.48,0,.97,0,1.45,0,.07.26.23.42.49.48,1.24-.17,2.14.81,3.29.97l.08.06c.11.36.39.44.73.42,1.05-.18,2.06.25,3.09.23.43.26.91.28,1.39.3.78.39,1.55.79,2.33,1.18l.13.26c-.04.11-.07.32-.11.32-1.19.05-2.4.23-3.56.06-1.14-.16-1.55.37-1.85,1.25-.16-.01-.32-.02-.48-.03.63-1.16-.6-.94-.98-1.38-.53-.61-.64-.56-1.39-.12-1.09.64-1.41.72-.46,1.85.48.57.77.98,1.51.95.23-.01.53-.08.61.2.1.34-.21.58-.46.58-1.99.05-3.63,1.98-5.79,1.08-.17-.15-.34-.31-.51-.46.1-.81-.44-1.16-1.07-1.38-.65-.23-.77.36-1.02.75-.33.52-.89.77-1.44.69-.62-.09-1.16.2-1.75.15-.34-.03-.49.17-.36.41.41.74.04,1.49.13,2.23-.42.06-.74.18-.57.73.45-.09.4-.5.58-.72.32.48.26.99.08,1.49-.18.48.02.67.48.7.04.13.09.27.13.41-.66.58-.46,1.5-.83,2.2-.09.17.02.39.22.51,1.14.72.74,1.54.16,2.38-.06-.54.13-1.12-.3-1.86-.2.85-.41,1.43.29,1.86-.06.43-.73.8-.21,1.26.41.37.88.08,1.31-.12.24-.11.53-.11.8-.17l.26.04c.23.46.48.47.72.01.8,0,1.6,0,2.4,0,.66.47,1.27.62,1.67-.31.14-.32.41-.44.74-.46.04.58.35,1.03.91,1.13,1.64.29,3.28.43,4.85-.34.56,0,1.12,0,1.69,0Zm-10.32-13.28h-.01s.17.09.17.09l-.16-.09Zm-6.25,6.97c.08.08.02.35.27.2l-.27-.2c0-.16,0-.32,0-.47.08-.08.35-.02.2-.27l-.2.27c-.39.16-.39.33,0,.49Zm-5.91-8.9c-.62.03-1.15-.2-1.56.25-.13.14,0,.32.15.37.55.19.99.04,1.41-.62Zm16.92-1.45c.2-.24.77-.08.73-.6-.01-.19-.22-.36-.43-.35-.37.01-.56.28-.65.61-.06.23.05.39.35.34Zm-4.38,17.79c-.82-.31-1.4-.31-2.25.03.86.26,1.44.29,2.25-.03Zm-11.35.05c.77.23,1.26.22,1.73-.04-.51-.27-1-.35-1.73.04Zm21.24-.12c-.73-.19-1.16-.23-1.81.11.71.22,1.14.28,1.81-.11Zm-17.86-.06l-.12.15.16.1.12-.14-.17-.11Zm.31-13.86l-.26-.12-.05.2.24.16c.02-.07.04-.14.07-.25Z"/>
      <path class="cls-5" d="m30.76,54.07c-.04-1.46-1.08-2.45-1.77-3.59-1.84-3.05-3.69-6.09-5.68-9.04-2.27-3.35-4.41-6.79-6.55-10.21-1.5-2.41-3.17-4.72-4.58-7.19-1.06-1.86-2.25-3.64-3.4-5.45-.57-.9-.36-1.73.54-1.79,5.09-.36,10.19-.69,15.28-1.03.43-.03.88-.06,1.27.21-.03.1-.06.21-.09.31-.8.28-1.65-.04-2.43.11-2.65.5-5.32.82-8.02.85-1.36.01-2.72.04-4.07.05-.53,0-.95.22-1.18.68-.25.48-.06.89.25,1.32.64.9,1.39,1.79,1.76,2.8.79,2.13,2.36,3.75,3.48,5.65,1.8,3.06,3.77,6.02,5.67,9.02,1.84,2.9,3.52,5.92,5.62,8.67.59.77.9,1.77,1.78,2.32.11.22.21.44.32.66.74,2.26,2.38,3.98,3.54,5.99.44.76.89,1.5,1.36,2.24,1.71,2.72,3.43,5.43,5.15,8.14.29.46.48,1.05,1.19,1.02.33.45,1,.65.96,1.36-.13,1.04.46,1.82.98,2.62,2.22,3.42,4.61,6.75,6.62,10.3,1.47,2.6,3.28,4.98,4.69,7.62.88,1.66,1.01,1.59,2.27.21.08-.09.21-.15.26-.25.43-.88,1.57-1.24,1.84-2.09.31-.99.98-1.58,1.56-2.33.75-.97,1.68-1.84,2.3-2.88,1.43-2.4,3.47-4.34,4.95-6.69.99-1.57,2.41-2.84,3.14-4.59.09-.14.17-.28.26-.42.59-.14.87-.66,1.24-1.06.42-.55.2-1.42.88-1.85.1.12.18.32.29.33.24.03.2-.2.15-.32-.44-.9.26-.84.78-.93.99.34.47.98.17,1.39-1.48,2.01-3.01,3.99-4.53,5.97-2.1,2.74-4.11,5.54-6.33,8.19-2.35,2.81-4.28,5.92-6.68,8.68-1.19,1.36-1.92,1.29-2.84-.27-2.5-4.28-5.19-8.45-7.86-12.62-2.46-3.84-4.83-7.75-7.39-11.53-1.76-2.59-3.25-5.36-4.96-7.98-.6-.92-1.04-2.06-2.18-2.55l-.02-.04Z"/>
      <path class="cls-12" d="m74.89,44.1c.06.67.65.85,1.24,1.26-.76.16-1.28,1.63-1.93.17-1.52.55-1.88,2.65-3.9,2.75-.36.02-.94,1.36-.59,2.19.4.93.29,1.39-.78,1.36-.53-.01-.61.26-.69.72-.13.77-.36,1.6-1.47.92-.12-.07-.33-.09-.45-.03-.54.26-1.03,0-1.28-.34-.26-.38.11-.86.38-1.16.43-.48.35-.93.17-1.44.03-.12.07-.23.1-.35.88-1.34.52-2.81.24-4.17-.11-.57-.37-1.26-.75-1.81.1-.03.2-.05.3-.08.1-.07.23-.21.29-.19,1.27.48,1.39-.28,1.35-1.23,0-.15.02-.32.3-.39.26.31.13.72.19,1.08.03.2.05.67.3.47.55-.42.77.15,1.14.21.7.1,1.42.28,2.12-.13-.4-.56-1.49-.43-1.18-1.45.94-.39,1.4.26,1.78.91.34.6.79.82,1.44.78.55-.04,1.1-.03,1.65-.05h0Zm-7.69,8.45c-.49-.29-.85-.29-1.35,0,.5.29.85.29,1.35,0Z"/>
      <path class="cls-1" d="m93.32,40.19l-.24.27c-.59.13-1.03.5-1.31.98-1.37,2.37-3.51,4.12-5.01,6.44-1.27,1.97-2.91,3.74-4.38,5.61-.63.8-1.03,1.98-2.27,2.21.27-1.19,1.29-1.94,1.78-3.01.53-.67,1.06-1.35,1.58-2.02.48-.56,1.08-1.04,1.39-1.74.03-.15.07-.31.1-.46.45-.2.76-.51.91-.98l.9-1.08c.51-.74,1.32-1.28,1.47-2.25.22-.11.41-.24.5-.49.59-.17.54-.85.95-1.17l.03-.26h-.01s.26,0,.26,0c.35-.42.69-.84,1.04-1.25l.07-.16c.26-.38.64-.7.65-1.21.15-.1.29-.21.44-.31.58-.25.9-.69.95-1.33.23-.15.42-.33.46-.63.18-.29.6-.43.51-.87.07-.13.13-.27.2-.4.49.08.68-.29.93-.61,4.09-5.28,8.2-10.54,12.28-15.82,1.16-1.51,2.42-2.94,3.4-4.58.53-.31.78-.96,1.39-1.19.04.83-.3,1.69-.75,2.2-1.56,1.79-2.94,3.73-4.44,5.56-2.56,3.13-4.7,6.58-7.46,9.56-.45.49-.98,1.09-.79,1.91h0c-.38-.06-.67,0-.93.35-1.06,1.42-2.22,2.77-3.28,4.18-.54.73-1.66,1.31-1.32,2.55Z"/>
      <path class="cls-1" d="m69.78,69.1c-.73,1.75-2.15,3.02-3.14,4.59-1.48,2.35-3.52,4.28-4.95,6.69-.62,1.04-1.55,1.9-2.3,2.88-.58.75-1.25,1.34-1.56,2.33-.27.85-1.41,1.21-1.84,2.09-.05.1-.18.16-.26.25-1.26,1.38-1.39,1.45-2.27-.21-1.41-2.64-3.21-5.02-4.69-7.62-2-3.55-4.39-6.88-6.62-10.3-.52-.8-1.11-1.58-.98-2.62.23.02.43.09.56.3.15.15.31.3.46.45-.03.38.1.65.49.76.01.29.23.38.45.48.07.95.67,1.58,1.33,2.18.22.92.62,1.72,1.55,2.12.04.14.08.28.12.43.47,1.42,1.42,2.56,2.25,3.77,1.21,2.37,2.7,4.58,4.22,6.76.54.92,1.06,1.85,1.62,2.75.14.22.38.74.69.34.96-1.23,2.13-2.31,2.66-3.84.45-.12.7-.47.98-.82,2.19-2.81,4.4-5.6,6.61-8.39.11-.29.13-.72.34-.85.89-.55,1.19-1.5,1.72-2.29.87-.48,1.42-1.23,1.76-2.15.27-.02.54-.04.81-.06Z"/>
      <path class="cls-10" d="m65.15,74.45c-2.21,2.8-4.42,5.59-6.61,8.39-.28.35-.52.7-.98.82-.98-2.39-.54-4.82-.2-7.24.05-.39.18-.77.27-1.15.87.02,1.74-.12,2.6-.19,1.65-.14,3.25-.66,4.91-.63Z"/>
      <path class="cls-14" d="m42.68,68.67c-.38-.11-.52-.38-.49-.76h8.99c0-.15,0-.3,0-.45h-9.45c-.13-.2-.33-.28-.56-.3.04-.71-.63-.92-.96-1.36.12-.23.24-.47.36-.7,3.23-.02,6.46-.05,9.68-.06.63,0,1,.25,1.07.97.09.86.55,1.67.45,2.57-.18.08-.36.24-.53.23-2.85-.02-5.71.25-8.56-.15Z"/>
      <path class="cls-10" d="m48.38,77.65c-.83-1.21-1.78-2.35-2.25-3.77.58.02,1.16.05,1.74.07,1.57.79,3.22,1.06,4.96.89.44,2.09.36,4.2.33,6.31-.2.79-.49.84-1.07.23-1.2-1.28-2.48-2.49-3.72-3.73Z"/>
      <path class="cls-14" d="m65.15,74.45c-1.66-.03-3.26.49-4.91.63-.86.07-1.72.21-2.6.19.26-1.08.56-2.16.78-3.25.12-.61.47-.76,1.01-.75,2.59.02,5.19.03,7.78.04-.53.79-.83,1.75-1.72,2.29-.21.13-.23.56-.34.85Z"/>
      <path class="cls-1" d="m40.58,65.11c-.12.23-.24.46-.36.7-.71.03-.9-.57-1.19-1.02-1.72-2.71-3.44-5.42-5.15-8.14-.47-.74-.92-1.49-1.36-2.24-1.16-2.01-2.8-3.73-3.54-5.99.23.07.48-.24.7.05.04.27.2.44.46.51,0,.43.45.59.56.95.26.64.82.52,1.33.52,4.35,0,8.7,0,13.05,0,.47,0,.97.08,1.37-.28l.1-.08c.04.82-.58.45-.91.45-4.46.02-8.92.01-13.38.02-.31,0-.62.04-1.03.07.34.81.74,1.47,1.33,2,.02.23-.02.48.19.65.09.1.17.21.26.31,0,.51.48.76.66,1.17.12.15.24.31.36.46.05.52.4.78.84.95.04.17.08.34.12.51.62,1.84,1.92,2.29,3.79,2.19,3.07-.16,6.15-.05,9.23-.04.43,0,.88-.11,1.29.14-3.92,0-7.83,0-11.75,0-.34,0-.84-.11-.91.32-.05.31.27.64.66.74.02.39-.02.82.51.94.04.27.16.46.44.52-.05.51.13.9.6,1.14.4.4.9.25,1.36.25,2.92.03,5.83.03,8.75.04-2.9.01-5.8.02-8.7.04-.34,0-.81-.17-.99.18-.18.34.17.66.37.94.27.38.43.87.94,1.03Z"/>
      <path class="cls-14" d="m52.84,74.84c-1.74.17-3.4-.1-4.96-.89-.57-.37-1.2-.51-1.87-.5-.93-.4-1.33-1.19-1.55-2.12,2.19-.03,4.38,0,6.56-.1,1.14-.06,1.61.38,1.65,1.46.03.72.11,1.43.17,2.15Z"/>
      <path class="cls-5" d="m80.12,55.7c1.23-.24,1.64-1.41,2.27-2.21,1.47-1.87,3.11-3.65,4.38-5.61,1.49-2.32,3.64-4.07,5.01-6.44.28-.48.73-.85,1.31-.98.03.79-.48,1.32-.91,1.88-3.56,4.67-7.29,9.19-10.72,13.95-.69.96-1.54,1.82-2.32,2.73-.3-.44-.6-.88-.89-1.32h0c.07-.15.15-.31.22-.47.93-.1,1.32-.79,1.66-1.53Z"/>
      <path class="cls-14" d="m46.54,50.09l-.1.08c-4.58,0-9.16-.02-13.74-.02-.68,0-1.35,0-2.01-.23-.11-.36-.57-.52-.56-.95,5.33-.01,10.66-.03,15.99-.04.12.16.24.33.36.49.02.22.04.44.06.66Z"/>
      <path class="cls-14" d="m33.65,54.75c-.18-.41-.65-.66-.66-1.17,4.86,0,9.72-.02,14.57-.02.51.2.34.72.51,1.08-.51.02-1.03.07-1.54.07-4.29.02-8.58.03-12.87.04Z"/>
      <path class="cls-14" d="m34.86,56.17c-.44-.17-.8-.43-.84-.95,2.11-.01,4.22,0,6.33-.04,2.63-.04,5.25.13,7.88-.09.2.39.36.79.3,1.25-4.13.01-8.26.04-12.38.03-.43,0-.86-.13-1.29-.2Z"/>
      <path class="cls-14" d="m38.84,62.63c-.47-.24-.65-.63-.6-1.14,3.95-.02,7.9-.05,11.85-.07.31.34.2.8.35,1.19-3.87,0-7.74.02-11.61.02Z"/>
      <path class="cls-14" d="m60.87,48.48c-.07.84,1.32.5,1.17,1.43,0,.05.35.2.24.43-.14.29-.41.19-.63.13-1.04-.27-2.06-.61-3.11-.84-1.78-.39-3.56-.39-5.34.05l-.1.06.12.17c-.55.32-1.15.2-1.74.24-.98.06-1.98-.19-2.93.23-.12-.4-.25-.81-.37-1.21.51-.29,1.08-.23,1.63-.23,3.14,0,6.29,0,9.43,0,.5,0,1.06.14,1.38-.45l.03-.07.22.05Z"/>
      <path class="cls-14" d="m56.34,47.49c.68-.3,1.32-.81,2.14-.47-.16.77.59.95.91,1.41-3.83.01-7.66.02-11.49.03v.03c-.09-1.01.49-1.52,1.34-1.19,1.09.43,2.06,0,3.07-.07,1.36-.08,2.67.35,4.02.25Z"/>
      <path class="cls-14" d="m64.1,66.18c.85.02,1.71.03,2.56.05.17,0,.34-.01.51-.02.74-.06,1.49.2,2.23-.02.36.02.6.48,1.02.27l.07-.23h0c.97-.31.3.54.53.75-.25.2-.51.39-.76.59-3.42-.24-6.85-.06-10.27-.11.16-.41.32-.81.48-1.21l3.64-.06Z"/>
      <path class="cls-3" d="m37.29,60.03c-.39-.1-.71-.43-.66-.74.07-.44.57-.32.91-.32,3.92,0,7.83,0,11.75,0,.22.3.43.61.43,1-4.14.02-8.29.04-12.43.07Z"/>
      <path class="cls-14" d="m37.29,60.03c4.14-.02,8.29-.04,12.43-.07.06.3.13.6.19.89-.44.03-.87.1-1.31.1-3.6.01-7.2,0-10.8.01-.53-.11-.49-.55-.51-.94Z"/>
      <path class="cls-14" d="m56.09,60c.08.14.04.56.21.41,1.06-.97.69.11.7.49.06,2.01.05,2.02-2.03,2.04-.48,0-.97-.07-1.43,0-1.07.19-1.44-.31-1.4-1.29,1.4-.57,2.95.09,4.34-.65h-4.63c-.07-.4-.34-.83.18-1.14,1.34.26,2.71.04,4.06.14Z"/>
      <path class="cls-7" d="m86.78,46.4c-.3.36-.6.72-.9,1.08-1.9-.19-3.8-.66-5.65.26-1.52,0-3.02-.14-4.57-.73,1.31-.78,2.57-.65,3.84-.63,2.43.03,4.86.02,7.28.02Z"/>
      <path class="cls-14" d="m32.74,53.27c-.22-.17-.17-.42-.19-.65,4.68,0,9.35-.02,14.03-.02.43,0,.93-.04.95.62-4.93.02-9.86.04-14.79.06Z"/>
      <path class="cls-14" d="m69.78,69.1c-.27.02-.54.04-.81.06l.07-.03c-.13-.43-.46-.32-.78-.31-2.93.02-5.85.02-8.78.03,0-.38.2-.68.41-.97,3.35,0,6.69.02,10.04.03.04.26.07.52.11.77-.09.14-.17.28-.26.42Z"/>
      <path class="cls-7" d="m56.34,47.49c-1.35.09-2.66-.33-4.02-.25-1.01.06-1.99.49-3.07.07-.85-.33-1.43.18-1.34,1.19-1.01-2.06-1.01-2.07,1.27-2.1,1.47-.02,2.94.07,4.41-.03.91-.06,1.36.76,2.14.89.18.03.78-.7.62.24Z"/>
      <path class="cls-7" d="m53.69,67.69q-.85-2.65,1.94-2.66c.96,0,1.91,0,2.87,0,1.27,0,1.34.11.84,1.24-.08.18-.21.33-.32.49-.19-.52-.63-.53-1.07-.54-1.03,0-2.06.04-3.08-.02-.99-.05-1.3.37-1.09,1.29l-.08.2Z"/>
      <path class="cls-4" d="m48.38,77.65c1.24,1.24,2.52,2.45,3.72,3.73.58.61.86.56,1.07-.23.11,1.14-.2,2.21-.57,3.26-1.52-2.18-3-4.39-4.22-6.76Z"/>
      <path class="cls-7" d="m84.87,48.92c-.31.7-.91,1.18-1.39,1.74-1.86,0-3.72,0-5.57,0,0-.11-.02-.22-.03-.33.35-.16.68-.43,1.13-.33.93.23,1.63-.42,2.43-.65.26-.07.11-.42.13-.65,1.08.43,2.2.21,3.31.21Z"/>
      <path class="cls-14" d="m61.33,61.88c-.46.31-.35,1.25-1.3,1.07-.71-.14-1.34-.84-.9-1.32.51-.55.27-1.29.74-1.77.34.62.44-.11.67-.15.42-.07.86-.3,1.2.07.31.33.15.75-.07,1.09-.21.31-.29.65-.33,1Z"/>
      <path class="cls-14" d="m55.91,71.27c1.51.02,1.54.05.95,1.42-.32.75-.81,1.43-.81,2.31,0,.24-.16.5-.41.52-.39.04-.39-.33-.45-.58-.17-.73-.32-1.47-.47-2.2-.29-1.44-.26-1.48,1.19-1.46Z"/>
      <path class="cls-11" d="m48.23,55.09c-2.62.22-5.25.05-7.88.09-2.11.03-4.22.03-6.33.04-.12-.15-.24-.31-.36-.46,4.29-.01,8.58-.02,12.87-.04.51,0,1.03-.05,1.54-.07.05.15.1.3.16.45Z"/>
      <path class="cls-14" d="m57.13,42.36c-.43.52.73.44.3,1.01-.58.05-1.25-.59-1.88-.01-1.68.53-3.4.24-5.11.32l-.14-.23c.05-.45.27-.65.74-.75.74-.16,1.47-.02,2.21-.03.18.03.32-.02.42-.17,1.17.27,2.3-.2,3.46-.13Z"/>
      <path class="cls-16" d="m57.13,42.36c-1.16-.07-2.3.41-3.46.13,0-.09,0-.19,0-.28,3.24-.63,6.52,0,9.77-.25.48.08.98.12,1.36.49-.46.53-1.08.13-1.61.28-1.01-.13-2.03-.31-3,.19-.24.04-.51-.96-.74.02-.03.11-.15.25-.24.12-.53-.73-1.47-.23-2.07-.71Z"/>
      <path class="cls-16" d="m88.74,43.66c-.08.25-.28.38-.5.49-4.45-.02-8.91-.04-13.36-.05h0c.31-.22.63-.45.94-.67.2-.04.4-.09.6-.13.45.45,1.03.37,1.57.37,3.58,0,7.16,0,10.74,0Z"/>
      <path class="cls-13" d="m61.33,61.88c.04-.36.12-.69.33-1,.22-.34.38-.76.07-1.09-.34-.36-.77-.14-1.2-.07-.23.04-.32.77-.67.15.12-.95,1.06-1.58,2.06-1.22.66.24,1.16.14,1.8.02.6-.12,1.47-.61,1.92.39-.83-.12-1.77-.82-2.31.47l-.09.25c-.3.31-.45.69-.45,1.12-.1.16-.21.32-.31.48-.15.26-.3.52-.45.77-.23-.09-.47-.18-.7-.28Z"/>
      <path class="cls-7" d="m49.6,53.52c-.29-.5-.42-.92.41-.92,1.55.01,3.11.02,4.66.03,1.01,0,.19.84.55,1.17.33-.31.66-.67,1.03-.96.15-.12.44-.34.62-.06.15.24.16.58-.14.73-.56.29-1.15.52-1.73.78-.23-.62-.88-.51-1.32-.75.24-.09.56.11.82-.29-1.69.12-3.32-.29-4.91.26Z"/>
      <path class="cls-14" d="m53.76,67.49c-.21-.91.1-1.34,1.09-1.29,1.03.05,2.06.02,3.08.02.45,0,.89.01,1.07.54-.01.27-.04.53-.24.74-1.67-.03-3.33-.16-5,0Z"/>
      <path class="cls-7" d="m80.12,55.7c-.34.74-.73,1.43-1.66,1.53.04-.31-.04-.35-1.18-.62l-.07-.07.08-.17c.43-.05.85-.14,1.28-.15.8-.02,1.14-.4,1.05-1.18l.15-.12h.02c.6-.4,0-1.03-.07-1.17-.44-.86.02-1.02.66-1.12.51-.08,1.03-.08,1.53.08-.49,1.07-1.51,1.82-1.78,3.01Z"/>
      <path class="cls-14" d="m80.23,47.75c1.84-.92,3.75-.45,5.65-.26-.15.47-.46.79-.91.98-1.22,0-2.44,0-3.66,0-.48-.05-.98-.08-1.07-.71Z"/>
      <path class="cls-16" d="m47.9,48.47c3.83-.01,7.66-.02,11.49-.03.17.01.33.02.5.03.24.01.49.02.73.03-.32.59-.88.45-1.38.45-3.14.01-6.29,0-9.43,0-.55,0-1.12-.05-1.63.23-.22-.19-.31-.43-.28-.72Z"/>
      <path class="cls-16" d="m37.8,60.97c3.6,0,7.2,0,10.8-.01.44,0,.87-.06,1.31-.1.18.15.2.34.19.55-3.95.02-7.9.05-11.85.07-.28-.06-.41-.25-.44-.52Z"/>
      <path class="cls-14" d="m53.69,53.55c.44.24,1.09.13,1.32.75h-.01c-.17.01-.28.08-.3.25-.16.12-.33.24-.49.36-1.37-.38-2.74-.3-4.12-.01-.29-.32-.27-.76-.4-1.14,1.31-.47,2.67-.14,4-.21Z"/>
      <path class="cls-12" d="m60.87,48.48l-.22-.05c-.41-.88-.23-1.81-.21-2.72,0-.43.27-.76.66-.93.45-.2.65.13.83.46.16.28.44.32.72.36.64.08.39.44.24.77l-.05-.05.05.05c-1.25.16-1.26,1.49-2.02,2.11Z"/>
      <path class="cls-9" d="m78.84,61.26c-1.24.82-2.03,2-2.64,3.31.51-.46.12-.9-.11-1.23-.33-.47-.31-.92-.2-1.41,1.41-.13,1.7-1.25,2.07-2.31l.14-.03h0c0,.42.05.81.52.98-.01.26.03.5.22.69Z"/>
      <path class="cls-3" d="m69.93,67.91c-3.35,0-6.69-.02-10.04-.03.03-.14.06-.28.09-.43,3.42.06,6.85-.12,10.27.11-.11.11-.22.23-.32.34Z"/>
      <path class="cls-7" d="m64.1,66.18l-3.64.06c.1-.93.58-1.31,1.53-1.21.89.1,1.78.1,2.69.15.03.48-.38.68-.57,1Z"/>
      <path class="cls-1" d="m77.96,59.62c-.36,1.06-.66,2.18-2.07,2.31-.16-.2-.25-.48-.57-.51-.07-.13-.14-.25-.21-.38.58-.13.93-.5,1.1-1.05.53-.2.56-.65.53-1.12.35-.12.56.47.95.18l.05.02c.07.18.14.37.21.55Z"/>
      <path class="cls-7" d="m75.95,55.44c-.56-.02-.87-.51-1.34-.69-.36-.14-.32-.45-.25-.7.14-.51.35-.14.6-.05.72.26.07-.63.47-.64.5.05.26.91.57.72,1.06-.65.09.4.39.43.4.04.88-.32.96-.25.35.31,1.16.17,1.06.95-.82.02-1.67-.15-2.46.22Z"/>
      <path class="cls-14" d="m52.93,56.59c-.72.24-1.39-.22-2.16-.1-.58.09-.39-.81-.61-1.25,1.21-.01,2.41-.02,3.62-.03-.24.48-.76.8-.86,1.37h0Z"/>
      <path class="cls-7" d="m72.63,61.71l.04.21c.09.32.54.51.32.94l-.14.15c-.41.03-.66-.21-.88-.5-.42-.99-1.3-1.79-1.23-2.98.4,0,.81.1,1.17-.18l-.02-.06c-.01.89.64,1.57.74,2.43Z"/>
      <path class="cls-14" d="m58.52,67.96c-.04.28-.01.58-.28.78-1.43-.02-2.87.3-4.3-.05-.25-.21-.23-.49-.21-.77,1.59.02,3.19.03,4.78.05Z"/>
      <path class="cls-12" d="m53.69,56.63c-.32,1.73-1.42,2.5-3.34,2.1-.7-.15-1.43-.03-2.09-.32,0-.11-.01-.23-.02-.34.98,0,1.96-.07,2.93.02,1.16.1,1.73-.35,1.77-1.5h0c.25.01.51.02.76.03h0Z"/>
      <path class="cls-7" d="m76.75,58.87c.02.47,0,.91-.53,1.12-.6-.05-1.05.3-1.54.56l-.05-.06c-.11-.13-.22-.25-.33-.38-.15-.11-.3-.21-.44-.32-.05-.36-.46-.62-.3-1.04,1.06.04,2.13.08,3.19.11Z"/>
      <path class="cls-14" d="m62.03,62.16c.15-.26.3-.52.45-.77.77.04,1.54.08,2.3.12-.3.85-.56,1.69-1.8,1.47-.56-.1-.9-.24-.96-.82Z"/>
      <path class="cls-16" d="m32.74,53.27c4.93-.02,9.86-.04,14.79-.06.17.09.26.2.04.34-4.86,0-9.72.02-14.57.02-.09-.1-.17-.21-.26-.31Z"/>
      <path class="cls-7" d="m50.44,43.67c1.7-.08,3.43.21,5.11-.32-.06.18.66.47.02.49-.89.03-1.73.32-2.6.36h-1.69c-.43-.02-.87-.08-1.3-.04-.78.07-1.07-.29-1.02-1.06.56.09.86.77,1.49.55Z"/>
      <path class="cls-16" d="m34.86,56.17c.43.07.86.2,1.29.2,4.13,0,8.26-.02,12.38-.03-.23.57-.71.28-1.07.28-4.16.03-8.32.04-12.48.06-.04-.17-.08-.34-.12-.51Z"/>
      <path class="cls-14" d="m75.95,55.44c.79-.37,1.63-.2,2.46-.22.4-.07.8-.13,1.21-.2.09.79-.25,1.17-1.05,1.18-.43,0-.85.1-1.28.15-.45-.31-.89-.61-1.34-.92Z"/>
      <path class="cls-16" d="m65.51,44.09c-.1.03-.2.05-.3.08-1.28,0-2.56-.07-3.83,0-.8.04-1.07-.25-.98-.99,1.29.39,2.57.71,3.91.23.29.09.59.19.88.28.11.13.22.26.33.4Z"/>
      <path class="cls-14" d="m64.3,43.41c-1.34.48-2.63.16-3.91-.23l-.21-.25c.97-.5,1.98-.33,3-.19.24.45.84.31,1.12.68Z"/>
      <path class="cls-16" d="m38.84,62.63c3.87,0,7.74-.02,11.61-.02-.37.69-1.01.15-1.49.32-2.92-.01-5.83-.02-8.75-.04-.46,0-.97.15-1.36-.25Z"/>
      <path class="cls-14" d="m52.52,59.5c.24-.45.49-.71,1.11-.64.81.1,1.65-.05,2.47-.03.63.01.68.29.22.7-1.27,0-2.53-.02-3.8-.03Z"/>
      <path class="cls-7" d="m64.24,48.57c-.43-.75-1.12-1.34-1.35-2.2l-.05-.05.05.05c.69.02,1.41-.1,2,.41.24.21.68.35.33.8-.37-.07-.69-.43-1.08-.2.04.42.07.81.1,1.2Z"/>
      <path class="cls-7" d="m48.55,50.4c.95-.43,1.95-.17,2.93-.23.59-.04,1.19.09,1.74-.24.17.09.35.17.82.4-2.02.35-3.75.38-5.5.07Z"/>
      <path class="cls-3" d="m58.52,67.96c-1.59-.02-3.19-.03-4.78-.05l-.05-.22.08-.2c1.67-.16,3.33-.02,5,0,0,.2-.07.36-.25.46Z"/>
      <path class="cls-7" d="m67.85,60.95l.05-.05-.02-.06c.32-.43.04-.94.17-1.39.09-.29.15-.59.5-.19-.33.18-.16.48-.17.73-.01.46-.27,1.08.63.91v.17c-.39.6-.75,1.21-.52,1.98l.07-.02c-.31-.07-.62-.14-.93-.2,0-.11,0-.22,0-.33.27-.49.2-1.02.21-1.55Z"/>
      <path class="cls-16" d="m59.48,68.85c2.93,0,5.85-.01,8.78-.03.32,0,.65-.12.78.31-2.93,0-5.86.02-8.79.02-.27,0-.67.19-.76-.3Z"/>
      <path class="cls-16" d="m42.68,68.67c2.85.4,5.71.13,8.56.15.18,0,.36-.15.53-.23.36.89-.39.55-.68.55-2.65.03-5.31.01-7.96.01-.22-.1-.44-.19-.45-.48Z"/>
      <path class="cls-16" d="m51.86,61.01h4.63c-1.4.74-2.94.08-4.34.65-.1-.22-.19-.43-.29-.65Z"/>
      <path class="cls-14" d="m62.8,60.9c0-.43.16-.81.45-1.12.52.27,1.08.29,1.65.22.42.38.18.76-.01,1.14-.7-.08-1.4-.16-2.1-.24Z"/>
      <path class="cls-7" d="m67.17,66.21c-.17,0-.34.01-.51.02.5-1.23,1.33-1.56,2.63-1.03.42.17.82.39,1.23.58-.01.15-.03.3-.04.45h0s-.07.23-.07.23c-.42.21-.66-.25-1.01-.27-1.03-1.17-1.67-1.17-2.23.02Z"/>
      <path class="cls-16" d="m52.52,59.5c1.27,0,2.53.02,3.8.03-.08.16-.16.32-.23.48-1.35-.1-2.71.13-4.06-.14.16-.12.32-.24.49-.37Z"/>
      <path class="cls-15" d="m70.48,66.24c.01-.15.03-.3.04-.45.54-.32,1.08-1.5,1.64-.01-.68.43-.46,1.29-.88,1.85-.03-.24,0-.5-.27-.64-.23-.21.44-1.06-.53-.74Z"/>
      <path class="cls-16" d="m53.78,55.22c-1.21,0-2.41.02-3.62.03-.03-.12-.05-.23-.08-.35,1.37-.29,2.75-.37,4.12.01-.14.1-.28.21-.42.31Z"/>
      <path class="cls-7" d="m64.83,56.59c.05-.88.66-1.21,1.3-1.3.26-.04.11.47.07.73-.15.96-.81.57-1.37.57Z"/>
      <path class="cls-16" d="m81.31,48.46c1.22,0,2.44,0,3.66,0-.03.15-.07.31-.1.46-1.11,0-2.23.21-3.31-.21l-.26-.25Z"/>
      <path class="cls-7" d="m59.9,48.47c-.17,0-.33-.02-.5-.03-.32-.46-1.07-.64-.91-1.41.61.34,1.48.44,1.42,1.44Z"/>
      <path class="cls-16" d="m53.94,68.68c1.43.35,2.86.04,4.3.05.02.24-.08.4-.32.4-1.2,0-2.4,0-3.6,0-.3,0-.43-.16-.38-.46Z"/>
      <path class="cls-7" d="m63.35,59.52c.54-1.29,1.48-.6,2.31-.47-.14.17-.27.34-.41.51-.63-.01-1.27-.02-1.9-.04Z"/>
      <path class="cls-14" d="m64.24,48.57c-.03-.39-.07-.78-.1-1.2.39-.23.71.13,1.08.2-.11.21-.38.38-.21.68-.18.37.37.91-.27,1.18l-.04-.1c0-.22-.03-.43-.23-.58l-.24-.18Z"/>
      <path class="cls-7" d="m58.15,56.57c.4-.57.71-1.01,1.06-1.53.17,1.33.12,1.41-1.06,1.53Z"/>
      <path class="cls-7" d="m64.75,49.43c.63-.27.09-.8.27-1.18.53.52.55,1.23.7,1.9-.03.12-.07.23-.1.35-.74,0-.67-.64-.87-1.07Z"/>
      <path class="cls-7" d="m72.91,48.98c-.27-.1-.71.1-.73-.4,0-.37.23-.63.6-.54.36.09.93.12.96.54.03.45-.5.36-.83.4Z"/>
      <path class="cls-16" d="m53.69,53.55c-1.33.07-2.69-.25-4,.21l-.09-.24c1.59-.55,3.22-.14,4.91-.26-.26.4-.58.2-.82.29Z"/>
      <path class="cls-13" d="m72.63,61.71c-.09-.86-.75-1.54-.74-2.43.15.18.27.43.46.54.97.52.9,1.16.28,1.89Z"/>
      <path class="cls-13" d="m76.75,58.87c-1.07-.04-2.13-.08-3.19-.11,1.4-.19,2.82-.65,4.14.29-.38.29-.6-.3-.95-.18Z"/>
      <path class="cls-13" d="m71.91,59.33c-.35.29-.77.19-1.17.18-.2-.28-.35-.64.04-.81.58-.25.83.27,1.13.63Z"/>
      <path class="cls-13" d="m68.49,63.05c-.23-.77.14-1.38.53-1.98.06.42.12.83.19,1.25.09.56-.18.78-.72.73Z"/>
      <path class="cls-16" d="m62.8,60.9c.7.08,1.4.16,2.1.24.12.17.05.28-.11.36-.77-.04-1.54-.08-2.3-.12.11-.16.21-.32.31-.48Z"/>
      <path class="cls-16" d="m63.35,59.52c.63.01,1.27.02,1.9.04-.11.15-.22.29-.34.44-.57.06-1.13.05-1.65-.22l.09-.25Z"/>
      <path class="cls-13" d="m68.55,59.26c-.34-.4-.41-.1-.5.19-.14.46.15.96-.17,1.39-.04-.62-.31-1.25.07-1.85.14-.22.32-.38.58-.23.22.13.18.32.03.5Z"/>
      <path class="cls-13" d="m71.98,62.5c.22.29.47.53.88.5-.03.28.07.78-.36.66-.47-.13-.55-.68-.52-1.16Z"/>
      <path class="cls-13" d="m73.86,59.79c.15.11.3.21.44.32.03.2.12.34.33.38l.04.06c.05.13.11.26.16.39l-.05.05c-.59-.18-.92-.56-.93-1.2Z"/>
      <path class="cls-13" d="m69.01,60.9c-.9.17-.64-.46-.63-.91.42.16.57.5.63.91Z"/>
      <path class="cls-13" d="m78.62,60.57c-.46-.17-.52-.56-.52-.98.6.1.52.56.52.98Z"/>
      <path class="cls-13" d="m72.99,62.85c.22-.42-.23-.62-.32-.94.65.12.9.39.32.94Z"/>
      <path class="cls-13" d="m67.85,60.95c-.01.52.05,1.06-.21,1.55,0-.53-.12-1.07.21-1.55Z"/>
      <path class="cls-13" d="m67.63,62.83c.31.07.62.14.93.2-.41.39-.73.37-.93-.2Z"/>
      <polygon class="cls-9" points="76.09 65.96 76.09 66 76.09 65.93 76.09 65.96"/>
      <path class="cls-12" d="m53.68,56.63l.2-.27c.16.25-.12.19-.2.27h0Z"/>
      <polygon class="cls-13" points="69.74 59.2 69.83 59.24 69.79 59.34 69.71 59.29 69.74 59.2"/>
      <path class="cls-13" d="m75.12,61.03c.07.13.14.25.21.38-.26-.04-.43-.19-.54-.43l.05-.05c.09.03.19.07.28.1Z"/>
      <polygon class="cls-14" points="79.78 54.9 79.76 54.9 79.69 54.75 79.72 54.83 79.78 54.9"/>
      <path class="cls-7" d="m54.7,54.55c.03-.17.14-.24.3-.24-.1.08-.2.16-.3.24Z"/>
      <path class="cls-7" d="m64.48,48.75c.2.14.23.35.23.58-.21-.14-.22-.36-.23-.58Z"/>
      <path class="cls-13" d="m77.96,59.62c-.07-.18-.14-.37-.21-.55.22.11.34.28.35.53l-.14.03Z"/>
      <path class="cls-7" d="m78.23,57.71h0s0,0,0,0Z"/>
      <path class="cls-13" d="m33.99,24.93c-.86.02-1.84-.56-2.48.52-.55-.09-1.38.39-1.37-.8,0-.32-.48-.14-.73.04-.24-.01-.47-.03-.71-.04.21-.3.7-.38.71-.85-1.12.08-2.38-.94-2.91-2.34-.3,0-.49.62-.53.4-.22-1.16-.86-.16-1.37-.36.56-.37.65-.68-.11-.76-.08,0-.2-.17-.2-.27-.03-.51-.02-.51-.61-.6-.08-.36.13-.56.4-.73.79.38,1.39-.07,2.01-.45,1.92.51,3.67,1.33,5.01,2.86.57.73,1.14,1.49,2.16.51-.46-.59-1.09-.45-1.66-.53.06-.34.62-.44.43-.88-.34-.26-1.04.27-1.08-.38-.05-.89-.31-1.49-1.37-1.53.44-.45,1.02-.44,1.29-1.01-1.53.31-1.62-1.57-2.79-1.62-.04-.47.58-.12.49-.63-.48-.29-1.43.17-1.48-.86-.09.07-.19.14-.28.21l.06-.03v-.07q.45-1.01,1.42-1.31c.73.42,1.54.56,2.35.73.23.23.46.46.7.68.21.58.51,1.01,1.23.75l.2.25c.53,2.36,1.65,4.5,2.66,6.67-.62.49-.68.98.02,1.45h0c-.23.58-.01,1.16-.03,1.73,0,.31-.07.75-.47.19-.21-1.32-.81-2.04-1.89-2.22.34.45.64.86.94,1.27Z"/>
      <path class="cls-8" d="m31.12,10.23c.32.3.73.29,1.13.29,16.63,0,33.26,0,49.88,0,.12,0,.24-.02.36-.03.41.11.82.21,1.23.32-.22.45.1.79.23,1.17-.26,1.16-1.14.45-1.67.45-11.94.04-23.88.03-35.82.03.08-.09.16-.19.24-.28h.26c11.52.02,23.05.02,34.57.03.29-.09.75-.07.7-.48-.04-.33-.45-.22-.72-.24-.2-.01-.4,0-.6,0-12.6,0-25.19,0-37.79.02-1.35,0-2.69-.52-4.04-.05-.28-.51-.5.1-.75.04-.94.14-1.78-.39-2.84-.16-1.73.38-3.59.26-5.37-.11.23-.43.56-.76,1-.99Z"/>
      <path class="cls-6" d="m30.12,11.22c1.79.38,3.64.5,5.37.11,1.06-.23,1.89.3,2.84.16-.35.48-.7.97-1.05,1.45-.84-.73-1.34-.13-1.85.47-1.08-.97-2.36-.5-3.51-.35-1.13.15-2.07-.05-2.99-.64.39-.4.79-.8,1.18-1.2Z"/>
      <path class="cls-11" d="m28.94,12.42c.92.58,1.86.78,2.99.64,1.15-.15,2.43-.62,3.51.35,0,.15,0,.31.01.46-1.6.17-3.24-.29-4.82.29-.81-.17-1.62-.31-2.35-.73-.07-.52.33-.74.66-1Z"/>
      <path class="cls-5" d="m83.95,11.96c-.12-.38-.45-.72-.23-1.17.12,0,.23-.01.34-.02,1.44.57,2.99.39,4.35.08,2.06-.47,4.12.02,6.14-.37.23-.05.48-.05.71-.07.94-.04,1.93.37,2.79-.33,3.04.12,6.08-.29,9.06-.67,3.15-.4,6.3-.08,9.42-.56.27-.04.59-.09.78.16.26.34-.04.63-.21.86-1.21,1.68-2.42,3.36-3.68,4.99-2.04,2.64-4.12,5.25-6.18,7.88-2.51,3.22-5,6.45-7.51,9.66-.23.3-.43.7-.91.69-.19-.82.34-1.42.79-1.91,2.76-2.98,4.9-6.43,7.46-9.56,1.5-1.83,2.88-3.77,4.44-5.56.45-.52.79-1.37.75-2.2h0c.59.1,1.03-.13,1.3-.63.53-.99,1.03-1.97,2.07-2.55.26-.14.51-.44.35-.81-.14-.32-.47-.23-.74-.28-1.02-.16-1.95.32-2.93.4-2.89.23-5.78.08-8.69.45-3.1.39-6.23.74-9.34.91-3.3.17-6.59.53-9.89.62-.15,0-.3-.01-.45-.02Z"/>
      <path class="cls-8" d="m32.55,9.05c11.4.01,22.79.02,34.19.03,3.28,0,6.56,0,9.84,0,.43,0,.87-.07,1.36.16-.32.45-.75.31-1.1.31-14.36,0-28.71,0-43.07,0-.47,0-.99.08-1.24-.48l.02-.02Z"/>
      <path class="cls-8" d="m79.14,8.12l.27.19c-.25.16-.19-.12-.27-.2h0Z"/>
      <path class="cls-5" d="m93.32,40.19c-.34-1.24.78-1.81,1.32-2.55,1.05-1.42,2.22-2.76,3.28-4.18.26-.34.55-.41.93-.36.13,1.15-.91,1.63-1.45,2.34-1.25,1.66-2.3,3.53-4.08,4.75Z"/>
      <path class="cls-1" d="m98.07,10.08c-.86.71-1.85.29-2.79.33.87-.64,1.86-.27,2.79-.33Z"/>
      <path class="cls-10" d="m37.83,66.7c.45-.02.55.24.5.62-.17-.21-.33-.41-.5-.62Z"/>
      <path class="cls-8" d="m76.74,6.68c-12.97,0-25.94,0-38.91,0-.23-.04-.49.04-.71-.26.43-.4.96-.23,1.43-.23,11.11-.01,22.23,0,33.34-.01,1.23,0,2.47,0,3.7,0,.45,0,.88.05,1.15.49Z"/>
      <path class="cls-16" d="m26.81,14.84c.09-.07.19-.14.28-.21.05,1.03,1.01.57,1.48.86.09.51-.53.16-.49.63,1.17.05,1.27,1.93,2.79,1.62-.27.57-.84.56-1.29,1.01,1.06.05,1.31.65,1.37,1.53.04.66.75.13,1.08.38.19.45-.38.54-.43.88-.17,0-.33.01-.5.02-1.34-1.53-3.09-2.35-5.01-2.86-.4-.33-.8-.65-1.2-.98-.02-.14-.03-.27-.05-.41.35-.31.84-.48.95-1.01.03-.1.06-.21.09-.31.47-.26.56-.81.92-1.15Z"/>
      <path class="cls-6" d="m35.45,7.4l.24-.21-.24.21Z"/>
      <path class="cls-2" d="m50.44,43.67c-.63.22-.93-.46-1.49-.55-.04.77.24,1.13,1.02,1.06.43-.04.87.02,1.3.04-1.57.77-3.21.62-4.85.34-.56-.1-.86-.54-.91-1.13-.33.02-.6.14-.74.46-.4.94-1,.78-1.67.31.19-.39,1.56.64.91-.76.01-.39-.19-.69-.4-.99-.04-.15-.08-.3-.12-.44-.06-.43-.35-.71-.65-.97,0-.16,0-.32,0-.48-.15-.39-.31-.78-.46-1.17l-.24-.34c-.43-1.92-1.42-3.62-2.23-5.39-.33-.73-1-.13-1.5-.12-.49.01-.38.52-.26.75.53,1-.22,2.13.36,3.12.12.22-.15.31-.37.29-.46-.03-.66-.22-.48-.7.19-.5.25-1.01-.08-1.49h0c-.09-.75.28-1.5-.13-2.24-.13-.24.01-.44.36-.41.59.06,1.13-.24,1.75-.15.55.08,1.1-.17,1.44-.69.25-.39.38-.98,1.02-.75.63.22,1.16.57,1.07,1.38-.32-.07-.63-.14-.95-.22l-.17.21c2.15,2.46,4.29,4.92,6.44,7.39.03.9.59,1.3,1.39,1.48q-.72.4-.55.75c.34.41.56.91,1.04,1.19l.14.23Z"/>
      <path class="cls-13" d="m43.61,33.1c2.16.9,3.8-1.03,5.79-1.08.25,0,.56-.24.46-.58-.08-.29-.38-.21-.61-.2-.74.03-1.02-.38-1.51-.95-.95-1.13-.64-1.22.46-1.85.76-.44.87-.49,1.39.12.38.44,1.6.21.98,1.38-.54-.26-1.09-.53-1.78-.86.1.32.14.51.21.68.52,1.22,1.8,1.31,2.77,1.87.37,0,.08.44.34.51.39.65,1.02,1.05,1.56,1.53.23.3.47.6.7.9.08.09.16.18.24.27.11.38.35.66.62.93.18.28.35.56.53.85.2.86.83,1.57.88,2.48l-.11.53c-.31-.09-.62-.17-.94-.26l-.03-.25c-.05-.89-.84-1.25-1.3-1.85-.82-1.08-1.77-2.04-2.58-3.12-.06-.08-.19-.12-.33-.2-.12.51-.46.95-.19,1.49.69,1.41,2.24,2.36,2.25,4.14,0,.09.01.18.02.27-.18.49-.17,1.05-.56,1.46l-.17-.02c-.04-.36.06-.77-.36-.96-.34.22-.15.82-.68.85.16-.48.09-.94-.02-1.75-.21.57-.3.82-.39,1.06l-.23.03c-.05-.33.19-.78-.16-.98-.83-.48-1.16-1.21-1.16-2.14-.6.19-.51.89-.99,1-.41-.27.35-1.05-.55-1.07-.77,0-1.02-.42-.93-1.15.03-.22.08-.88-.34-.6-.91.62-.64-.25-.79-.53-.17-.32-.22-.83-.63-.17-.17.27-.26.27-.47-.04-.42-.61-.93-1.16-1.41-1.74Zm7.09,1.92c-.3-.63-.4-1.44-1.27-1.52-.31-.03-.37.41-.33.67.17.91.98.68,1.6.85Z"/>
      <path class="cls-2" d="m42.13,24.45c-.15,0-.3,0-.45,0,.13-1.2-.36-1.91-1.6-2.03.1-.14.2-.27.3-.41.24-.15.32-.39.34-.66l.45-.76c.38-.1.49-.37.48-.73,1.07-1.21,1.7-2.71,2.61-4.03.15,0,.4-.3.41.07,0,.33-.22.65,0,1.09.39-.5.74-.96,1.09-1.42l.33-.07c.55.68.94-.02,1.4-.17h.24c.28.06.18.18.05.3-.36.32-.85.52-1.05,1.19.91-.3,1.66-.71,2.5-.69.25,0,.76-.04.6.29-.29.59.07.54.39.58.33.04.66.04,1.13.07-.4.28-.73.41-.89.65-.21.32.17.19.29.25.02.6-.07,1.15.6,1.62.42.3-.41.24-.48.52-.18.33.08.51.26.68.11.11.43.06.18.35-.21.23-.33-.06-.5-.07-.52-.35-1.04-.7-1.78-1.2.26.66.44.99.77,1.23-.71.21-1.41.28-2.11-.03-.21-.1-.42-.21-.62-.31-.53-.27-1.07.02-1.6-.02-.05.58.38.92.69,1.31-.22,0-.44.01-.67.02-.23-.04-.65-.11-.65.05,0,.76-.78.73-.99,1.06-.45.72-1.37.61-1.76,1.27Z"/>
      <path class="cls-16" d="m56.43,28.07c-.78-.39-1.55-.79-2.33-1.18,12.84,0,25.68-.01,38.52-.02.29.33.51.69.42,1.15-11.57,0-23.13,0-34.7.02-.64,0-1.28.02-1.91.03Z"/>
      <path class="cls-1" d="m25.79,16.3c-.11.53-.6.71-.95,1.01-2.34.58-4.78.28-7.13.8-2.03,0-4.06.14-6.09.33-.57.05-.7.22-.37.73,1.18,1.79,2.35,3.6,3.52,5.4,1.44,2.58,3.03,5.06,4.74,7.47-.04.51.29.86.56,1.23,0,.36.21.6.5.79.16.57.51,1.03.92,1.44h0c0,.41.03.82.52.96.11.4.38.7.67.97.09.15.17.31.26.46.25.42.5.84.75,1.26.09.14.17.28.26.41.87,1.69,2.09,3.13,3.24,4.61.03.34.16.62.45.81l.08.11c.12.59.48,1,.96,1.33.03.43.05.87.08,1.3l-.13.04c-.88-.55-1.19-1.54-1.78-2.32-2.1-2.74-3.77-5.76-5.62-8.67-1.91-3-3.88-5.96-5.67-9.02-1.12-1.91-2.69-3.52-3.48-5.65-.38-1.01-1.12-1.9-1.76-2.8-.3-.43-.5-.84-.25-1.32.24-.45.65-.67,1.18-.68,1.36,0,2.72-.03,4.07-.05,2.7-.03,5.36-.35,8.02-.85.78-.15,1.62.17,2.43-.11Z"/>
      <path class="cls-10" d="m19.52,32.04c-1.71-2.41-3.3-4.89-4.74-7.47,1.64-.44,3.35-.62,4.93-1.31.76-.09,1.52-.17,2.29-.26.2.65-.57,1.04-.46,1.67l-.05.32c-.59.93-.93,1.93-.91,3.04-.18.23-.34.46-.24.77-.26.81-.84,1.53-.71,2.45l-.1.79Z"/>
      <path class="cls-3" d="m42.39,39.38c.15.39.31.78.46,1.17-1.41.15-2.83.47-4.24,0-.24-.8.4-1.72-.33-2.46-.04-.14-.09-.27-.13-.41.23.03.5-.07.37-.28-.57-1,.17-2.12-.36-3.12-.12-.23-.23-.73.26-.75.5-.01,1.17-.61,1.5.12.8,1.77,1.79,3.47,2.23,5.39,0,.16-.02.35.24.34Zm-1.04-.03c-.59-.33-1.18-.31-1.77.01.58.23,1.17.27,1.77-.01Zm-2.48-1.75c.98.32,1.61.41,2.58-.07-.99-.12-1.62-.19-2.58.07Z"/>
      <path class="cls-6" d="m92.62,26.87c-12.84,0-25.68.01-38.52.02-.48-.01-.96-.04-1.39-.3v-.21s.02-.02.02-.02c13.27,0,26.54,0,39.81,0,.02.17.05.34.07.51Z"/>
      <path class="cls-14" d="m29.67,48.47c-.21-.29-.47.01-.7-.05-.11-.22-.21-.44-.32-.66l.13-.03c.58-.13,1.08-.49,1.71-.46,1.66.07,3.33-.14,4.98.13.37.06.73.12.85-.37l.65.04c.29.66.9.5,1.36.41,1.87-.34,3.75-.13,5.62-.22.74-.03,1.33.18,1.81.73l.21.07c0,.13,0,.26,0,.39-5.43.01-10.87.02-16.3.03Z"/>
      <path class="cls-11" d="m56.43,28.07c.64,0,1.28-.03,1.91-.03,11.57,0,23.13-.01,34.7-.02,0,.19.01.37.02.56-1.39.51-2.77-.07-4.16-.07-9.55.03-19.11.02-28.66.02-1.04,0-2.08-.17-3.11.06-.19-.09-.38-.18-.58-.28l-.13-.26Z"/>
      <path class="cls-7" d="m43.61,33.1c.48.57.99,1.12,1.41,1.74.21.31.3.31.47.04.41-.66.46-.15.63.17.15.28-.11,1.14.79.53.42-.28.37.38.34.6-.08.74.17,1.14.93,1.15.9.01.14.79.55,1.07.48-.11.39-.81.99-1,0,.93.33,1.66,1.16,2.14.35.2.11.65.16.98-.24.67-.84.43-1.31.53-.44-.34-.87-.67-1.31-1.01-2.15-2.46-4.29-4.92-6.44-7.39l.17-.21c.32.07.64.14.95.22.17.15.34.31.51.46Z"/>
      <path class="cls-2" d="m31.83,31.66c.4,0,.8,0,1.2,0-.3.58-.26,1.26.2,1.61.36.28.6-.3.76-.64.32-.16.65-.31.97-.47,0,.39,0,.77.46.94.27.4-.21.63-.23.97h0c-.09.15-.18.3-.27.45-.15.17-.3.34-.44.51-.08-.24-.23-.4-.47-.46-.09-.19-.25-.42-.4-.13-.21.41-.55.79-.57,1.29l-.05.05-.15.28c0,.18,0,.37,0,.55.03.1.05.21.08.31.03.25.06.5.09.76-.15,0-.29,0-.44.01-.62-.16-.91.13-1,.71h-.2c-.24-.33-.48-.64-.72-.95.39,0,.79-.01,1.18-.02.15-.04.34-.07.29-.28-.02-.08-.18-.13-.27-.19h0c.12-.25.23-.49,0-.73-.25-.09-.51-.17-.75-.28-.36-.17-.22-.32.04-.44,1.15-.76,1.15-.77.18-1.95-.01-.14-.02-.28-.03-.42.38.13.79.23,1.07-.17.31-.45-.27-.56-.38-.85-.06-.14-.08-.3-.13-.45Z"/>
      <path class="cls-3" d="m22.7,37.43c-.3-.27-.56-.57-.67-.97,1.07-.03,2.15-.02,3.21-.11.3-.03,1.02.33.88-.51-.18-1.03-.4.17-.72.02-.33-.15-.48-.85-.93-.51-.98.72-1.97.33-2.96.16h0c.07-.72.6-.72,1.13-.72,1.22,0,2.45,0,3.67,0-.09.75.61,1.13.8,1.74.23.27.37.55.12.89-1.51,0-3.02.02-4.53.03Z"/>
      <path class="cls-13" d="m56.56,28.33c.19.09.38.18.58.28l.1.19c.02.14.03.28.05.43-.47.05-.7.2-.25.62.56.53,1.12,1.06,1.68,1.58v.22c-.19.11-.34.23-.59-.01-.47-.46-1.01-.86-1.54-1.28-.78-.62-1.12-.47-1.4.56-.47.37-.67-.17-.79-.36-.27-.41-.64-.31-.99-.36l.04-.21c-.06-.43-.14-.84-.73-.48-.16-.07-.39-.26-.48-.2-.31.19.15.43,0,.67h-.45c-.25-.1-.5.39-.74-.01.3-.88.7-1.41,1.85-1.25,1.16.17,2.37-.02,3.56-.06.04,0,.07-.21.11-.32Zm-1.91.99l-.24.14c-.04.21.14.25.29.25.1,0,.28-.06.29-.1.02-.19-.16-.22-.34-.28Z"/>
      <path class="cls-7" d="m32.82,36.59c0-.18,0-.37,0-.55.05-.09.1-.19.15-.28l.05-.05c.33.15.34.52.53.77.25.44.5.88.75,1.32-.08.35-.58.5-.54.92.48.15.64-.13.82-.39.32-.27.04-.6.09-.89.16-.33.35-.62.72-.73l.11-.04c-.04.16-.07.31-.11.47-.06.29-.12.58-.19.87.02.7,0,1.4-.24,2.08-.2-.26-.5-.54-.79-.4-.89.44-1.61.04-2.37-.31-.14-.17-.28-.33-.42-.5.05-.17.1-.33.15-.5.09-.58.38-.88,1-.71.03.18,0,.45.26.43.29-.01.2-.26.18-.45-.03-.25-.06-.5-.09-.76l.03-.11-.1-.2Z"/>
      <path class="cls-16" d="m29.67,48.47c5.43,0,10.87-.02,16.3-.03.05.17.1.33.15.5-5.33.01-10.66.03-15.99.04-.26-.07-.42-.24-.46-.51Z"/>
      <path class="cls-13" d="m40.07,22.42c1.24.12,1.73.83,1.6,2.03-.22-.16-.54-.26-.66-.48-.68-1.22-.97-.54-1.27.23l-.03.04.04-.03c.26.08.65.07.67.4.02.41-.4.3-.64.3-.89,0-1.79.2-2.51-.69-.42-.52-1.21-.21-1.84-.26h0c.66-.87,1.6-.32,2.4-.49h.01c.12.35.26.67.64.74.56-.67-.06-1.49.31-2.17.31.51.86.23,1.28.37Z"/>
      <path class="cls-2" d="m36.96,47.05c-.22-.01-.43-.02-.65-.04-.61-.08-.93-.72-1.67-.67-1.98.12-3.96.06-5.95.08-.48-.33-.84-.74-.96-1.33.2.02.47-.03.58.08,1.25,1.23,2.82.86,4.29.87,3.39.03,6.78,0,10.17,0,.36,0,.72.02,1.08-.02,1.88-.22,2.18.06,2.11,2.01l-.21-.07c-.08-1.3-.75-1.71-2.04-1.63-2.26.14-4.57-.21-6.75.71Z"/>
      <path class="cls-2" d="m45.53,24.91c-.26-.06-.42-.22-.49-.48.35-.76,1.28-.18,1.65-.66.97-1.26,2.05-.77,3.16-.34l-.23.05c-.14.04-.3.06-.29.25,0,.01.17.01.26.02.66.29,1.47.2,2.22.91-.89-.19-.9.22-.76.72-.31-.07-.62-.14-.93-.22-.72-.47-1.58-.58-2.37-.66-.7-.07-1.59-.39-2.2.39Z"/>
      <path class="cls-7" d="m19.52,32.04l.1-.79c.36-.13.72-.26,1.09-.39.24.41-.34.8-.03,1.26.28-.34.55-.67.82-.99.15.03.53-.32.38.2-.12.43-.27.83-.01,1.34.32-.55.59-1.01.87-1.47l.19-.1c.81.18,1.02.76,1.01,1.5-.47.25-1.3-.46-1.49.55-.23.4-.55.48-.84.13-.52-.62-1-.45-1.51-.02-.27-.37-.6-.72-.56-1.23Z"/>
      <path class="cls-2" d="m38.28,38.1c.72.74.09,1.65.33,2.46-.03.47.29.79.5,1.16-.38.75-.42,1.43.35,1.98.09.15.19.3.28.45-.27.05-.56.05-.8.17-.44.2-.9.49-1.31.12-.52-.46.15-.83.21-1.26h0c.57-.84.98-1.67-.16-2.38-.19-.12-.31-.33-.22-.51.37-.7.17-1.61.83-2.2Z"/>
      <path class="cls-3" d="m20.08,33.27c.51-.43.99-.6,1.51.02.29.35.62.27.84-.13.58-.02,1.16-.04,1.74-.06.04.3.03.72.43.7.35-.02.2-.43.27-.67.17,0,.33,0,.5,0,.15.09.31.18.46.26.02.29.05.58.07.87-1.78.07-3.56.2-5.33-.19-.28-.19-.49-.42-.5-.79Z"/>
      <path class="cls-13" d="m31.54,25.63c.35.23.96.3.86.83-.11.57-.71.37-1.11.38-.98.02-1.87-.08-2.83-.53-1.27-.6-2.75-.67-4.16-.12-.46-.17-1,.06-1.43-.28.37.02.71-.06,1.02-.25l3.84-.03c.4,0,.8,0,1.2,0,.87.1,1.73.9,2.6,0Z"/>
      <path class="cls-13" d="m49.84,23.44c-1.11-.44-2.18-.93-3.16.34-.37.47-1.3-.1-1.65.66-.48,0-.97,0-1.45-.01.81-.47,1.62-.94,2.43-1.41l.21-.05c.21.05.35-.06.48-.2,1.34-.35,2.67-.83,4.35-.66-.56.32-.89.5-1.25.7.27.38.84-.11,1,.52-.29.25-.63.16-.96.12Z"/>
      <path class="cls-7" d="m27.27,29.68c.17.09.39.38.3.37-1.08-.03-.95,1.28-1.95,1.42.58.52.97-.07,1.44.18-.35.47-.69.93-1.03,1.4-.11-.34-.27-.6-.7-.45-.23-.07-.46-.14-.7-.21.06-.25.13-.5.19-.76.31-.4.06-1.02.52-1.37.18-.05.39-.07.47-.29.45-.23.89-.51,1.44-.31Z"/>
      <path class="cls-13" d="m27.68,37.57c.03.72.06,1.44.08,2.16.02.79-.26,1.66.8,2.09.35.14.21.56.14.87-.37.15-.69.1-.94-.23-.08-.66-.56-1.72-.73-1.69-1.36.2-.5-.74-.66-1.12.1-.17.19-.34.28-.52.21-.39.41-.77.62-1.16.13-.13.26-.27.4-.4Z"/>
      <path class="cls-2" d="m34.96,40.09c.24-.67.26-1.37.24-2.08l.2-.15c.22.8-.38,1.77.51,2.44h0c-.26,1.14-.82,2.26-.06,3.43.13.2.08.67-.25.69-.54.04-1.18.51-1.62-.22.67-.07,1.6.09,1-1.11,0-.11-.02-.23-.03-.34,0-.25,0-.51-.01-.76,0-.31,0-.62,0-.94,0-.09,0-.18,0-.28,0-.22.01-.44.02-.67Z"/>
      <path class="cls-13" d="m31.83,31.66c.04.15.07.31.13.45.12.29.69.4.38.85-.27.39-.68.29-1.07.17-.26-.21-.34-.66-.81-.62-.15.57-.38,1.12-.24,1.73l-.08.1c-.7-.9-.43-1.98.65-2.36-.23-.17-.44-.32-.71-.52.72-.55,1.26-.32,1.75.22Z"/>
      <path class="cls-13" d="m45.53,24.91c.61-.78,1.5-.46,2.2-.39.79.08,1.65.19,2.37.66-.21.33.26.46.27.72-.56.05-1.05-.58-1.56-.02-1.14-.16-2.04-1.15-3.29-.97Z"/>
      <path class="cls-7" d="m46.01,23.01c-.81.47-1.62.94-2.43,1.41h-.01c-.32.04-.54.24-.72.49l-.21.06c-.15-.11-.3-.23-.45-.34l-.06-.19c.39-.67,1.3-.55,1.76-1.27.21-.33.99-.3.99-1.06,0-.17.42-.09.65-.05.06.37.03.79.5.95Z"/>
      <path class="cls-7" d="m51.05,29.96c.24.4.49-.09.74,0,.14.24.28.48.42.72-.93-.07-.7.42-.44.92-.97-.56-2.25-.65-2.77-1.87-.07-.17-.11-.35-.21-.68.69.33,1.24.6,1.78.86.16.01.32.02.48.03Z"/>
      <path class="cls-16" d="m34.95,41.97c0,.25,0,.51.01.76-1.19-.04-2.39-.05-3.58-.14-.51-.04-.7.28-.95.58-.05-.18.01-.43-.26-.49-.11-.27.11-.46.17-.68.05-.1.11-.2.16-.29,1.46.43,2.94.41,4.44.26Z"/>
      <path class="cls-16" d="m20.58,34.05c1.76.39,3.55.26,5.33.19.21-.13.37-.59.62-.33.21.22-.05.59-.22.86-1.22,0-2.45,0-3.67,0-.53,0-1.06,0-1.13.72-.41-.42-.76-.87-.92-1.44Z"/>
      <path class="cls-13" d="m25.37,30.27c-.46.34-.21.96-.52,1.37-.31.16-.52.38-.42.76-.1.23-.28.25-.49.19.02-.74-.2-1.32-1.01-1.5.68-.68,1.71-.74,2.42-1.37v.02c.02.18.02.35.02.53Z"/>
      <path class="cls-16" d="m34.99,43.08c.6,1.21-.33,1.05-1,1.11-.8,0-1.6,0-2.4,0-.54-.24-1.33.31-1.69-.53.15-.09.3-.18.45-.27,1.45.49,2.92.3,4.38.06.1-.02.17-.25.25-.38Z"/>
      <path class="cls-16" d="m48.82,25.89c.52-.56,1,.07,1.56.02-.02-.26-.49-.39-.27-.72.31.07.62.14.93.22.76,0,1.24.46,1.68.99v.21c-1.05.02-2.05-.41-3.1-.23-.24-.14-.48-.28-.73-.42l-.08-.06Z"/>
      <path class="cls-16" d="m39.73,44.15c-.09-.15-.19-.3-.28-.45,1.52-.15,3.06.19,4.56-.25.65,1.4-.72.37-.91.76-.8,0-1.6,0-2.4,0-.24,0-.48,0-.72-.01l-.26-.04Z"/>
      <path class="cls-13" d="m23.89,26.6c-.04,1.24-1.11,1.32-1.91,1.69.15-.25.31-.49-.19-.49-.21,0-.48.09-.55-.24.72-.32,1.44-.64,2.17-.96.16,0,.33,0,.49,0Z"/>
      <path class="cls-13" d="m33.99,32.62c-.17.34-.4.92-.76.64-.45-.35-.5-1.02-.2-1.61.48.21.97-.92,1.45,0h0c-.36.23-.48.57-.48.97Z"/>
      <path class="cls-2" d="m29.9,43.67c.36.83,1.14.29,1.69.52-.63.75-1.46.41-2.2.33-.67-.08-1.25-.03-1.73.47-.29-.19-.42-.48-.45-.81.81-.16,1.67.22,2.44-.25l.25-.26Z"/>
      <path class="cls-7" d="m31.54,25.63c-.86.9-1.73.11-2.6,0,.2-.29.82-.38.47-.95.25-.18.73-.36.73-.04,0,1.19.82.71,1.37.8l.03.18Z"/>
      <path class="cls-13" d="m30.63,37.43c.24.31.48.63.72.94-.51-.05-.6.33-.69.7l-.23.03c-.32.02-.61.56-.93.12-.27-.37.17-.56.36-.77.29-.32.28-.87.78-1.02Z"/>
      <path class="cls-13" d="m31.31,33.54c.97,1.18.97,1.19-.18,1.95.1-.75-.47-.94-.99-1.17l.08-.1c.48-.04.72-.45,1.09-.68Z"/>
      <path class="cls-7" d="m33.99,24.93c-.3-.41-.6-.81-.94-1.27,1.08.17,1.67.9,1.89,2.22l-.2-.03c-.05-.47-.4-.69-.74-.92h0Z"/>
      <path class="cls-14" d="m27.76,42.46c.25.33.57.37.94.23.14.18.27.35.41.53v.22c-.26.06-.52.14-.79.17-.34.04-.74.12-.93-.28-.19-.39.06-.66.36-.87Z"/>
      <path class="cls-7" d="m27.68,37.57c-.13.13-.26.27-.4.4l-.11-.08c.02-.16.03-.32.05-.48.24-.34.11-.62-.12-.89.55.03.3-.72.75-.78.52.67.2,1.25-.17,1.83Z"/>
      <path class="cls-15" d="m30.51,41.72c-.05.1-.11.2-.16.29-1.16-.87-.27-1.53.23-2.23.03.17.06.33.08.5-.05.48-.1.96-.16,1.44Z"/>
      <path class="cls-7" d="m21.24,27.56c.07.33.34.24.55.24.5,0,.35.24.19.49-.57.11-.99.69-1.65.52-.1-.31.06-.54.24-.77.18-.22.31-.5.66-.47Z"/>
      <path class="cls-13" d="m30.48,29.01c-.41.66-.86.81-1.41.62-.15-.05-.28-.23-.15-.37.41-.44.94-.21,1.56-.25Z"/>
      <path class="cls-13" d="m22.73,31.2c-.27.46-.54.92-.87,1.47-.26-.5-.11-.91.01-1.34.15-.52-.23-.17-.38-.2.45-.8.83-.1,1.23.07Z"/>
      <path class="cls-13" d="m47.4,27.56c-.3.05-.4-.12-.35-.34.08-.32.27-.6.65-.61.21,0,.42.16.43.35.04.53-.53.36-.73.6Z"/>
      <path class="cls-2" d="m43.02,45.34c-.81.33-1.39.29-2.25.03.85-.35,1.43-.35,2.25-.03Z"/>
      <path class="cls-13" d="m33.99,25.89c.86,1.26-.54.87-.91,1.24.1-.56.47-.93.91-1.24h0Z"/>
      <path class="cls-2" d="m31.67,45.39c.72-.39,1.22-.32,1.73-.04-.46.27-.96.27-1.73.04Z"/>
      <path class="cls-7" d="m23.89,26.6c-.16,0-.33,0-.49,0-.21-.07-.43-.16-.64-.22-.2-.06-.56.04-.5-.29.05-.24.38-.2.61-.18.43.34.97.11,1.43.28-.14.14-.27.27-.41.41Z"/>
      <path class="cls-2" d="m37.83,43.18c-.7-.43-.49-1.01-.29-1.86.42.74.24,1.32.3,1.86h0Z"/>
      <path class="cls-13" d="m29.12,43.44v-.22c.35-.18.71-.35,1.06-.53.27.07.2.31.26.49l-.08.22c-.15.09-.3.18-.45.27l-.25.26c-.18-.16-.36-.33-.54-.49Z"/>
      <path class="cls-2" d="m52.91,45.27c-.67.39-1.1.33-1.81.11.65-.34,1.08-.3,1.81-.11Z"/>
      <path class="cls-13" d="m27.27,29.68c-.54-.2-.99.07-1.44.31-.16-.08-.32-.16-.48-.24v-.02c.61-.71,1.26-.69,1.92-.05Z"/>
      <path class="cls-2" d="m36.39,33.58c.08-.29.15-.58.23-.87.29.47.65.93.01,1.35-.08-.16-.16-.32-.24-.47Z"/>
      <path class="cls-13" d="m36.39,33.58c.08.16.16.32.24.47-.16.32-.34.62-.72.72,0-.24,0-.48,0-.72.07-.25.23-.41.48-.47Z"/>
      <path class="cls-13" d="m42.19,24.64c.15.11.3.23.45.34-.12.31-.29.55-.69.51-.16-.35.23-.55.25-.85Z"/>
      <path class="cls-13" d="m33.99,24.93c.34.23.69.45.74.92-.25.01-.49.02-.74.04h0c0-.32,0-.64,0-.96Z"/>
      <path class="cls-2" d="m37.6,35.5c-.18.23-.12.63-.58.72-.17-.55.15-.68.57-.73h0Z"/>
      <path class="cls-2" d="m35.91,34.06c0,.24,0,.48,0,.72v.24s-.23,0-.23,0c-.19-.09-.24-.26-.26-.45-.08-.17-.15-.34-.23-.51h0c.24,0,.48,0,.72,0Z"/>
      <path class="cls-16" d="m25.34,32.6c.42-.15.59.11.7.45-.07.11-.14.22-.21.33-.15-.09-.31-.18-.46-.26-.01-.17-.02-.34-.03-.51Z"/>
      <path class="cls-13" d="m31.83,36.21c.22.24.12.49,0,.73-.18-.04-.49-.01-.45-.24.03-.18.29-.33.45-.49Z"/>
      <path class="cls-13" d="m35.42,33.09c-.45-.17-.46-.55-.46-.94.46.16.46.55.46.94Z"/>
      <path class="cls-16" d="m30.67,40.27c-.03-.17-.06-.33-.08-.5v-.23c.09-.05.19-.1.28-.15.09.3.24.12.39.06-.19.27-.39.55-.58.82Z"/>
      <polygon class="cls-2" points="35.05 45.21 35.22 45.32 35.09 45.46 34.93 45.36 35.05 45.21"/>
      <path class="cls-13" d="m35.36,31.35c-.03.11-.05.18-.07.25l-.24-.16.05-.2.26.12Z"/>
      <path class="cls-2" d="m39.99,44.19c.24,0,.48,0,.72.01-.25.46-.49.45-.72-.01Z"/>
      <path class="cls-13" d="m42.85,24.91c.18-.25.4-.45.72-.48-.09.38-.37.49-.72.48Z"/>
      <path class="cls-13" d="m35.68,35.02h.24c.11.25.2.5.01.75l-.18-.02c-.02-.24-.05-.48-.07-.72Z"/>
      <path class="cls-2" d="m36.39,37.9c-.39-.16-.39-.32,0-.49h0c0,.17,0,.32,0,.48h0Z"/>
      <path class="cls-2" d="m36.39,39.82c0-.16,0-.32,0-.48h0c.39.16.39.32,0,.48h0Z"/>
      <path class="cls-13" d="m48.89,25.94c.24.14.48.28.73.42-.34.02-.61-.06-.73-.42Z"/>
      <path class="cls-13" d="m31.83,36.94c.09.06.25.11.27.19.05.21-.14.24-.29.28,0-.16.01-.31.02-.47Z"/>
      <path class="cls-2" d="m36.39,37.41l.2-.27c.16.25-.11.19-.2.27h0Z"/>
      <path class="cls-2" d="m36.4,39.82c-.08.24-.24.4-.48.48h0c.07-.25.23-.41.48-.48h0Z"/>
      <path class="cls-2" d="m36.39,39.34l-.27-.2c.25-.16.19.12.27.2h0Z"/>
      <path class="cls-2" d="m36.4,37.9l.27.2c-.25.16-.19-.12-.27-.2h0Z"/>
      <path class="cls-2" d="m35.75,35.74l.18.02c-.07.24-.14.47-.21.71l-.04-.25c.03-.16.05-.32.08-.48Z"/>
      <path class="cls-14" d="m35.41,37.86l-.2.15c.06-.29.12-.58.19-.87,0,.24,0,.48.01.72Z"/>
      <path class="cls-15" d="m30.87,39.39c-.1.05-.19.1-.29.15-.05-.15-.11-.3-.16-.45l.23-.03c.07.11.14.21.21.32Z"/>
      <polygon class="cls-2" points="42.64 30.93 42.8 31.02 42.63 30.94 42.64 30.93"/>
      <path class="cls-13" d="m35.67,36.22l.04.25-.21.2-.11.04c.01-.15.02-.3.03-.45l.24-.05Z"/>
      <path class="cls-2" d="m42.63,30.94h.01s-.01,0-.01,0Z"/>
      <polygon class="cls-2" points="34.48 31.65 34.51 31.69 34.47 31.66 34.48 31.65"/>
      <path class="cls-1" d="m71.01,66.98c.26.14.24.4.27.64-.37.4-.65.92-1.24,1.06-.04-.26-.07-.52-.11-.77.11-.11.22-.23.32-.34.25-.2.51-.39.76-.59Z"/>
      <path class="cls-13" d="m65.51,44.09c-.11-.13-.22-.26-.33-.4-.52-.99.88-.17.74-.81-.34-.21-.66-.53-1.14-.43-.38-.37-.88-.4-1.36-.49.21-.35.73-.03.95-.36-.27-.44-.78-.26-1.07-.54.11-.09.22-.18.33-.27l.23-.1c-.04-.16-.17-.19-.32-.17h.01c-.6-.13-.47-.91-.99-1.11-.39-.18-.78-.38-1.23-.34.43-.48.24-.66-.32-.69-.11,0-.38.05-.29-.2.04-.11.26-.16.39-.24.55-.15,1.2.25,1.69-.28.39-.38.8-.13,1.22-.04.42.09,1.07.37,1.22.2.92-.99,1.03.15,1.29.49.45.57.52,1.38,1.1,1.94.37-.48.48-.96.37-1.49.02-.46.05-.93.07-1.39.36.79,1.01,1.47.99,2.41.03.59-.63,1.44.25,1.72.89.28.51-.89.97-1.21.07.16.14.32.2.48-.16.56-.33,1.13-.49,1.69-.31,1.02.78.9,1.18,1.45-.7.4-1.42.22-2.12.13-.37-.05-.6-.63-1.14-.21-.25.2-.27-.27-.3-.47-.06-.36.07-.77-.19-1.08-.27.07-.3.24-.3.39.04.95-.08,1.71-1.35,1.23-.06-.02-.19.12-.29.19Z"/>
      <path class="cls-2" d="m70.02,42.46c.16-.56.33-1.13.49-1.69.15-.08.3-.17.45-.25.43.2.82.46,1.29-.02.27-.28.73-.3,1.14-.2.16.92-.22,1.48-1.19,1.72.57.2,1.1.4,1.53-.09.42-.48.54-1.04.14-1.62.4-.31.8-.63,1.19-.94.97-.35,1.35-.01,1.35.93,0,.39-.53,1.08.33,1.3l-.12.17c-.45,0-.89.01-1.34.02-.67.35-.4.71,0,1.03.23.18.6.21.54.63-.31.23-.63.45-.94.68-.55.01-1.1.01-1.65.05-.65.04-1.1-.18-1.44-.78-.37-.65-.84-1.3-1.78-.91Z"/>
      <path class="cls-2" d="m67.2,52.55c-.49.29-.85.29-1.35,0,.5-.29.85-.29,1.35,0Z"/>
      <path class="cls-4" d="m110.89,15.06c-.98,1.64-2.24,3.08-3.4,4.58-4.08,5.28-8.19,10.54-12.28,15.82-.25.32-.44.68-.93.61-.08-.11-.15-.21-.22-.32.37-.26.18-.61.16-.93.02-.21.03-.43.05-.64-.13-.6.2-1.06.46-1.56,1.57-3.04,3.12-6.09,4.67-9.14,1.66-3.26,3.32-6.52,4.97-9.78.18.73.77.69,1.33.67,1.77-.05,3.51.21,5.21.69Z"/>
      <path class="cls-3" d="m76.74,41.58c-.86-.22-.33-.91-.33-1.3,0-.94-.38-1.27-1.35-.93-.4-.01-.81-.03-1.21-.04-.06-.29.14-.88-.44-.65-.59.24-.95-.19-1.42-.25l-.09-.09c0-.15,0-.31,0-.46,4.23,0,8.47,0,12.7.01,2.84,0,5.67.05,8.51.07-.05.63-.37,1.08-.95,1.33-.2-.2-.42-.32-.74-.3-4.26.24-8.53.04-12.8.11-.42,0-.86-.12-1.26.42l14.35.08c-.01.51-.39.83-.65,1.21-3,0-6,0-9.01,0v.16h8.94c-.35.42-.69.84-1.04,1.25h-.26s.01,0,.01,0c-3.36-.09-6.72.11-10.07-.23.16-.12.31-.23.47-.35.19-.14.43-.31.2-.55-.28-.29-.56-.25-.7.17-.17.08-.33.16-.5.24h.02s-.26-.08-.26-.08c-.39-.23-.66,0-.93.25-.43.37-.83.23-1.21-.09Z"/>
      <path class="cls-15" d="m110.89,15.06c-1.7-.48-3.44-.74-5.21-.69-.55.01-1.14.06-1.33-.67.36-.75.72-1.49,1.08-2.24,2.65-.61,5.37-.47,8.06-.76.75-.08.64.34.32.79-.55.77-1.24,1.45-1.54,2.38h0c-.6.22-.85.87-1.39,1.18Z"/>
      <path class="cls-3" d="m94.08,36.47c.09.44-.33.58-.51.87-.32.03-.64.07-.95.07-7.07,0-14.14,0-21.21,0-.31-.18-.62-.36-.93-.55.01-.26.03-.52.26-.7.66.34,1.39.4,2.09.38,7.09-.22,14.17-.06,21.26-.07Z"/>
      <path class="cls-3" d="m88.74,43.66c-3.58,0-7.16,0-10.74,0-.55,0-1.13.09-1.57-.37.74-.34,1.48-.68,2.21-1.02.4.24.84.18,1.28.18,3.26.01,6.51.02,9.77.04-.41.31-.36,1-.95,1.17Z"/>
      <path class="cls-6" d="m94.08,36.47c-7.09,0-14.17-.15-21.26.07-.71.02-1.43-.04-2.09-.38v-.11c.64-.02,1.27-.07,1.91-.07,6.27,0,12.54,0,18.81,0,.55,0,1.12.09,1.64-.22.32,0,.64,0,.96-.01.07.11.15.21.22.32-.07.13-.13.27-.2.4Z"/>
      <path class="cls-6" d="m71.4,37.41c7.07,0,14.14,0,21.21,0,.32,0,.64-.05.95-.07-.04.29-.23.47-.46.63-2.84-.03-5.67-.06-8.51-.07-4.23-.01-8.47,0-12.7-.01-.23-.09-.47-.17-.5-.47Z"/>
      <path class="cls-11" d="m91.72,39.61l-14.35-.08c.4-.54.84-.41,1.26-.42,4.27-.07,8.53.12,12.8-.11.32-.02.53.1.74.3-.15.1-.29.21-.44.31Z"/>
      <path class="cls-11" d="m89.69,42.49c-3.26-.01-6.51-.02-9.77-.04-.43,0-.88.06-1.28-.18.18-.08.37-.17.55-.25l.45-.02c3.35.34,6.71.14,10.07.23l-.03.26Z"/>
      <path class="cls-11" d="m91,40.98h-8.94v-.16c3,0,6,0,9,0l-.07.16Z"/>
      <path class="cls-11" d="m89.71,42.23h.26s-.26,0-.26,0Z"/>
      <path class="cls-3" d="m41.74,67.47h9.45c0,.15,0,.3,0,.45h-8.99c-.15-.15-.31-.3-.46-.45Z"/>
      <path class="cls-7" d="m46.01,73.45c.67-.01,1.3.13,1.87.5-.58-.02-1.16-.05-1.74-.07-.04-.14-.08-.28-.12-.43Z"/>
      <path class="cls-16" d="m30.69,49.93c.65.22,1.33.23,2.01.23,4.58,0,9.16.01,13.74.02-.4.36-.9.28-1.37.28-4.35,0-8.7,0-13.05,0-.51,0-1.07.12-1.33-.52Z"/>
      <path class="cls-3" d="m67.17,66.21c.56-1.19,1.19-1.19,2.23-.02-.74.22-1.49-.04-2.23.02Z"/>
      <path class="cls-15" d="m70.42,66.46l.07-.23-.07.23Z"/>
      <path class="cls-7" d="m52.73,41.27l.17.02c.11.46.23.92.34,1.37-.73.01-1.46-.13-2.21.03-.46.1-.69.3-.74.75-.47-.29-.7-.79-1.04-1.19.5-.67,1.01.08,1.51-.02.68-.25,1.91.6,1.95-.96Z"/>
      <path class="cls-15" d="m53.24,42.66c-.11-.46-.23-.92-.34-1.37.38-.41.38-.97.56-1.46.22.78-.28,1.62.2,2.38,0,.09,0,.19,0,.28-.1.16-.25.21-.42.17Z"/>
      <path class="cls-3" d="m53.66,42.21c-.48-.76.02-1.6-.2-2.38,0-.09-.01-.18-.02-.27h.06s.06,0,.06,0c.7.09,1.38,0,2.05-.19.31.09.62.17.94.26.74-.01,1.49-.02,2.23-.04,1.26-.05,2.53-.11,3.79-.17.52.2.39.98.99,1.11-1.9.58-3.87.05-5.8.55h5.54c.3.28.81.09,1.07.54-.22.33-.74.01-.95.36-3.25.24-6.53-.38-9.77.25Z"/>
      <path class="cls-15" d="m64.79,42.45c.48-.1.79.23,1.14.43.13.64-1.26-.18-.74.81-.29-.09-.59-.19-.88-.28-.29-.37-.88-.23-1.12-.68.53-.15,1.15.25,1.61-.28Z"/>
      <path class="cls-15" d="m79.2,42.02c-.18.08-.37.17-.55.25-.74.34-1.48.68-2.21,1.02-.2.04-.4.09-.6.13.06-.42-.31-.45-.54-.63-.41-.32-.67-.68,0-1.03.16.76.69.91,1.32.7.57-.18.15-.47.01-.72l.12-.17c.38.32.78.46,1.21.09.32-.03.69.1.93-.25l.26.07c.13.16.16.34.06.52Z"/>
      <path class="cls-14" d="m75.12,61.03c-.09-.03-.19-.07-.28-.1-.05-.13-.11-.26-.16-.39.49-.26.94-.61,1.54-.56-.17.55-.53.92-1.1,1.05Z"/>
      <path class="cls-14" d="m74.63,60.48c-.21-.04-.3-.18-.33-.38.11.13.22.25.33.38Z"/>
      <path class="cls-2" d="m38.8,22.05c-.38.68.25,1.5-.31,2.17-.38-.07-.52-.39-.64-.73.26-.13.49-.28.35-.62l-.2-.05c-.05.22-.11.44-.16.66-.8.17-1.74-.38-2.4.48-.7-.48-.63-.96-.02-1.45l.02.03c.42.04.5.02.43-.24-.45-1.77.04-3.54-.01-5.3.13-1.48.89-2.73,1.43-4.06.35-.48.7-.97,1.05-1.45.25.06.47-.55.75-.04-.32.34-.68.66-.43,1.27.88-.3,1.75-1.18,2.61-.7.95.54,1.88.27,2.81.41l.39.07c-.24.59-1.26.48-1.2,1.35-.26.02-.53,0-.73.22-.83-.05-.62.38-.39.82-.53.16-1.04.37-1.47.73l-.16.1.15.1.14.09c0,.18.49.28.25.31-1.22.2-.22.67-.05,1.02-.93.27-1.76.53-2.59.76-.45.12-.41.28-.09.51l.1.05.1-.05c.17-.02.33-.04.5-.05.08.23.16.47.24.7-.23.11-.45.21-.68.32-.31-.12-.61-.4-.97-.07.12.37.48.22.7.35.16.06.32.13.48.19.18.2.41.37.43.67-.54.1-1.13-.12-1.71.27.45.43,1.14.41,1.32,1.02l-.05.18Zm-1.94.43c.17-.04.29-.09.24-.24l-.19-.11c-.1.03-.18.11-.26.17l.21.19Z"/>
      <path class="cls-4" d="m22,23c-.76.09-1.52.17-2.29.26-.67-1.72-1.51-3.36-1.99-5.15,2.35-.52,4.79-.22,7.13-.8.02.14.03.28.05.41-.21.51-.78.82-.81,1.43-.27.17-.48.37-.4.73-.84.89-.91,2.19-1.69,3.12Z"/>
      <path class="cls-16" d="m22,23c.78-.92.85-2.23,1.69-3.12.58.09.57.09.61.6,0,.1.13.26.2.27.76.08.67.39.11.76.52.2,1.16-.8,1.37.36.04.22.23-.41.53-.4.53,1.4,1.79,2.42,2.91,2.34-.01.47-.5.55-.71.85-2.39,0-4.78.01-7.17.02-.1-.63.66-1.02.46-1.67Z"/>
      <path class="cls-16" d="m37.29,12.94c-.54,1.33-1.3,2.59-1.43,4.06-.31.61-.34,1.29-.37,1.95-.05,1.2-.04,2.4-.05,3.59l-.02-.03c-1.01-2.18-2.13-4.31-2.66-6.67.82-.01,1.64,0,2.46-.04.25-.01.79-.02.24-.49,0-.3,0-.61,0-.91.34-.09.97.11.89-.44-.07-.48-.58-.06-.9-.09,0-.15,0-.31-.01-.46.5-.6,1.01-1.19,1.85-.47Z"/>
      <path class="cls-6" d="m21.53,24.67c2.39,0,4.78-.01,7.17-.02.24.01.47.02.71.04.35.57-.27.65-.47.95-.4,0-.8,0-1.2,0-1.25-.51-2.55-.16-3.82-.18-.74-.52-1.67-.04-2.43-.45l.05-.32Z"/>
      <path class="cls-11" d="m35.45,14.4c0,.3,0,.61,0,.91-.96.13-1.97-.22-2.89.29-.72.25-1.02-.17-1.23-.75.35-.38.79-.48,1.29-.47.95.02,1.89.02,2.84.03Z"/>
      <path class="cls-8" d="m35.45,14.4c-.95,0-1.89,0-2.84-.03-.5-.01-.94.09-1.29.47-.23-.23-.46-.46-.7-.68,1.58-.58,3.21-.12,4.82-.29.31.03.83-.39.9.09.08.55-.55.35-.89.44Z"/>
      <path class="cls-7" d="m24.08,19.15c.03-.61.6-.92.81-1.43.4.33.8.65,1.2.98-.62.39-1.22.83-2.01.45Z"/>
      <path class="cls-8" d="m32.56,15.59c.92-.51,1.93-.15,2.89-.29.55.47.02.47-.24.49-.82.04-1.64.03-2.46.04l-.2-.25Z"/>
      <path class="cls-11" d="m31.1,21.56c.17,0,.34-.01.5-.02.56.08,1.19-.06,1.66.53-1.02.98-1.59.22-2.16-.51Z"/>
      <path class="cls-11" d="m43.27,13.85c-.07-.86.96-.75,1.19-1.35.67-.02,1.34-.04,2-.06,11.94,0,23.88,0,35.82-.03.53,0,1.4.71,1.67-.45.15,0,.3.01.45.02.2.47.53.83.93,1.14.18.26.35.52.53.78l-.11.09c-.6-.03-1.19-.09-1.79-.09-12.5,0-24.99,0-37.49,0-.55,0-1.11,0-1.66,0-.51-.01-1.02-.02-1.54-.03Z"/>
      <path class="cls-11" d="m44.07,12.43c-.93-.14-1.86.13-2.81-.41-.86-.48-1.73.4-2.61.7-.26-.61.1-.93.43-1.27,1.35-.47,2.69.05,4.04.05,12.6-.03,25.19-.02,37.79-.02.2,0,.4-.02.6,0,.27.02.68-.09.72.24.05.41-.41.39-.7.48-.47-.32-1-.24-1.51-.24-10.51,0-21.03,0-31.54,0-.51,0-1.05-.08-1.52.22h-.26c-.9-.22-1.82-.58-2.63.25Z"/>
      <path class="cls-6" d="m46.97,12.18c.47-.3,1.01-.22,1.52-.22,10.51,0,21.03,0,31.54,0,.51,0,1.05-.08,1.51.24-11.52,0-23.05-.01-34.57-.02Z"/>
      <path class="cls-6" d="m44.07,12.43c.8-.82,1.72-.47,2.63-.26-.08.09-.16.19-.24.28-.67.02-1.34.04-2,.06-.13-.02-.26-.05-.39-.07Z"/>
      <path class="cls-1" d="m85.33,13.11c-.4-.31-.73-.67-.93-1.14,3.3-.09,6.59-.45,9.89-.62,3.11-.16,6.25-.51,9.34-.91,2.91-.37,5.8-.22,8.69-.45.97-.08,1.91-.55,2.93-.4.27.04.6-.04.74.28.16.37-.09.67-.35.81-1.04.58-1.54,1.57-2.07,2.55-.27.5-.72.74-1.3.64.3-.93.99-1.61,1.54-2.38.32-.45.43-.87-.32-.79-2.68.28-5.41.15-8.06.76-2.48-.2-4.91.38-7.36.45-3.26.09-6.49.63-9.76.64-.96,0-2.04.11-2.99.56Z"/>
      <path class="cls-3" d="m44.02,43.44c-1.5.44-3.05.1-4.56.25-.76-.55-.73-1.23-.35-1.98.23-.57.67-.72,1.24-.7.83.03,1.66.01,2.5.01.31.26.6.54.65.97-1.29,0-2.57,0-3.86,0,0,.15,0,.3,0,.44h3.98c.21.3.41.61.4.99Z"/>
      <path class="cls-16" d="m43.63,42.45h-3.98c0-.15,0-.3,0-.44,1.29,0,2.57,0,3.86,0,.04.15.08.3.12.44Z"/>
      <path class="cls-16" d="m42.85,41.03c-.83,0-1.66.02-2.5-.01-.57-.02-1.02.13-1.24.7-.21-.37-.53-.69-.5-1.17,1.41.47,2.83.15,4.24,0,0,.16,0,.32,0,.48Z"/>
      <path class="cls-15" d="m50.77,42.23c-.5.1-1.01-.65-1.51.02q-.17-.34.55-.75l.03-.2c.38.24.78.46.93.93Z"/>
      <path class="cls-13" d="m49.84,41.3l-.03.2c-.8-.18-1.36-.58-1.39-1.48.44.34.87.67,1.31,1.01l.11.27Z"/>
      <path class="cls-11" d="m42.39,39.38c-.26.01-.23-.17-.24-.34.08.11.16.22.24.34Z"/>
      <path class="cls-3" d="m54.38,34.55c-.23-.3-.47-.6-.7-.9.01-.11.03-.23.04-.34,1.13-.27,2.29-.21,3.44-.21,4.6,0,9.2.01,13.8.01,7.68,0,15.37.02,23.05.02.01.37.03.74.04,1.1-7,.02-13.99.02-20.99.07-.56,0-1.38-.48-1.7.51-.04.14-.2.04-.29-.04-.88-.79-1.95-.38-2.94-.47h-.32c-4.1-.01-8.2-.02-12.3-.03-.4,0-.8,0-1.14.25Z"/>
      <path class="cls-3" d="m68.02,38.76c.11.53,0,1.01-.37,1.49-.58-.55-.66-1.37-1.1-1.94-.27-.34-.38-1.48-1.29-.49-.16.17-.81-.11-1.22-.2-.41-.09-.82-.35-1.22.04-1.92-.5-3.86-.13-5.8-.14,1.32.62,2.74.22,4.1.42-.14.08-.35.13-.39.24-.09.25.17.19.29.2.56.03.75.21.32.69-1.56,0-3.12,0-4.68.01-.05-.91-.68-1.62-.88-2.48.35-.29.76-.16,1.15-.16,3.56,0,7.11-.01,10.67-.02.02.35-.05.68-.21,1-.2.41.13.43.41.46.08.29.15.58.23.88Z"/>
      <path class="cls-3" d="m55.24,35.75c-.27-.27-.51-.55-.62-.93,1.06-.31,2.13-.04,3.19-.04,2.86,0,5.73.02,8.59,0,.84,0,1.31.23,1.18,1.15-3.05.01-6.1.04-9.16.03-1.06,0-2.14.14-3.19-.2Z"/>
      <path class="cls-7" d="m53.44,39.56c0-1.78-1.56-2.73-2.25-4.14-.26-.54.07-.97.19-1.49.13.08.26.11.33.2.81,1.08,1.76,2.04,2.58,3.12.46.6,1.24.96,1.3,1.85-.68.14-1.51-.46-2.02.45h-.06s-.06,0-.06,0Z"/>
      <path class="cls-3" d="m51.77,31.61c-.26-.5-.5-.99.44-.92.1.26.3.26.52.22.45.35.89.7,1.48,1.16-.16-1.05-.63-1.43-1.48-1.35v-.03c.1-.34.37-.44.68-.48.35.05.71-.05.99.36.13.19.32.73.79.36,1.12-.01,1.28,1.07,1.89,1.65-1.13.02-2.25.04-3.38.05-.51-.22-.98-.58-1.59-.5-.26-.07.03-.51-.34-.51Z"/>
      <path class="cls-16" d="m67.58,35.92c.13-.93-.34-1.16-1.18-1.15-2.86.03-5.73,0-8.59,0-1.07,0-2.13-.26-3.19.04-.08-.09-.16-.18-.24-.27.34-.26.74-.25,1.14-.25,4.1,0,8.2.01,12.3.02,0,1.19-.01,2.38-.02,3.57-.28-.03-.61-.04-.41-.46.16-.33.23-.65.21-1,0-.17,0-.33-.01-.5Z"/>
      <path class="cls-6" d="m67.58,35.92c0,.17,0,.33.01.5-3.56,0-7.11,0-10.67.02-.39,0-.8-.13-1.15.16-.18-.28-.36-.56-.53-.85,1.04.34,2.12.2,3.19.2,3.05,0,6.1-.02,9.16-.03Z"/>
      <path class="cls-3" d="m49.84,41.3l-.11-.27c.47-.1,1.07.14,1.31-.53l.23-.03c.02.3.11.56.41.69.53-.04.34-.64.68-.85.42.2.32.61.36.96-.04,1.56-1.27.71-1.95.96-.15-.47-.55-.69-.93-.93Z"/>
      <path class="cls-11" d="m56.65,39.08c1.56,0,3.12,0,4.68-.01.45-.05.84.15,1.23.34-1.26.06-2.53.12-3.79.17-.74.03-1.49.03-2.23.04.04-.18.07-.36.11-.53Z"/>
      <path class="cls-7" d="m50.7,35.02c-.61-.17-1.43.06-1.6-.85-.05-.26.01-.7.33-.67.87.08.97.89,1.27,1.52Z"/>
      <path class="cls-16" d="m52.11,32.12c.61-.08,1.08.28,1.59.5,0,.23.01.46.02.69-.01.11-.03.23-.04.34-.55-.48-1.17-.89-1.56-1.53Z"/>
      <path class="cls-16" d="m53.56,39.55c.51-.91,1.34-.31,2.02-.45l.03.25c-.67.19-1.35.28-2.05.19Z"/>
      <path class="cls-7" d="m51.68,41.16c-.3-.13-.39-.39-.41-.69.09-.24.18-.49.39-1.06.11.81.18,1.27.02,1.75Z"/>
      <path class="cls-11" d="m42.15,14.88c-.23-.44-.44-.88.39-.82.71.45,1.5.27,2.26.3.56,0,1.12,0,1.68,0,12.67,0,25.33,0,38,0,.44,0,.99.21,1.27-.38l.11-.09c.46.39.78.87.98,1.44l-.09.08c-.32-.03-.64-.08-.95-.08-11.27,0-22.53,0-33.8,0-.31,0-.72-.17-.92.27.18.26.45.17.67.22,0,.19-.6.08-.23.46.11.36.39.47.73.5.57.85,1.77.66,2.39,1.44,0,.31,0,.63,0,.94-.35.7-1.01.4-1.56.5-.23.04-.83-.13-.36.47.07.25.22.41.46.49-.16.31-.32.63-.48.94h-.21c-.17-.14-.34-.13-.52,0,0,.17,0,.33,0,.5-.45.57.12.96.26,1.42l-.16.09.16.19c.25,1.1,1.13.92,1.91.93,0,.24,0,.47,0,.71-.59.15-1.7-.46-1.42.97l-.02.02c-.44-.53-.92-1-1.68-.99-.13-.5-.12-.9.76-.72-.75-.71-1.55-.62-2.22-.91,0-.09.02-.18.03-.28l.23-.05c.33.04.68.13.96-.12-.15-.63-.73-.14-1-.52.35-.2.69-.39,1.25-.7-1.68-.17-3,.31-4.35.66-.16.07-.32.13-.48.2l-.21.05c-.47-.16-.44-.58-.5-.95.22,0,.44-.01.67-.02-.08-1.26.88-.87,1.54-.98.7.31,1.4.24,2.11.03.34,0,.67-.02,1.01-.02.17,0,.29.31.5.07.25-.29-.07-.24-.18-.35-.18-.18-.45-.35-.26-.68,1.02.19,1.12-.73,1.19-1.25.13-.86-.9-.52-1.31-.89-.13-.06-.5.07-.29-.25.16-.24.49-.37.89-.65-.48-.03-.81-.03-1.13-.07-.32-.04-.68.01-.39-.58.16-.32-.35-.28-.6-.29-.85-.02-1.59.4-2.5.69.2-.67.69-.87,1.05-1.19.13-.12.23-.24-.05-.28h-.24c-.47-.02-.95-.07-1.4.15l-.33.07c-.37-.28-.8-.28-1.23-.26-.83.02-1.61-.19-2.39-.44Zm11.15,3.59c-.1.04-.17.07-.23.09l.2.2.19-.06-.15-.23Zm-3.73-2.88l-.06-.18-.2.05.06.17.19-.05Z"/>
      <path class="cls-16" d="m38.59,19.45c.23-.11.45-.21.68-.32.7-.23,1.39-.46,2.09-.69-.81-.21-1.58-.36-2.33,0-.17.02-.33.04-.5.05h-.2c-.33-.23-.37-.39.09-.51.83-.22,1.66-.48,2.59-.76-.16-.34-1.17-.81.05-1.02.23-.04-.24-.14-.25-.31,1.15-.02,2.3-.04,3.45-.05-.91,1.32-1.54,2.81-2.61,4.03-.95-.06-1.89-.16-2.84.05-.16-.06-.32-.13-.48-.19.09-.09.17-.18.26-.27Z"/>
      <path class="cls-6" d="m44.26,15.84c-1.15.02-2.3.04-3.45.05l-.13-.09v-.19c.44-.36.94-.57,1.47-.73.78.25,1.56.46,2.39.44.43-.01.86-.02,1.23.26-.35.46-.71.92-1.09,1.42-.23-.44,0-.76,0-1.09,0-.37-.26-.07-.41-.07Z"/>
      <path class="cls-13" d="m38.85,21.87c-.18-.61-.86-.59-1.32-1.02.58-.39,1.17-.18,1.71-.27l.07.07c.05.18-.77.22-.1.46.47.17,1,.17,1.5.24-.02.27-.1.51-.34.66.17-.56-.22-.48-.52-.42-.34.07-.67.19-1.01.28Z"/>
      <path class="cls-7" d="m50.77,17.98c.4.37,1.43.03,1.31.89-.07.51-.17,1.44-1.19,1.25.07-.28.9-.22.48-.52-.67-.47-.58-1.02-.6-1.62Z"/>
      <path class="cls-13" d="m38.81,19.91c.94-.21,1.89-.1,2.84-.05.01.36-.1.63-.48.73-.64-.67-1.24.19-1.86.06l-.07-.07c-.02-.3-.25-.47-.43-.67Z"/>
      <path class="cls-7" d="m39.31,20.65c.62.13,1.22-.73,1.86-.06l-.45.76c-.5-.08-1.03-.08-1.5-.24-.67-.24.15-.28.1-.46Z"/>
      <path class="cls-7" d="m47.72,21.07c-.65.11-1.62-.28-1.54.98-.31-.4-.74-.73-.69-1.31.53.04,1.07-.25,1.6.02.21.11.42.21.62.31Z"/>
      <path class="cls-7" d="m38.85,21.87c.34-.1.67-.21,1.01-.28.31-.06.69-.14.52.42-.1.14-.2.27-.3.41-.42-.14-.96.14-1.28-.37l.05-.18Z"/>
      <path class="cls-7" d="m50.83,21.08c-.34,0-.67.02-1.01.02-.33-.23-.52-.56-.77-1.23.74.5,1.26.85,1.78,1.2Z"/>
      <path class="cls-6" d="m46.11,15.51c.45-.22.93-.18,1.4-.17-.46.15-.85.85-1.4.17Z"/>
      <path class="cls-10" d="m86.84,15.33c-.2-.57-.52-1.05-.98-1.44-.18-.26-.35-.52-.53-.78.95-.45,2.03-.55,2.99-.56,3.27,0,6.5-.55,9.76-.64,2.46-.07,4.89-.65,7.36-.45-.36.74-.72,1.49-1.08,2.24-1.66,3.26-3.31,6.52-4.97,9.78-1.55,3.05-3.1,6.1-4.67,9.14-.26.5-.59.95-.46,1.56l-.2.08c-.01-.37-.03-.74-.04-1.1,0-.17-.02-.35-.02-.52-.09-.38.28-.86-.27-1.13-.04-.12-.08-.24-.12-.36-.03-.39-.06-.78-.09-1.18-.14-.42.03-.94-.42-1.24l-.02-.13c0-.19-.01-.37-.02-.56.09-.47-.13-.82-.42-1.16-.02-.17-.05-.34-.07-.51-.08-.32-.16-.64-.24-.97-.08-.18-.16-.35-.24-.53-.11-1.06-.8-1.9-1.1-2.89-.14-.46-.34-1.07-1-1.19-.1-.38-.21-.76-.31-1.14.01-.27.02-.52-.37-.49-.04-.41-.03-.85-.57-.96-.02-.35.04-.75-.44-.87-.7-.5-.54-1.64-1.45-2Z"/>
      <path class="cls-15" d="m17.72,18.11c.48,1.79,1.32,3.44,1.99,5.15-1.57.69-3.29.87-4.93,1.31-1.17-1.8-2.33-3.61-3.52-5.4-.34-.51-.2-.68.37-.73,2.03-.19,4.05-.33,6.09-.33Z"/>
      <path class="cls-3" d="m29.12,43.44c.18.16.36.33.54.49-.77.47-1.63.09-2.44.25-1.16-1.48-2.38-2.93-3.24-4.61.8.02,1.61.05,2.41.07.15.38-.7,1.32.66,1.12.17-.02.65,1.03.73,1.69-.31.21-.55.48-.36.87.19.4.59.31.93.28.27-.03.53-.11.79-.17Z"/>
      <path class="cls-7" d="m28.7,46.43c1.98-.01,3.97.04,5.95-.08.75-.04,1.07.59,1.67.67-.12.49-.49.43-.85.37-1.65-.27-3.32-.06-4.98-.13-.63-.03-1.13.33-1.71.46-.03-.43-.05-.87-.08-1.3Z"/>
      <path class="cls-3" d="m27.29,37.97c-.21.39-.41.77-.62,1.16-.99,0-1.97-.16-2.96.03-.25-.42-.5-.84-.75-1.26,1.41,0,2.81,0,4.22,0l.11.08Z"/>
      <path class="cls-16" d="m21.5,35.5c1,.17,1.98.56,2.96-.16.45-.33.6.36.93.51.32.15.55-1.06.72-.02.14.84-.58.48-.88.51-1.07.1-2.14.08-3.21.11-.49-.15-.52-.55-.52-.96Z"/>
      <path class="cls-11" d="m27.18,37.89c-1.41,0-2.81,0-4.22,0-.09-.15-.17-.31-.26-.46,1.51,0,3.02-.02,4.53-.03-.02.16-.03.32-.05.48Z"/>
      <path class="cls-16" d="m23.71,39.16c.98-.19,1.97-.02,2.96-.03-.09.17-.19.34-.28.52-.8-.02-1.61-.05-2.41-.07-.09-.14-.17-.28-.26-.42Z"/>
      <path class="cls-16" d="m21.48,24.99c.76.42,1.69-.07,2.43.45l-.02.21c-.31.2-.66.28-1.02.25-.23-.02-.56-.07-.61.18-.06.33.29.24.5.29.22.06.43.15.64.22-.72.32-1.44.64-2.17.96-.36-.03-.49.25-.66.47-.03-1.11.31-2.11.91-3.04Z"/>
      <path class="cls-11" d="m41.35,39.35c-.6.28-1.18.25-1.77.01.59-.32,1.18-.34,1.77-.01Z"/>
      <path class="cls-11" d="m38.88,37.6c.96-.26,1.59-.19,2.58-.07-.97.48-1.6.4-2.58.07Z"/>
      <path class="cls-16" d="m92.31,25.4c.08.32.16.64.24.97-13.27,0-26.54,0-39.81,0-.28-1.43.83-.82,1.42-.97,12.72,0,25.44,0,38.15,0Z"/>
      <path class="cls-7" d="m36.96,47.05c2.18-.92,4.49-.57,6.75-.71,1.3-.08,1.97.33,2.04,1.63-.48-.55-1.07-.76-1.81-.73-1.87.09-3.75-.13-5.62.22-.46.08-1.07.24-1.36-.41Z"/>
      <path class="cls-16" d="m93.5,29.96c.03.39.06.78.09,1.18-.64.01-1.28.04-1.92.04-10.4,0-20.81,0-31.21,0-.59,0-1.21-.12-1.75.25-.56-.53-1.12-1.06-1.68-1.58-.44-.42-.22-.57.25-.62l.21-.14c-.09-.09-.18-.19-.27-.28l-.1-.19c1.03-.23,2.07-.06,3.11-.06,9.55,0,19.11.01,28.66-.02,1.39,0,2.77.58,4.16.07l.02.14c-.02.18-.04.36-.05.54-11.03,0-22.05-.01-33.08.01-.41,0-1.09-.41-1.24.44,10.89,0,21.78.02,32.67.02.72,0,1.44,0,2.13.23Z"/>
      <path class="cls-15" d="m34.68,37.44c-.06.3.23.63-.09.89,0-.22-.05-.42-.28-.53-.25-.44-.5-.88-.75-1.32.73-.51.27-1.29.44-1.93.24.07.39.23.47.47.09.35.35.47.68.49,0,.15.01.3.02.45-1.16.17-.84.83-.49,1.49Z"/>
      <path class="cls-13" d="m34,34.55c-.17.64.29,1.42-.44,1.93-.19-.25-.21-.62-.53-.77.02-.5.36-.88.57-1.29.15-.29.31-.06.4.13Z"/>
      <path class="cls-7" d="m31.31,33.54c-.36.22-.61.64-1.09.68-.13-.61.09-1.16.24-1.73.47-.03.55.42.81.62.01.14.02.28.03.42Z"/>
      <path class="cls-12" d="m30.87,39.39c-.07-.11-.14-.21-.21-.32.09-.37.18-.75.69-.7h.2c-.05.18-.1.34-.15.51-.05.19-.09.38-.14.58h0c-.14.06-.3.23-.39-.06Z"/>
      <path class="cls-13" d="m35.15,35.5c-.33-.02-.58-.14-.68-.49.15-.17.3-.34.45-.51l.06.06c.06.31.12.63.17.94Z"/>
      <path class="cls-13" d="m32.98,37.66c.02.18.11.43-.18.45-.27.01-.23-.25-.26-.43.15,0,.29,0,.44-.01Z"/>
      <path class="cls-13" d="m35.19,34.06c.08.17.15.34.23.51-.15,0-.29,0-.44,0l-.06-.06c.09-.15.18-.3.27-.45Z"/>
      <path class="cls-13" d="m32.82,36.59l.1.2-.03.11c-.03-.1-.05-.21-.08-.31Z"/>
      <path class="cls-13" d="m32.97,35.76c-.05.09-.1.19-.15.28.05-.09.1-.19.15-.28Z"/>
      <path class="cls-6" d="m58.71,31.43c.54-.37,1.16-.24,1.75-.25,10.4,0,20.81,0,31.21,0,.64,0,1.28-.02,1.92-.04.04.12.08.24.12.35-.48.27-1.02.16-1.53.16-9.96.02-19.93.03-29.89.04-1.19-.02-2.38-.04-3.58-.06v-.22Z"/>
      <path class="cls-7" d="m58.72,31.64c1.19.02,2.38.04,3.58.06-.09.29-.18.59-.27.88-1.65,0-3.3,0-4.95,0-.61-.58-.77-1.66-1.89-1.65.28-1.04.63-1.18,1.4-.56.52.41,1.06.81,1.54,1.28.25.25.4.12.59.01Z"/>
      <path class="cls-7" d="m53.4,30.2c-.31.04-.58.14-.69.48-.16-.24-.32-.47-.48-.71.14-.23-.32-.48,0-.67.09-.05.32.13.48.2-.03.57.37.49.73.48l-.04.21Z"/>
      <path class="cls-12" d="m53.44,29.99c-.35,0-.76.08-.73-.48.59-.36.66.05.73.48Z"/>
      <path class="cls-12" d="m54.65,29.32c.18.06.36.08.34.28,0,.05-.19.1-.29.1-.15,0-.33-.04-.29-.25l.24-.14Z"/>
      <path class="cls-12" d="m52.24,29.97c.16.24.32.47.48.71v.03s.01.19.01.19c-.22.04-.43.05-.52-.22-.14-.24-.28-.48-.42-.72.15,0,.3,0,.45,0Z"/>
      <path class="cls-12" d="m57.23,28.79c.09.09.18.19.27.28l-.21.14c-.02-.14-.03-.28-.05-.43Z"/>
      <path class="cls-3" d="m30.67,40.27c.19-.27.39-.55.58-.82h0c.19-.02.37-.05.56-.07.76.35,1.48.75,2.37.31.29-.14.58.15.79.4,0,.22-.01.44-.02.67-.95,0-1.9,0-2.86,0,0,.09,0,.18,0,.28h2.85c0,.31,0,.63,0,.94-1.49.16-2.98.17-4.44-.26.05-.48.1-.96.16-1.44Z"/>
      <path class="cls-14" d="m34.68,37.44c-.34-.66-.67-1.32.49-1.49.09.1.17.21.26.31-.01.15-.02.3-.03.45-.37.11-.57.4-.72.73Z"/>
      <path class="cls-3" d="m34.31,37.81c.23.11.27.31.28.53-.17.27-.34.55-.82.39-.04-.43.46-.57.54-.92Z"/>
      <path class="cls-16" d="m31.81,39.38c-.19.02-.37.05-.56.07.05-.19.09-.38.14-.58.14.17.28.33.42.5Z"/>
      <polygon class="cls-12" points="39.76 24.22 39.72 24.25 39.75 24.2 39.76 24.22"/>
      <path class="cls-13" d="m49.61,23.49c0,.09-.02.18-.03.28-.09,0-.26,0-.26-.02-.01-.2.15-.22.29-.25Z"/>
      <path class="cls-11" d="m25.34,32.6c.01.17.02.34.03.51-.17,0-.33,0-.5,0-.23,0-.46-.02-.7-.02-.58.02-1.16.04-1.74.06.19-1.02,1.02-.31,1.49-.55.21.05.39.03.49-.19h.22c.23.06.46.13.7.2Z"/>
      <path class="cls-16" d="m24.18,33.09c.23,0,.46.02.7.02-.06.24.08.66-.27.68-.4.02-.38-.4-.43-.7Z"/>
      <path class="cls-7" d="m23.9,25.65l.02-.21c1.28.02,2.57-.33,3.82.18-1.28,0-2.56.02-3.84.03Z"/>
      <path class="cls-7" d="m46.23,22.97c.16-.07.32-.13.48-.2-.13.14-.27.25-.48.2Z"/>
      <path class="cls-16" d="m24.65,32.39h-.22c-.1-.38.11-.59.42-.76-.06.25-.13.5-.19.76Z"/>
      <path class="cls-12" d="m25.35,29.74c.16.08.32.16.48.24-.08.22-.29.23-.47.28,0-.18,0-.35-.01-.53Z"/>
      <path class="cls-14" d="m30.36,43.4l.08-.22c.25-.3.44-.62.95-.58,1.19.08,2.38.1,3.58.14,0,.11.02.23.03.34-.08.13-.15.36-.25.38-1.46.24-2.93.43-4.38-.06Z"/>
      <path class="cls-11" d="m34.94,41.04h-2.85c0-.09,0-.18,0-.28.95,0,1.9,0,2.86,0,0,.09,0,.18,0,.28Z"/>
      <path class="cls-7" d="m35.43,36.27c-.09-.1-.17-.21-.26-.31,0-.15-.01-.3-.02-.45-.06-.31-.12-.63-.17-.94.15,0,.29,0,.44,0,.02.19.07.36.26.45.02.24.05.48.07.72-.03.16-.05.32-.08.48l-.24.05Z"/>
      <path class="cls-15" d="m70.72,36.05v.11c-.22.18-.25.44-.26.7-.27.3-.5.62-.49,1.06l-.03.08c-.29.59-.58,1.19-.86,1.78.01-.95-.63-1.62-.99-2.41-.19-.49-.09-.83.47-.94.09.44.08.91.48,1.34.64-.76.75-1.74,1.49-2.31.39.09-.25.53.2.6Z"/>
      <path class="cls-7" d="m69.08,39.78c.29-.59.58-1.19.86-1.78.09.33.09.73.54.84-.06.48-.12.97-.18,1.45-.46.32-.08,1.49-.97,1.21-.89-.28-.23-1.12-.25-1.72Z"/>
      <path class="cls-6" d="m61.12,37.94c-1.36-.19-2.78.2-4.1-.42,1.93,0,3.87-.36,5.8.14-.49.53-1.14.13-1.69.28Z"/>
      <path class="cls-11" d="m63.3,41.06h-5.54c1.92-.5,3.89.04,5.8-.55h-.01c.03.09.06.19.09.28-.11.09-.22.18-.33.27Z"/>
      <path class="cls-7" d="m68.56,36.43c-.56.11-.66.46-.47.94-.02.46-.05.93-.07,1.39-.08-.29-.15-.59-.23-.88,0-1.19.01-2.38.02-3.57.1,0,.21,0,.31,0,.02.14.04.29.06.43-.09.61.55,1.05.37,1.68Z"/>
      <path class="cls-15" d="m70.3,40.29c.06-.48.12-.97.18-1.45.13-.09.26-.18.38-.28l.34,1.26c-.08.23-.17.46-.25.69-.15.08-.3.17-.45.25-.07-.16-.14-.32-.2-.48Z"/>
      <path class="cls-3" d="m63.63,40.79c-.03-.09-.06-.19-.09-.28.15-.02.28,0,.32.17l-.23.1Z"/>
      <path class="cls-13" d="m70.95,40.51c.08-.23.17-.46.25-.69.95.18,1.72-.54,2.64-.5.4.01.81.03,1.21.04-.4.31-.8.63-1.19.94-.16,0-.32,0-.48,0-.41-.1-.87-.08-1.14.2-.47.48-.86.22-1.29.02Z"/>
      <path class="cls-12" d="m73.38,40.29c.16,0,.32,0,.48,0,.4.58.28,1.14-.14,1.62-.43.49-.96.29-1.53.09.98-.23,1.35-.8,1.19-1.72Z"/>
      <path class="cls-7" d="m76.62,41.75c.14.25.56.54-.01.72-.64.2-1.16.06-1.32-.7.45,0,.89-.01,1.34-.02Z"/>
      <path class="cls-16" d="m68.19,34.75c-.02-.14-.04-.29-.06-.43.99.09,2.06-.33,2.94.47.09.08.25.18.29.04.32-.99,1.14-.5,1.7-.51,7-.05,13.99-.05,20.99-.07l.2-.08c-.02.21-.03.43-.05.64-7.27,0-14.53,0-21.8,0,0,.09,0,.19,0,.28h20.32c0,.13,0,.26,0,.39h-18.82c0,.09,0,.18,0,.28h19.18c-.51.31-1.09.22-1.64.22-6.27,0-12.54,0-18.81,0-.64,0-1.28.04-1.91.07-.45-.07.18-.51-.2-.6.07-.28.36-.66-.22-.7-.7-.05-1.41-.3-2.12,0Z"/>
      <path class="cls-3" d="m93.09,35.76h-19.18c0-.09,0-.18,0-.28h18.82c0-.13,0-.26,0-.39h-20.32c0-.09,0-.19,0-.28,7.27,0,14.53,0,21.8,0,.03.32.21.68-.15.93-.32,0-.64,0-.96.01Z"/>
      <path class="cls-7" d="m73.84,39.32c-.92-.04-1.69.68-2.64.5-.11-.42-.22-.84-.34-1.26.05-.7-.44-.64-.89-.65-.01-.43.22-.75.49-1.06.31.18.62.36.94.55.03.3.27.38.5.47,0,.15,0,.31,0,.46-.11.08-.34.15-.2.29.14.14.22-.09.29-.21.47.06.83.49,1.42.25.58-.24.38.36.44.65Z"/>
      <path class="cls-7" d="m79.2,42.02c.1-.19.07-.36-.06-.52h-.02c.23.07.4,0,.5-.23.15-.42.42-.46.7-.17.23.24,0,.41-.2.55-.16.12-.31.23-.47.35-.15,0-.3.01-.45.02Z"/>
      <path class="cls-7" d="m78.88,41.43c-.24.35-.61.21-.93.25.27-.24.54-.47.93-.25Z"/>
      <path class="cls-15" d="m79.62,41.27c-.1.22-.27.29-.5.24.17-.08.33-.16.5-.24Z"/>
      <path class="cls-15" d="m35.43,22.54c.01-1.2,0-2.4.05-3.59.03-.66.06-1.33.37-1.95.06,1.77-.43,3.53.01,5.3.06.25,0,.27-.43.24Z"/>
      <path class="cls-13" d="m39.04,18.43c.75-.35,1.52-.2,2.33,0-.7.23-1.39.46-2.09.69-.08-.23-.16-.47-.24-.7Z"/>
      <path class="cls-8" d="m44.8,14.37c-.76-.04-1.56.15-2.26-.3.2-.22.47-.2.73-.22.51.01,1.02.02,1.53.03,0,.16,0,.32,0,.48Z"/>
      <path class="cls-13" d="m38.59,19.45c-.09.09-.17.18-.26.27-.22-.12-.58.02-.7-.35.36-.33.65-.04.97.07Z"/>
      <path class="cls-13" d="m37.83,23.48c.05-.22.11-.44.16-.66l.2.05c.14.34-.09.5-.35.62h-.01Z"/>
      <path class="cls-12" d="m36.86,22.48l-.21-.19c.09-.06.17-.14.26-.17l.19.11c.05.15-.06.2-.24.24Z"/>
      <polygon class="cls-16" points="40.68 15.62 40.68 15.81 40.53 15.71 40.68 15.62"/>
      <polygon class="cls-13" points="38.33 18.49 38.54 18.49 38.44 18.54 38.33 18.49"/>
      <path class="cls-8" d="m85.75,13.98c-.28.59-.83.38-1.27.38-12.67,0-25.33,0-38,0,0-.16,0-.32-.01-.48,12.5,0,24.99,0,37.49,0,.6,0,1.19.06,1.79.09Z"/>
      <path class="cls-6" d="m46.47,13.88c0,.16,0,.32.01.48-.56,0-1.12,0-1.68,0,0-.16,0-.32,0-.48.55,0,1.11,0,1.66,0Z"/>
      <path class="cls-6" d="m57.08,32.57c1.65,0,3.3,0,4.95.01.6.01,1.2.04,1.79.04,10.05,0,20.11,0,30.16,0,0,.17.02.35.02.52-7.68,0-15.37-.01-23.05-.02-4.6,0-9.2-.01-13.8-.01-1.15,0-2.3-.07-3.44.21,0-.23-.01-.46-.02-.69,1.13-.02,2.26-.04,3.38-.05Z"/>
      <path class="cls-7" d="m52.73,30.91v-.19c.84-.08,1.32.3,1.48,1.35-.58-.46-1.03-.81-1.48-1.16Z"/>
      <path class="cls-16" d="m89.97,20.79c.65.12.86.72,1,1.19.29,1,.98,1.84,1.1,2.89-.55-.06-1.11-.18-1.66-.18-12.08,0-24.17,0-36.25,0-.78-.01-1.66.18-1.91-.93,12.8,0,25.59,0,38.39,0v-.27h-1.3c-11.17,0-22.33,0-33.5,0-1.2,0-2.39,0-3.59,0-.14-.47-.71-.85-.26-1.42,12.65,0,25.3,0,37.95,0,0-.17,0-.33,0-.5h-37.23c.16-.31.32-.63.48-.94,11.54,0,23.08,0,34.63-.05.75,0,1.4.64,2.16.22Z"/>
      <path class="cls-6" d="m86.84,15.33c.91.36.74,1.49,1.45,2-.48.5-1.1.4-1.69.4-10.11,0-20.23,0-30.34.01-.56,0-1.24-.24-1.6.47h0c-.62-.77-1.82-.58-2.39-1.43,11.1,0,22.19,0,33.29,0,0-.17,0-.33,0-.5h-34.01c-.37-.38.23-.27.23-.46,11.16,0,22.31,0,33.47-.03.52,0,1.14.25,1.52-.38l.09-.08Zm.06,1.42c.06-.11.11-.19.16-.27-.09-.04-.2-.13-.28-.11l-.18.21c.09.05.18.1.3.17Z"/>
      <path class="cls-16" d="m89.29,19.16c.39-.04.38.22.37.49-1.8.68-3.69.46-5.55.46-10.46.01-20.93.01-31.39.02-.47-.6.14-.43.36-.47.54-.1,1.21.21,1.56-.5,11.55,0,23.1,0,34.65,0Z"/>
      <path class="cls-6" d="m89.29,19.16c-11.55,0-23.1,0-34.65,0,0-.31,0-.63,0-.94h0c11.36-.01,22.72-.01,34.09-.02.54.12.53.55.57.96Z"/>
      <path class="cls-6" d="m54.15,24.69c12.08,0,24.17,0,36.25,0,.55,0,1.11.12,1.66.18.08.18.16.35.24.53-12.72,0-25.44,0-38.15,0,0-.24,0-.47,0-.71Z"/>
      <path class="cls-6" d="m52.72,20.13c10.46,0,20.93,0,31.39-.02,1.86,0,3.74.22,5.55-.46.1.38.21.76.31,1.14-.76.43-1.41-.22-2.16-.22-11.54.05-23.08.04-34.63.05-.24-.08-.4-.24-.46-.49Z"/>
      <path class="cls-8" d="m52.71,21.56h37.23c0,.17,0,.33,0,.5-12.65,0-25.3,0-37.95,0,0-.17,0-.33,0-.5.17,0,.34,0,.52,0h.21Z"/>
      <path class="cls-8" d="m86.74,15.41c-.38.63-1,.38-1.52.38-11.16.02-22.31.02-33.47.03-.23-.05-.49.04-.67-.22.2-.44.61-.27.92-.27,11.27-.01,22.53,0,33.8,0,.32,0,.64.05.95.08Z"/>
      <path class="cls-16" d="m51.52,16.28h34.01c0,.17,0,.33,0,.5-11.1,0-22.19,0-33.29,0-.34-.03-.61-.14-.73-.5Z"/>
      <path class="cls-6" d="m52.24,23.48c1.2,0,2.39,0,3.59,0,11.17,0,22.33,0,33.5,0h1.3v.27c-12.8,0-25.59,0-38.39,0l-.16-.18.16-.09Z"/>
      <path class="cls-6" d="m53.3,18.48l.15.23-.19.06-.2-.2c.06-.03.13-.05.23-.09Z"/>
      <polygon class="cls-8" points="49.57 15.6 49.38 15.65 49.32 15.48 49.52 15.43 49.57 15.6"/>
      <path class="cls-16" d="m52.5,21.56c-.17,0-.34,0-.52,0,.17-.14.34-.14.52,0Z"/>
      <path class="cls-3" d="m93.98,32.62c-10.05,0-20.11,0-30.16,0-.6,0-1.2-.03-1.79-.04.09-.29.18-.59.27-.88,9.96-.01,19.93-.02,29.89-.04.51,0,1.04.11,1.53-.16.55.27.19.75.27,1.13Z"/>
      <path class="cls-16" d="m88.73,18.2c-11.36,0-22.72,0-34.09.01.37-.71,1.04-.47,1.6-.47,10.11-.01,20.23,0,30.34-.01.59,0,1.21.1,1.69-.4.48.12.42.52.44.87Z"/>
      <path class="cls-11" d="m93.02,29.26c.02-.18.04-.36.05-.54.45.31.29.83.42,1.24-.69-.22-1.41-.23-2.13-.23-10.89,0-21.78-.01-32.67-.02.55-.33,1.17-.22,1.76-.23,10.31,0,20.62,0,30.93-.01.55,0,1.13.13,1.63-.22Z"/>
      <path class="cls-3" d="m93.02,29.26c-.51.35-1.08.22-1.63.22-10.31,0-20.62,0-30.93.01-.59,0-1.21-.1-1.76.23.15-.86.83-.44,1.24-.44,11.03-.02,22.05-.02,33.08-.01Z"/>
      <path class="cls-3" d="m68.19,34.75c.71-.3,1.41-.04,2.12,0,.58.04.29.42.22.7-.74.57-.85,1.55-1.49,2.31-.4-.42-.39-.9-.48-1.34.18-.63-.47-1.07-.37-1.68Z"/>
      <path class="cls-3" d="m69.98,37.92c.45,0,.95-.05.89.65-.13.09-.26.18-.39.28-.45-.11-.44-.5-.54-.84l.03-.08Z"/>
      <path class="cls-3" d="m71.98,38.42c-.08.11-.15.34-.29.21-.14-.14.1-.22.2-.29l.09.09Z"/>
      <path class="cls-16" d="m86.9,16.75c-.13-.07-.21-.12-.3-.17l.18-.21c.09-.01.19.07.28.11-.05.08-.1.17-.16.27Z"/>
    </g>
  </g>
</svg>